<svg width="837" height="682" viewBox="0 0 837 682" fill="none" xmlns="http://www.w3.org/2000/svg">
<g filter="url(#filter0_dd_25_1181)">
<rect x="444.562" y="223.189" width="71.0439" height="26.8581" rx="13" transform="rotate(145.92 444.562 223.189)" fill="#555555"/>
<rect x="406.927" y="202.249" width="49.3842" height="10.3967" transform="rotate(55.92 406.927 202.249)" fill="#555555"/>
<rect x="470.566" y="192.785" width="43.0665" height="6.81518" rx="3.40759" transform="rotate(145.92 470.566 192.785)" fill="#555555" stroke="#555555"/>
<rect x="378.294" y="137.193" width="70.8949" height="35.7266" rx="8" transform="rotate(55.92 378.294 137.193)" fill="#555555"/>
<rect x="377.084" y="141.382" width="13.3975" height="13.3975" rx="6" transform="rotate(55.92 377.084 141.382)" fill="#E1E1E1"/>
<rect x="377.084" y="141.382" width="13.3975" height="13.3975" rx="6" transform="rotate(55.92 377.084 141.382)" stroke="#555555"/>
<rect x="386.781" y="155.715" width="13.3975" height="13.3975" rx="6" transform="rotate(55.92 386.781 155.715)" fill="#E1E1E1"/>
<rect x="386.781" y="155.715" width="13.3975" height="13.3975" rx="6" transform="rotate(55.92 386.781 155.715)" stroke="#555555"/>
<rect x="396.478" y="170.048" width="13.3975" height="13.3975" rx="6" transform="rotate(55.92 396.478 170.048)" fill="#E1E1E1"/>
<rect x="396.478" y="170.048" width="13.3975" height="13.3975" rx="6" transform="rotate(55.92 396.478 170.048)" stroke="#555555"/>
<rect x="406.175" y="184.381" width="13.3975" height="13.3975" rx="6" transform="rotate(55.92 406.175 184.381)" fill="#E1E1E1"/>
<rect x="406.175" y="184.381" width="13.3975" height="13.3975" rx="6" transform="rotate(55.92 406.175 184.381)" stroke="#555555"/>
<rect x="363.676" y="150.453" width="13.3975" height="13.3975" rx="6" transform="rotate(55.92 363.676 150.453)" fill="#E1E1E1"/>
<rect x="363.676" y="150.453" width="13.3975" height="13.3975" rx="6" transform="rotate(55.92 363.676 150.453)" stroke="#555555"/>
<rect x="373.373" y="164.786" width="13.3975" height="13.3975" rx="6" transform="rotate(55.92 373.373 164.786)" fill="#E1E1E1"/>
<rect x="373.373" y="164.786" width="13.3975" height="13.3975" rx="6" transform="rotate(55.92 373.373 164.786)" stroke="#555555"/>
<rect x="383.07" y="179.119" width="13.3975" height="13.3975" rx="6" transform="rotate(55.92 383.07 179.119)" fill="#E1E1E1"/>
<rect x="383.07" y="179.119" width="13.3975" height="13.3975" rx="6" transform="rotate(55.92 383.07 179.119)" stroke="#555555"/>
<rect x="392.767" y="193.452" width="13.3975" height="13.3975" rx="6" transform="rotate(55.92 392.767 193.452)" fill="#E1E1E1"/>
<rect x="392.767" y="193.452" width="13.3975" height="13.3975" rx="6" transform="rotate(55.92 392.767 193.452)" stroke="#555555"/>
<rect x="444.608" y="235.213" width="70.8949" height="35.7266" rx="8" transform="rotate(55.92 444.608 235.213)" fill="#555555"/>
<rect x="443.398" y="239.401" width="13.3975" height="13.3975" rx="6" transform="rotate(55.92 443.398 239.401)" fill="#E1E1E1"/>
<rect x="443.398" y="239.401" width="13.3975" height="13.3975" rx="6" transform="rotate(55.92 443.398 239.401)" stroke="#555555"/>
<rect x="453.095" y="253.734" width="13.3975" height="13.3975" rx="6" transform="rotate(55.92 453.095 253.734)" fill="#E1E1E1"/>
<rect x="453.095" y="253.734" width="13.3975" height="13.3975" rx="6" transform="rotate(55.92 453.095 253.734)" stroke="#555555"/>
<rect x="462.792" y="268.067" width="13.3975" height="13.3975" rx="6" transform="rotate(55.92 462.792 268.067)" fill="#E1E1E1"/>
<rect x="462.792" y="268.067" width="13.3975" height="13.3975" rx="6" transform="rotate(55.92 462.792 268.067)" stroke="#555555"/>
<rect x="472.489" y="282.4" width="13.3975" height="13.3975" rx="6" transform="rotate(55.92 472.489 282.4)" fill="#E1E1E1"/>
<rect x="472.489" y="282.4" width="13.3975" height="13.3975" rx="6" transform="rotate(55.92 472.489 282.4)" stroke="#555555"/>
<rect x="429.99" y="248.473" width="13.3975" height="13.3975" rx="6" transform="rotate(55.92 429.99 248.473)" fill="#E1E1E1"/>
<rect x="429.99" y="248.473" width="13.3975" height="13.3975" rx="6" transform="rotate(55.92 429.99 248.473)" stroke="#555555"/>
<rect x="439.687" y="262.806" width="13.3975" height="13.3975" rx="6" transform="rotate(55.92 439.687 262.806)" fill="#E1E1E1"/>
<rect x="439.687" y="262.806" width="13.3975" height="13.3975" rx="6" transform="rotate(55.92 439.687 262.806)" stroke="#555555"/>
<rect x="449.384" y="277.139" width="13.3975" height="13.3975" rx="6" transform="rotate(55.92 449.384 277.139)" fill="#E1E1E1"/>
<rect x="449.384" y="277.139" width="13.3975" height="13.3975" rx="6" transform="rotate(55.92 449.384 277.139)" stroke="#555555"/>
<rect x="459.081" y="291.472" width="13.3975" height="13.3975" rx="6" transform="rotate(55.92 459.081 291.472)" fill="#E1E1E1"/>
<rect x="459.081" y="291.472" width="13.3975" height="13.3975" rx="6" transform="rotate(55.92 459.081 291.472)" stroke="#555555"/>
<path fill-rule="evenodd" clip-rule="evenodd" d="M440.718 209.539C447.283 219.242 460.367 221.856 469.943 215.378C472.533 213.625 474.618 211.959 476.269 210.36L453.181 176.234C451.083 177.171 448.76 178.486 446.17 180.239C436.594 186.717 434.153 199.835 440.718 209.539Z" fill="#555555"/>
</g>
<g filter="url(#filter1_d_25_1181)">
<circle cx="346" cy="330.597" r="222" stroke="#253E64" stroke-dasharray="10 10" shape-rendering="crispEdges"/>
</g>
<ellipse cx="325" cy="315.597" rx="216" ry="222" fill="#B6D0D9"/>
<mask id="mask0_25_1181" style="mask-type:alpha" maskUnits="userSpaceOnUse" x="-217" y="134" width="594" height="532">
<path d="M86.2843 492.805C58.7843 453.805 69.7843 484.805 23.2843 500.305C-0.715725 519.805 23.2843 556.805 34.7843 571.305C46.2843 585.805 111.784 554.805 102.784 542.305C93.7843 529.805 113.784 531.805 86.2843 492.805Z" fill="#5C835B" fill-opacity="0.59"/>
<path d="M170.316 237.504C203.147 229.749 206.169 230.68 204.217 189.213C188.189 101.058 99.1193 142.614 116.867 153.209C134.615 163.805 99.4855 202.121 118.566 227.19C137.646 252.258 137.486 245.26 170.316 237.504Z" fill="#5C835B" fill-opacity="0.59"/>
<path d="M8.66685 611.124C11.6668 574.124 27.1668 566.124 -17.8332 529.124C-44.3332 513.624 -70.3332 583.624 -53.8332 611.124C-37.3332 638.624 5.66685 648.124 8.66685 611.124Z" fill="#5C835B" fill-opacity="0.59"/>
<path d="M191.585 601.004C177.085 555.504 172.585 557.504 139.585 554.504C121.585 552.699 108.085 554.504 96.5854 567.004C85.0854 579.504 82.5854 578.504 96.5854 601.004C110.585 623.504 113.585 633.504 108.085 650.504C102.585 667.504 145.085 673.004 157.585 650.504C170.085 628.004 206.085 646.504 191.585 601.004Z" fill="#5C835B" fill-opacity="0.59"/>
<path d="M-19.4614 338.793C-63.7086 331.922 -88.4878 329.273 -114.805 273.318C-131.548 244.353 -130.325 246.373 -164.754 263.694C-199.184 281.014 -189.6 363.039 -211.271 419.008C-232.942 474.978 -183.321 535.353 -154.289 500.527C-125.257 465.701 -112.198 495.597 -58.687 472.173C-5.17628 448.749 15.8616 458.283 22.29 402.613C28.7184 346.943 24.7857 345.665 -19.4614 338.793Z" fill="#5C835B" fill-opacity="0.59"/>
<path d="M18.0864 167.787C51.2057 154.931 66.5693 171.58 106.009 197.431C111.574 219.817 139.948 270.207 78.6632 310.533C17.3784 350.858 -95.6715 283.883 -77.9368 270.23C-60.202 256.578 -91.0698 212.09 -97.8787 190.012C-104.688 167.935 -81.5073 149.627 -46.8875 177.336C-12.2677 205.045 -15.0328 180.642 18.0864 167.787Z" fill="#5C835B" fill-opacity="0.59"/>
<path d="M339.666 426.203C312.538 340.899 304.119 344.648 242.38 339.024C208.705 335.639 183.448 339.024 161.933 362.459C140.418 385.894 135.741 384.02 161.933 426.203C188.125 468.386 193.738 487.134 183.448 519.006C173.158 550.878 252.67 561.189 276.056 519.006C299.442 476.823 366.793 511.507 339.666 426.203Z" fill="#5C835B" fill-opacity="0.59"/>
<path d="M365.691 554.075C380.806 568.03 376.057 580.258 372.649 607.35C362.422 615.942 343.434 643.524 306.862 621.912C270.291 600.299 276.355 524.454 287.969 530.204C299.584 535.953 314.867 508.576 324.617 499.416C334.367 490.256 349.789 497.653 344.188 522.711C338.587 547.77 350.575 540.121 365.691 554.075Z" fill="#5C835B" fill-opacity="0.59"/>
</mask>
<g mask="url(#mask0_25_1181)">
<ellipse cx="323" cy="313.597" rx="211" ry="217" fill="#5C835B"/>
</g>
<mask id="mask1_25_1181" style="mask-type:alpha" maskUnits="userSpaceOnUse" x="498" y="134" width="594" height="532">
<path d="M801.284 492.805C773.784 453.805 784.784 484.805 738.284 500.305C714.284 519.805 738.284 556.805 749.784 571.305C761.284 585.805 826.784 554.805 817.784 542.305C808.784 529.805 828.784 531.805 801.284 492.805Z" fill="#5C835B" fill-opacity="0.59"/>
<path d="M885.316 237.504C918.147 229.749 921.169 230.68 919.217 189.213C903.189 101.058 814.119 142.614 831.867 153.209C849.615 163.805 814.485 202.121 833.566 227.19C852.646 252.258 852.486 245.26 885.316 237.504Z" fill="#5C835B" fill-opacity="0.59"/>
<path d="M723.667 611.124C726.667 574.124 742.167 566.124 697.167 529.124C670.667 513.624 644.667 583.624 661.167 611.124C677.667 638.624 720.667 648.124 723.667 611.124Z" fill="#5C835B" fill-opacity="0.59"/>
<path d="M906.585 601.004C892.085 555.504 887.585 557.504 854.585 554.504C836.585 552.699 823.085 554.504 811.585 567.004C800.085 579.504 797.585 578.504 811.585 601.004C825.585 623.504 828.585 633.504 823.085 650.504C817.585 667.504 860.085 673.004 872.585 650.504C885.085 628.004 921.085 646.504 906.585 601.004Z" fill="#5C835B" fill-opacity="0.59"/>
<path d="M695.539 338.793C651.291 331.922 626.512 329.273 600.195 273.318C583.452 244.353 584.675 246.373 550.246 263.694C515.816 281.014 525.4 363.039 503.729 419.008C482.058 474.978 531.679 535.353 560.711 500.527C589.743 465.701 602.802 495.597 656.313 472.173C709.824 448.749 730.862 458.283 737.29 402.613C743.718 346.943 739.786 345.665 695.539 338.793Z" fill="#5C835B" fill-opacity="0.59"/>
<path d="M733.086 167.787C766.206 154.931 781.569 171.58 821.009 197.431C826.574 219.817 854.948 270.207 793.663 310.533C732.378 350.858 619.328 283.883 637.063 270.23C654.798 256.578 623.93 212.09 617.121 190.012C610.312 167.935 633.493 149.627 668.113 177.336C702.732 205.045 699.967 180.642 733.086 167.787Z" fill="#5C835B" fill-opacity="0.59"/>
</mask>
<g mask="url(#mask1_25_1181)">
<ellipse cx="323" cy="313.597" rx="211" ry="217" fill="#5C835B"/>
</g>
<circle cx="309" cy="295.597" r="222" stroke="#253E64"/>
<path d="M619.753 524.083C593.128 524.083 593.128 469.7 593.128 474.273C593.128 524.083 563.743 524.083 565.042 524.083C593.128 524.083 593.128 576.67 593.128 573.894C593.128 524.083 623 524.083 619.753 524.083Z" fill="#ECE200"/>
<path d="M153.668 65.6093C117.845 65.6093 117.845 -5.63266 117.845 0.35765C117.845 65.6093 78.3088 65.6093 80.0563 65.6093C117.845 65.6093 117.845 134.498 117.845 130.861C117.845 65.6093 158.037 65.6093 153.668 65.6093Z" fill="#ECE200"/>
<defs>
<filter id="filter0_dd_25_1181" x="337.812" y="132.302" width="157.415" height="198.542" filterUnits="userSpaceOnUse" color-interpolation-filters="sRGB">
<feFlood flood-opacity="0" result="BackgroundImageFix"/>
<feColorMatrix in="SourceAlpha" type="matrix" values="0 0 0 0 0 0 0 0 0 0 0 0 0 0 0 0 0 0 127 0" result="hardAlpha"/>
<feOffset dy="2"/>
<feGaussianBlur stdDeviation="1.5"/>
<feColorMatrix type="matrix" values="0 0 0 0 0 0 0 0 0 0 0 0 0 0 0 0 0 0 0.3 0"/>
<feBlend mode="normal" in2="BackgroundImageFix" result="effect1_dropShadow_25_1181"/>
<feColorMatrix in="SourceAlpha" type="matrix" values="0 0 0 0 0 0 0 0 0 0 0 0 0 0 0 0 0 0 127 0" result="hardAlpha"/>
<feMorphology radius="4" operator="dilate" in="SourceAlpha" result="effect2_dropShadow_25_1181"/>
<feOffset dy="6"/>
<feGaussianBlur stdDeviation="5"/>
<feColorMatrix type="matrix" values="0 0 0 0 0 0 0 0 0 0 0 0 0 0 0 0 0 0 0.15 0"/>
<feBlend mode="normal" in2="effect1_dropShadow_25_1181" result="effect2_dropShadow_25_1181"/>
<feBlend mode="normal" in="SourceGraphic" in2="effect2_dropShadow_25_1181" result="shape"/>
</filter>
<filter id="filter1_d_25_1181" x="119.5" y="108.097" width="453" height="453" filterUnits="userSpaceOnUse" color-interpolation-filters="sRGB">
<feFlood flood-opacity="0" result="BackgroundImageFix"/>
<feColorMatrix in="SourceAlpha" type="matrix" values="0 0 0 0 0 0 0 0 0 0 0 0 0 0 0 0 0 0 127 0" result="hardAlpha"/>
<feOffset dy="4"/>
<feGaussianBlur stdDeviation="2"/>
<feComposite in2="hardAlpha" operator="out"/>
<feColorMatrix type="matrix" values="0 0 0 0 0 0 0 0 0 0 0 0 0 0 0 0 0 0 0.25 0"/>
<feBlend mode="normal" in2="BackgroundImageFix" result="effect1_dropShadow_25_1181"/>
<feBlend mode="normal" in="SourceGraphic" in2="effect1_dropShadow_25_1181" result="shape"/>
</filter>
</defs>
</svg>
