<svg width="837" height="659" viewBox="0 0 837 659" fill="none" xmlns="http://www.w3.org/2000/svg">
<g filter="url(#filter0_dd_25_1301)">
<rect x="181.562" y="482.712" width="71.0439" height="26.8581" rx="13" transform="rotate(145.92 181.562 482.712)" fill="#0C4767"/>
<rect x="143.927" y="461.771" width="49.3842" height="10.3967" transform="rotate(55.92 143.927 461.771)" fill="#0C4767"/>
<rect x="207.566" y="452.307" width="43.0665" height="6.81518" rx="3.40759" transform="rotate(145.92 207.566 452.307)" fill="#0C4767" stroke="#0C4767"/>
<rect x="115.294" y="396.716" width="70.8949" height="35.7266" rx="8" transform="rotate(55.92 115.294 396.716)" fill="#0C4767"/>
<rect x="114.084" y="400.904" width="13.3975" height="13.3975" rx="6" transform="rotate(55.92 114.084 400.904)" fill="#E1E1E1"/>
<rect x="114.084" y="400.904" width="13.3975" height="13.3975" rx="6" transform="rotate(55.92 114.084 400.904)" stroke="#0C4767"/>
<rect x="123.781" y="415.237" width="13.3975" height="13.3975" rx="6" transform="rotate(55.92 123.781 415.237)" fill="#E1E1E1"/>
<rect x="123.781" y="415.237" width="13.3975" height="13.3975" rx="6" transform="rotate(55.92 123.781 415.237)" stroke="#0C4767"/>
<rect x="133.478" y="429.57" width="13.3975" height="13.3975" rx="6" transform="rotate(55.92 133.478 429.57)" fill="#E1E1E1"/>
<rect x="133.478" y="429.57" width="13.3975" height="13.3975" rx="6" transform="rotate(55.92 133.478 429.57)" stroke="#0C4767"/>
<rect x="143.175" y="443.903" width="13.3975" height="13.3975" rx="6" transform="rotate(55.92 143.175 443.903)" fill="#E1E1E1"/>
<rect x="143.175" y="443.903" width="13.3975" height="13.3975" rx="6" transform="rotate(55.92 143.175 443.903)" stroke="#0C4767"/>
<rect x="100.676" y="409.976" width="13.3975" height="13.3975" rx="6" transform="rotate(55.92 100.676 409.976)" fill="#E1E1E1"/>
<rect x="100.676" y="409.976" width="13.3975" height="13.3975" rx="6" transform="rotate(55.92 100.676 409.976)" stroke="#0C4767"/>
<rect x="110.373" y="424.309" width="13.3975" height="13.3975" rx="6" transform="rotate(55.92 110.373 424.309)" fill="#E1E1E1"/>
<rect x="110.373" y="424.309" width="13.3975" height="13.3975" rx="6" transform="rotate(55.92 110.373 424.309)" stroke="#0C4767"/>
<rect x="120.07" y="438.642" width="13.3975" height="13.3975" rx="6" transform="rotate(55.92 120.07 438.642)" fill="#E1E1E1"/>
<rect x="120.07" y="438.642" width="13.3975" height="13.3975" rx="6" transform="rotate(55.92 120.07 438.642)" stroke="#0C4767"/>
<rect x="129.767" y="452.975" width="13.3975" height="13.3975" rx="6" transform="rotate(55.92 129.767 452.975)" fill="#E1E1E1"/>
<rect x="129.767" y="452.975" width="13.3975" height="13.3975" rx="6" transform="rotate(55.92 129.767 452.975)" stroke="#0C4767"/>
<rect x="181.608" y="494.735" width="70.8949" height="35.7266" rx="8" transform="rotate(55.92 181.608 494.735)" fill="#0C4767"/>
<rect x="180.398" y="498.924" width="13.3975" height="13.3975" rx="6" transform="rotate(55.92 180.398 498.924)" fill="#E1E1E1"/>
<rect x="180.398" y="498.924" width="13.3975" height="13.3975" rx="6" transform="rotate(55.92 180.398 498.924)" stroke="#0C4767"/>
<rect x="190.095" y="513.257" width="13.3975" height="13.3975" rx="6" transform="rotate(55.92 190.095 513.257)" fill="#E1E1E1"/>
<rect x="190.095" y="513.257" width="13.3975" height="13.3975" rx="6" transform="rotate(55.92 190.095 513.257)" stroke="#0C4767"/>
<rect x="199.792" y="527.59" width="13.3975" height="13.3975" rx="6" transform="rotate(55.92 199.792 527.59)" fill="#E1E1E1"/>
<rect x="199.792" y="527.59" width="13.3975" height="13.3975" rx="6" transform="rotate(55.92 199.792 527.59)" stroke="#0C4767"/>
<rect x="209.489" y="541.923" width="13.3975" height="13.3975" rx="6" transform="rotate(55.92 209.489 541.923)" fill="#E1E1E1"/>
<rect x="209.489" y="541.923" width="13.3975" height="13.3975" rx="6" transform="rotate(55.92 209.489 541.923)" stroke="#0C4767"/>
<rect x="166.99" y="507.995" width="13.3975" height="13.3975" rx="6" transform="rotate(55.92 166.99 507.995)" fill="#E1E1E1"/>
<rect x="166.99" y="507.995" width="13.3975" height="13.3975" rx="6" transform="rotate(55.92 166.99 507.995)" stroke="#0C4767"/>
<rect x="176.687" y="522.328" width="13.3975" height="13.3975" rx="6" transform="rotate(55.92 176.687 522.328)" fill="#E1E1E1"/>
<rect x="176.687" y="522.328" width="13.3975" height="13.3975" rx="6" transform="rotate(55.92 176.687 522.328)" stroke="#0C4767"/>
<rect x="186.384" y="536.661" width="13.3975" height="13.3975" rx="6" transform="rotate(55.92 186.384 536.661)" fill="#E1E1E1"/>
<rect x="186.384" y="536.661" width="13.3975" height="13.3975" rx="6" transform="rotate(55.92 186.384 536.661)" stroke="#0C4767"/>
<rect x="196.081" y="550.994" width="13.3975" height="13.3975" rx="6" transform="rotate(55.92 196.081 550.994)" fill="#E1E1E1"/>
<rect x="196.081" y="550.994" width="13.3975" height="13.3975" rx="6" transform="rotate(55.92 196.081 550.994)" stroke="#0C4767"/>
<path fill-rule="evenodd" clip-rule="evenodd" d="M177.718 469.061C184.283 478.764 197.367 481.379 206.943 474.9C209.533 473.148 211.618 471.481 213.269 469.882L190.181 435.757C188.083 436.693 185.76 438.009 183.17 439.761C173.594 446.24 171.153 459.358 177.718 469.061Z" fill="#0C4767"/>
</g>
<g filter="url(#filter1_d_25_1301)">
<circle cx="346" cy="307.552" r="222" stroke="#253E64" stroke-dasharray="10 10" shape-rendering="crispEdges"/>
</g>
<ellipse cx="325" cy="292.552" rx="216" ry="222" fill="#B6D0D9"/>
<mask id="mask0_25_1301" style="mask-type:alpha" maskUnits="userSpaceOnUse" x="-348" y="111" width="594" height="532">
<path d="M39.3164 214.459C72.147 206.704 75.1692 207.635 73.2168 166.169C57.1888 78.0133 -31.8807 119.569 -14.1328 130.164C3.61512 140.76 -31.5145 179.076 -12.434 204.145C6.64646 229.213 6.48578 222.215 39.3164 214.459Z" fill="#5C835B" fill-opacity="0.59"/>
<path d="M60.5854 577.959C46.0854 532.459 41.5854 534.459 8.58536 531.459C-9.41464 529.654 -22.9146 531.459 -34.4146 543.959C-45.9146 556.459 -48.4146 555.459 -34.4146 577.959C-20.4146 600.459 -17.4146 610.459 -22.9146 627.459C-28.4146 644.459 14.0854 649.959 26.5854 627.459C39.0854 604.959 75.0854 623.459 60.5854 577.959Z" fill="#5C835B" fill-opacity="0.59"/>
<path d="M-112.914 144.742C-79.7943 131.886 -64.4307 148.535 -24.9907 174.386C-19.4255 196.772 8.94793 247.162 -52.3368 287.488C-113.622 327.814 -226.672 260.838 -208.937 247.185C-191.202 233.533 -222.07 189.045 -228.879 166.967C-235.688 144.89 -212.507 126.583 -177.887 154.291C-143.268 182 -146.033 157.597 -112.914 144.742Z" fill="#5C835B" fill-opacity="0.59"/>
<path d="M208.666 403.158C181.538 317.854 173.119 321.604 111.38 315.979C77.7047 312.595 52.448 315.979 30.933 339.414C9.41798 362.849 4.74079 360.975 30.933 403.158C57.1252 445.341 62.7378 464.089 52.448 495.961C42.1582 527.833 121.67 538.145 145.056 495.961C168.442 453.778 235.793 488.462 208.666 403.158Z" fill="#5C835B" fill-opacity="0.59"/>
<path d="M234.691 531.03C249.806 544.985 245.057 557.213 241.649 584.305C231.422 592.897 212.434 620.479 175.862 598.867C139.291 577.255 145.355 501.409 156.969 507.159C168.584 512.909 183.867 485.531 193.617 476.371C203.367 467.211 218.789 474.608 213.188 499.666C207.587 524.725 219.575 517.076 234.691 531.03Z" fill="#5C835B" fill-opacity="0.59"/>
</mask>
<g mask="url(#mask0_25_1301)">
<ellipse cx="323" cy="290.552" rx="211" ry="217" fill="#5C835B"/>
</g>
<mask id="mask1_25_1301" style="mask-type:alpha" maskUnits="userSpaceOnUse" x="344" y="111" width="594" height="532">
<path d="M647.284 469.76C619.784 430.76 630.784 461.76 584.284 477.26C560.284 496.76 584.284 533.76 595.784 548.26C607.284 562.76 672.784 531.76 663.784 519.26C654.784 506.76 674.784 508.76 647.284 469.76Z" fill="#5C835B" fill-opacity="0.59"/>
<path d="M731.316 214.459C764.147 206.704 767.169 207.635 765.217 166.169C749.189 78.0133 660.119 119.569 677.867 130.164C695.615 140.76 660.485 179.076 679.566 204.145C698.646 229.213 698.486 222.215 731.316 214.459Z" fill="#5C835B" fill-opacity="0.59"/>
<path d="M569.667 588.079C572.667 551.079 588.167 543.079 543.167 506.079C516.667 490.579 490.667 560.579 507.167 588.079C523.667 615.579 566.667 625.079 569.667 588.079Z" fill="#5C835B" fill-opacity="0.59"/>
<path d="M752.585 577.959C738.085 532.459 733.585 534.459 700.585 531.459C682.585 529.654 669.085 531.459 657.585 543.959C646.085 556.459 643.585 555.459 657.585 577.959C671.585 600.459 674.585 610.459 669.085 627.459C663.585 644.459 706.085 649.959 718.585 627.459C731.085 604.959 767.085 623.459 752.585 577.959Z" fill="#5C835B" fill-opacity="0.59"/>
<path d="M541.539 315.748C497.291 308.877 472.512 306.228 446.195 250.273C429.452 221.308 430.675 223.328 396.246 240.649C361.816 257.969 371.4 339.994 349.729 395.963C328.058 451.933 377.679 512.308 406.711 477.482C435.743 442.656 448.802 472.552 502.313 449.128C555.824 425.704 576.862 435.238 583.29 379.568C589.718 323.898 585.786 322.62 541.539 315.748Z" fill="#5C835B" fill-opacity="0.59"/>
<path d="M579.086 144.742C612.206 131.886 627.569 148.535 667.009 174.386C672.574 196.772 700.948 247.162 639.663 287.488C578.378 327.814 465.328 260.838 483.063 247.185C500.798 233.533 469.93 189.045 463.121 166.967C456.312 144.89 479.493 126.583 514.113 154.291C548.732 182 545.967 157.597 579.086 144.742Z" fill="#5C835B" fill-opacity="0.59"/>
<path d="M900.666 403.158C873.538 317.854 865.119 321.604 803.38 315.979C769.705 312.595 744.448 315.979 722.933 339.414C701.418 362.849 696.741 360.975 722.933 403.158C749.125 445.341 754.738 464.089 744.448 495.961C734.158 527.833 813.67 538.145 837.056 495.961C860.442 453.778 927.793 488.462 900.666 403.158Z" fill="#5C835B" fill-opacity="0.59"/>
<path d="M926.691 531.03C941.806 544.985 937.057 557.213 933.649 584.305C923.422 592.897 904.434 620.479 867.862 598.867C831.291 577.255 837.355 501.409 848.969 507.159C860.584 512.909 875.867 485.531 885.617 476.371C895.367 467.211 910.789 474.608 905.188 499.666C899.587 524.725 911.575 517.076 926.691 531.03Z" fill="#5C835B" fill-opacity="0.59"/>
</mask>
<g mask="url(#mask1_25_1301)">
<ellipse cx="323" cy="290.552" rx="211" ry="217" fill="#5C835B"/>
</g>
<circle cx="309" cy="272.552" r="222" stroke="#253E64"/>
<path d="M607.861 501.047C592.854 501.047 592.854 470.592 592.854 473.153C592.854 501.047 576.292 501.047 577.024 501.047C592.854 501.047 592.854 530.495 592.854 528.941C592.854 501.047 609.691 501.047 607.861 501.047Z" fill="#ECE200"/>
<path d="M140.785 42.5709C117.548 42.5709 117.548 -3.65478 117.548 0.232063C117.548 42.5709 91.903 42.5709 93.0365 42.5709C117.548 42.5709 117.548 87.2696 117.548 84.9098C117.548 42.5709 143.618 42.5709 140.785 42.5709Z" fill="#ECE200"/>
<defs>
<filter id="filter0_dd_25_1301" x="74.8115" y="391.824" width="157.415" height="198.542" filterUnits="userSpaceOnUse" color-interpolation-filters="sRGB">
<feFlood flood-opacity="0" result="BackgroundImageFix"/>
<feColorMatrix in="SourceAlpha" type="matrix" values="0 0 0 0 0 0 0 0 0 0 0 0 0 0 0 0 0 0 127 0" result="hardAlpha"/>
<feOffset dy="2"/>
<feGaussianBlur stdDeviation="1.5"/>
<feColorMatrix type="matrix" values="0 0 0 0 0 0 0 0 0 0 0 0 0 0 0 0 0 0 0.3 0"/>
<feBlend mode="normal" in2="BackgroundImageFix" result="effect1_dropShadow_25_1301"/>
<feColorMatrix in="SourceAlpha" type="matrix" values="0 0 0 0 0 0 0 0 0 0 0 0 0 0 0 0 0 0 127 0" result="hardAlpha"/>
<feMorphology radius="4" operator="dilate" in="SourceAlpha" result="effect2_dropShadow_25_1301"/>
<feOffset dy="6"/>
<feGaussianBlur stdDeviation="5"/>
<feColorMatrix type="matrix" values="0 0 0 0 0 0 0 0 0 0 0 0 0 0 0 0 0 0 0.15 0"/>
<feBlend mode="normal" in2="effect1_dropShadow_25_1301" result="effect2_dropShadow_25_1301"/>
<feBlend mode="normal" in="SourceGraphic" in2="effect2_dropShadow_25_1301" result="shape"/>
</filter>
<filter id="filter1_d_25_1301" x="119.5" y="85.0518" width="453" height="453" filterUnits="userSpaceOnUse" color-interpolation-filters="sRGB">
<feFlood flood-opacity="0" result="BackgroundImageFix"/>
<feColorMatrix in="SourceAlpha" type="matrix" values="0 0 0 0 0 0 0 0 0 0 0 0 0 0 0 0 0 0 127 0" result="hardAlpha"/>
<feOffset dy="4"/>
<feGaussianBlur stdDeviation="2"/>
<feComposite in2="hardAlpha" operator="out"/>
<feColorMatrix type="matrix" values="0 0 0 0 0 0 0 0 0 0 0 0 0 0 0 0 0 0 0.25 0"/>
<feBlend mode="normal" in2="BackgroundImageFix" result="effect1_dropShadow_25_1301"/>
<feBlend mode="normal" in="SourceGraphic" in2="effect1_dropShadow_25_1301" result="shape"/>
</filter>
</defs>
</svg>
