<svg width="837" height="558" viewBox="0 0 837 558" fill="none" xmlns="http://www.w3.org/2000/svg">
<g filter="url(#filter0_d_25_357)">
<circle cx="346" cy="207" r="222" stroke="#253E64" stroke-dasharray="10 10" shape-rendering="crispEdges"/>
</g>
<ellipse cx="325" cy="192" rx="216" ry="222" fill="#B6D0D9"/>
<mask id="mask0_25_357" style="mask-type:alpha" maskUnits="userSpaceOnUse" x="212" y="26" width="594" height="532">
<path d="M515.284 384.895C487.784 345.895 498.784 376.895 452.284 392.395C428.284 411.895 452.284 448.895 463.784 463.395C475.284 477.895 540.784 446.895 531.784 434.395C522.784 421.895 542.784 423.895 515.284 384.895Z" fill="#5C835B" fill-opacity="0.59"/>
<path d="M599.316 129.594C632.147 121.839 635.169 122.769 633.217 81.3033C617.189 -6.85198 528.119 34.7037 545.867 45.299C563.615 55.8944 528.485 94.2109 547.566 119.28C566.646 144.348 566.486 137.35 599.316 129.594Z" fill="#5C835B" fill-opacity="0.59"/>
<path d="M437.667 503.214C440.667 466.214 456.167 458.214 411.167 421.214C384.667 405.714 358.667 475.714 375.167 503.214C391.667 530.714 434.667 540.214 437.667 503.214Z" fill="#5C835B" fill-opacity="0.59"/>
<path d="M620.585 493.094C606.085 447.594 601.585 449.594 568.585 446.594C550.585 444.789 537.085 446.594 525.585 459.094C514.085 471.594 511.585 470.594 525.585 493.094C539.585 515.594 542.585 525.594 537.085 542.594C531.585 559.594 574.085 565.094 586.585 542.594C599.085 520.094 635.085 538.594 620.585 493.094Z" fill="#5C835B" fill-opacity="0.59"/>
<path d="M409.539 230.883C365.291 224.011 340.512 221.363 314.195 165.407C297.452 136.443 298.675 138.463 264.246 155.783C229.816 173.104 239.4 255.128 217.729 311.098C196.058 367.068 245.679 427.443 274.711 392.617C303.743 357.791 316.802 387.687 370.313 364.263C423.824 340.839 444.862 350.373 451.29 294.703C457.718 239.032 453.786 237.755 409.539 230.883Z" fill="#5C835B" fill-opacity="0.59"/>
<path d="M447.086 59.8763C480.206 47.0211 495.569 63.6702 535.009 89.5204C540.574 111.907 568.948 162.297 507.663 202.623C446.378 242.948 333.328 175.973 351.063 162.32C368.798 148.667 337.93 104.179 331.121 82.1022C324.312 60.025 347.493 41.7173 382.113 69.426C416.732 97.1346 413.967 72.7316 447.086 59.8763Z" fill="#5C835B" fill-opacity="0.59"/>
<path d="M768.666 318.293C741.538 232.989 733.119 236.738 671.38 231.114C637.705 227.729 612.448 231.114 590.933 254.549C569.418 277.984 564.741 276.109 590.933 318.293C617.125 360.476 622.738 379.224 612.448 411.096C602.158 442.968 681.67 453.279 705.056 411.096C728.442 368.913 795.793 403.597 768.666 318.293Z" fill="#5C835B" fill-opacity="0.59"/>
<path d="M794.691 446.165C809.806 460.119 805.057 472.348 801.649 499.44C791.422 508.032 772.434 535.614 735.862 514.002C699.291 492.389 705.355 416.544 716.969 422.294C728.584 428.043 743.867 400.666 753.617 391.506C763.367 382.346 778.789 389.743 773.188 414.801C767.587 439.86 779.575 432.211 794.691 446.165Z" fill="#5C835B" fill-opacity="0.59"/>
</mask>
<g mask="url(#mask0_25_357)">
<ellipse cx="323" cy="190" rx="211" ry="217" fill="#5C835B"/>
</g>
<circle cx="309" cy="172" r="222" stroke="#253E64"/>
<g filter="url(#filter1_dd_25_357)">
<rect x="119.562" y="409.712" width="71.0439" height="26.8581" rx="13" transform="rotate(145.92 119.562 409.712)" fill="#0C4767"/>
<rect x="81.9275" y="388.772" width="49.3842" height="10.3967" transform="rotate(55.92 81.9275 388.772)" fill="#0C4767"/>
<rect x="145.566" y="379.307" width="43.0665" height="6.81518" rx="3.40759" transform="rotate(145.92 145.566 379.307)" fill="#0C4767" stroke="#0C4767"/>
<rect x="53.2942" y="323.716" width="70.8949" height="35.7266" rx="8" transform="rotate(55.92 53.2942 323.716)" fill="#0C4767"/>
<rect x="52.0842" y="327.905" width="13.3975" height="13.3975" rx="6" transform="rotate(55.92 52.0842 327.905)" fill="#E1E1E1"/>
<rect x="52.0842" y="327.905" width="13.3975" height="13.3975" rx="6" transform="rotate(55.92 52.0842 327.905)" stroke="#0C4767"/>
<rect x="61.781" y="342.238" width="13.3975" height="13.3975" rx="6" transform="rotate(55.92 61.781 342.238)" fill="#E1E1E1"/>
<rect x="61.781" y="342.238" width="13.3975" height="13.3975" rx="6" transform="rotate(55.92 61.781 342.238)" stroke="#0C4767"/>
<rect x="71.4778" y="356.571" width="13.3975" height="13.3975" rx="6" transform="rotate(55.92 71.4778 356.571)" fill="#E1E1E1"/>
<rect x="71.4778" y="356.571" width="13.3975" height="13.3975" rx="6" transform="rotate(55.92 71.4778 356.571)" stroke="#0C4767"/>
<rect x="81.1748" y="370.904" width="13.3975" height="13.3975" rx="6" transform="rotate(55.92 81.1748 370.904)" fill="#E1E1E1"/>
<rect x="81.1748" y="370.904" width="13.3975" height="13.3975" rx="6" transform="rotate(55.92 81.1748 370.904)" stroke="#0C4767"/>
<rect x="38.676" y="336.976" width="13.3975" height="13.3975" rx="6" transform="rotate(55.92 38.676 336.976)" fill="#E1E1E1"/>
<rect x="38.676" y="336.976" width="13.3975" height="13.3975" rx="6" transform="rotate(55.92 38.676 336.976)" stroke="#0C4767"/>
<rect x="48.3728" y="351.309" width="13.3975" height="13.3975" rx="6" transform="rotate(55.92 48.3728 351.309)" fill="#E1E1E1"/>
<rect x="48.3728" y="351.309" width="13.3975" height="13.3975" rx="6" transform="rotate(55.92 48.3728 351.309)" stroke="#0C4767"/>
<rect x="58.0696" y="365.642" width="13.3975" height="13.3975" rx="6" transform="rotate(55.92 58.0696 365.642)" fill="#E1E1E1"/>
<rect x="58.0696" y="365.642" width="13.3975" height="13.3975" rx="6" transform="rotate(55.92 58.0696 365.642)" stroke="#0C4767"/>
<rect x="67.7666" y="379.975" width="13.3975" height="13.3975" rx="6" transform="rotate(55.92 67.7666 379.975)" fill="#E1E1E1"/>
<rect x="67.7666" y="379.975" width="13.3975" height="13.3975" rx="6" transform="rotate(55.92 67.7666 379.975)" stroke="#0C4767"/>
<rect x="119.608" y="421.736" width="70.8949" height="35.7266" rx="8" transform="rotate(55.92 119.608 421.736)" fill="#0C4767"/>
<rect x="118.398" y="425.924" width="13.3975" height="13.3975" rx="6" transform="rotate(55.92 118.398 425.924)" fill="#E1E1E1"/>
<rect x="118.398" y="425.924" width="13.3975" height="13.3975" rx="6" transform="rotate(55.92 118.398 425.924)" stroke="#0C4767"/>
<rect x="128.095" y="440.257" width="13.3975" height="13.3975" rx="6" transform="rotate(55.92 128.095 440.257)" fill="#E1E1E1"/>
<rect x="128.095" y="440.257" width="13.3975" height="13.3975" rx="6" transform="rotate(55.92 128.095 440.257)" stroke="#0C4767"/>
<rect x="137.792" y="454.59" width="13.3975" height="13.3975" rx="6" transform="rotate(55.92 137.792 454.59)" fill="#E1E1E1"/>
<rect x="137.792" y="454.59" width="13.3975" height="13.3975" rx="6" transform="rotate(55.92 137.792 454.59)" stroke="#0C4767"/>
<rect x="147.489" y="468.923" width="13.3975" height="13.3975" rx="6" transform="rotate(55.92 147.489 468.923)" fill="#E1E1E1"/>
<rect x="147.489" y="468.923" width="13.3975" height="13.3975" rx="6" transform="rotate(55.92 147.489 468.923)" stroke="#0C4767"/>
<rect x="104.99" y="434.995" width="13.3975" height="13.3975" rx="6" transform="rotate(55.92 104.99 434.995)" fill="#E1E1E1"/>
<rect x="104.99" y="434.995" width="13.3975" height="13.3975" rx="6" transform="rotate(55.92 104.99 434.995)" stroke="#0C4767"/>
<rect x="114.687" y="449.328" width="13.3975" height="13.3975" rx="6" transform="rotate(55.92 114.687 449.328)" fill="#E1E1E1"/>
<rect x="114.687" y="449.328" width="13.3975" height="13.3975" rx="6" transform="rotate(55.92 114.687 449.328)" stroke="#0C4767"/>
<rect x="124.384" y="463.661" width="13.3975" height="13.3975" rx="6" transform="rotate(55.92 124.384 463.661)" fill="#E1E1E1"/>
<rect x="124.384" y="463.661" width="13.3975" height="13.3975" rx="6" transform="rotate(55.92 124.384 463.661)" stroke="#0C4767"/>
<rect x="134.081" y="477.995" width="13.3975" height="13.3975" rx="6" transform="rotate(55.92 134.081 477.995)" fill="#E1E1E1"/>
<rect x="134.081" y="477.995" width="13.3975" height="13.3975" rx="6" transform="rotate(55.92 134.081 477.995)" stroke="#0C4767"/>
<path fill-rule="evenodd" clip-rule="evenodd" d="M115.718 396.061C122.283 405.764 135.367 408.378 144.943 401.9C147.533 400.147 149.618 398.481 151.269 396.882L128.181 362.756C126.083 363.693 123.76 365.008 121.17 366.761C111.594 373.239 109.153 386.357 115.718 396.061Z" fill="#0C4767"/>
</g>
<path d="M605.915 411.028C596.717 411.028 596.717 392.538 596.717 394.093C596.717 411.028 586.566 411.028 587.014 411.028C596.717 411.028 596.717 428.908 596.717 427.964C596.717 411.028 607.036 411.028 605.915 411.028Z" fill="#ECE200"/>
<defs>
<filter id="filter0_d_25_357" x="119.5" y="-15.5" width="453" height="453" filterUnits="userSpaceOnUse" color-interpolation-filters="sRGB">
<feFlood flood-opacity="0" result="BackgroundImageFix"/>
<feColorMatrix in="SourceAlpha" type="matrix" values="0 0 0 0 0 0 0 0 0 0 0 0 0 0 0 0 0 0 127 0" result="hardAlpha"/>
<feOffset dy="4"/>
<feGaussianBlur stdDeviation="2"/>
<feComposite in2="hardAlpha" operator="out"/>
<feColorMatrix type="matrix" values="0 0 0 0 0 0 0 0 0 0 0 0 0 0 0 0 0 0 0.25 0"/>
<feBlend mode="normal" in2="BackgroundImageFix" result="effect1_dropShadow_25_357"/>
<feBlend mode="normal" in="SourceGraphic" in2="effect1_dropShadow_25_357" result="shape"/>
</filter>
<filter id="filter1_dd_25_357" x="12.8115" y="318.824" width="157.415" height="198.542" filterUnits="userSpaceOnUse" color-interpolation-filters="sRGB">
<feFlood flood-opacity="0" result="BackgroundImageFix"/>
<feColorMatrix in="SourceAlpha" type="matrix" values="0 0 0 0 0 0 0 0 0 0 0 0 0 0 0 0 0 0 127 0" result="hardAlpha"/>
<feOffset dy="2"/>
<feGaussianBlur stdDeviation="1.5"/>
<feColorMatrix type="matrix" values="0 0 0 0 0 0 0 0 0 0 0 0 0 0 0 0 0 0 0.3 0"/>
<feBlend mode="normal" in2="BackgroundImageFix" result="effect1_dropShadow_25_357"/>
<feColorMatrix in="SourceAlpha" type="matrix" values="0 0 0 0 0 0 0 0 0 0 0 0 0 0 0 0 0 0 127 0" result="hardAlpha"/>
<feMorphology radius="4" operator="dilate" in="SourceAlpha" result="effect2_dropShadow_25_357"/>
<feOffset dy="6"/>
<feGaussianBlur stdDeviation="5"/>
<feColorMatrix type="matrix" values="0 0 0 0 0 0 0 0 0 0 0 0 0 0 0 0 0 0 0.15 0"/>
<feBlend mode="normal" in2="effect1_dropShadow_25_357" result="effect2_dropShadow_25_357"/>
<feBlend mode="normal" in="SourceGraphic" in2="effect2_dropShadow_25_357" result="shape"/>
</filter>
</defs>
</svg>
