<svg width="837" height="682" viewBox="0 0 837 682" fill="none" xmlns="http://www.w3.org/2000/svg">
<g filter="url(#filter0_dd_25_1247)">
<rect x="206.562" y="448.712" width="71.0439" height="26.8581" rx="13" transform="rotate(145.92 206.562 448.712)" fill="#0C4767"/>
<rect x="168.927" y="427.771" width="49.3842" height="10.3967" transform="rotate(55.92 168.927 427.771)" fill="#0C4767"/>
<rect x="232.566" y="418.307" width="43.0665" height="6.81518" rx="3.40759" transform="rotate(145.92 232.566 418.307)" fill="#0C4767" stroke="#0C4767"/>
<rect x="140.294" y="362.716" width="70.8949" height="35.7266" rx="8" transform="rotate(55.92 140.294 362.716)" fill="#0C4767"/>
<rect x="139.084" y="366.904" width="13.3975" height="13.3975" rx="6" transform="rotate(55.92 139.084 366.904)" fill="#E1E1E1"/>
<rect x="139.084" y="366.904" width="13.3975" height="13.3975" rx="6" transform="rotate(55.92 139.084 366.904)" stroke="#0C4767"/>
<rect x="148.781" y="381.237" width="13.3975" height="13.3975" rx="6" transform="rotate(55.92 148.781 381.237)" fill="#E1E1E1"/>
<rect x="148.781" y="381.237" width="13.3975" height="13.3975" rx="6" transform="rotate(55.92 148.781 381.237)" stroke="#0C4767"/>
<rect x="158.478" y="395.57" width="13.3975" height="13.3975" rx="6" transform="rotate(55.92 158.478 395.57)" fill="#E1E1E1"/>
<rect x="158.478" y="395.57" width="13.3975" height="13.3975" rx="6" transform="rotate(55.92 158.478 395.57)" stroke="#0C4767"/>
<rect x="168.175" y="409.903" width="13.3975" height="13.3975" rx="6" transform="rotate(55.92 168.175 409.903)" fill="#E1E1E1"/>
<rect x="168.175" y="409.903" width="13.3975" height="13.3975" rx="6" transform="rotate(55.92 168.175 409.903)" stroke="#0C4767"/>
<rect x="125.676" y="375.976" width="13.3975" height="13.3975" rx="6" transform="rotate(55.92 125.676 375.976)" fill="#E1E1E1"/>
<rect x="125.676" y="375.976" width="13.3975" height="13.3975" rx="6" transform="rotate(55.92 125.676 375.976)" stroke="#0C4767"/>
<rect x="135.373" y="390.309" width="13.3975" height="13.3975" rx="6" transform="rotate(55.92 135.373 390.309)" fill="#E1E1E1"/>
<rect x="135.373" y="390.309" width="13.3975" height="13.3975" rx="6" transform="rotate(55.92 135.373 390.309)" stroke="#0C4767"/>
<rect x="145.07" y="404.642" width="13.3975" height="13.3975" rx="6" transform="rotate(55.92 145.07 404.642)" fill="#E1E1E1"/>
<rect x="145.07" y="404.642" width="13.3975" height="13.3975" rx="6" transform="rotate(55.92 145.07 404.642)" stroke="#0C4767"/>
<rect x="154.767" y="418.975" width="13.3975" height="13.3975" rx="6" transform="rotate(55.92 154.767 418.975)" fill="#E1E1E1"/>
<rect x="154.767" y="418.975" width="13.3975" height="13.3975" rx="6" transform="rotate(55.92 154.767 418.975)" stroke="#0C4767"/>
<rect x="206.608" y="460.735" width="70.8949" height="35.7266" rx="8" transform="rotate(55.92 206.608 460.735)" fill="#0C4767"/>
<rect x="205.398" y="464.924" width="13.3975" height="13.3975" rx="6" transform="rotate(55.92 205.398 464.924)" fill="#E1E1E1"/>
<rect x="205.398" y="464.924" width="13.3975" height="13.3975" rx="6" transform="rotate(55.92 205.398 464.924)" stroke="#0C4767"/>
<rect x="215.095" y="479.257" width="13.3975" height="13.3975" rx="6" transform="rotate(55.92 215.095 479.257)" fill="#E1E1E1"/>
<rect x="215.095" y="479.257" width="13.3975" height="13.3975" rx="6" transform="rotate(55.92 215.095 479.257)" stroke="#0C4767"/>
<rect x="224.792" y="493.59" width="13.3975" height="13.3975" rx="6" transform="rotate(55.92 224.792 493.59)" fill="#E1E1E1"/>
<rect x="224.792" y="493.59" width="13.3975" height="13.3975" rx="6" transform="rotate(55.92 224.792 493.59)" stroke="#0C4767"/>
<rect x="234.489" y="507.923" width="13.3975" height="13.3975" rx="6" transform="rotate(55.92 234.489 507.923)" fill="#E1E1E1"/>
<rect x="234.489" y="507.923" width="13.3975" height="13.3975" rx="6" transform="rotate(55.92 234.489 507.923)" stroke="#0C4767"/>
<rect x="191.99" y="473.995" width="13.3975" height="13.3975" rx="6" transform="rotate(55.92 191.99 473.995)" fill="#E1E1E1"/>
<rect x="191.99" y="473.995" width="13.3975" height="13.3975" rx="6" transform="rotate(55.92 191.99 473.995)" stroke="#0C4767"/>
<rect x="201.687" y="488.328" width="13.3975" height="13.3975" rx="6" transform="rotate(55.92 201.687 488.328)" fill="#E1E1E1"/>
<rect x="201.687" y="488.328" width="13.3975" height="13.3975" rx="6" transform="rotate(55.92 201.687 488.328)" stroke="#0C4767"/>
<rect x="211.384" y="502.661" width="13.3975" height="13.3975" rx="6" transform="rotate(55.92 211.384 502.661)" fill="#E1E1E1"/>
<rect x="211.384" y="502.661" width="13.3975" height="13.3975" rx="6" transform="rotate(55.92 211.384 502.661)" stroke="#0C4767"/>
<rect x="221.081" y="516.994" width="13.3975" height="13.3975" rx="6" transform="rotate(55.92 221.081 516.994)" fill="#E1E1E1"/>
<rect x="221.081" y="516.994" width="13.3975" height="13.3975" rx="6" transform="rotate(55.92 221.081 516.994)" stroke="#0C4767"/>
<path fill-rule="evenodd" clip-rule="evenodd" d="M202.718 435.061C209.283 444.764 222.367 447.379 231.943 440.9C234.533 439.148 236.618 437.481 238.269 435.882L215.181 401.757C213.083 402.693 210.76 404.009 208.17 405.761C198.594 412.24 196.153 425.358 202.718 435.061Z" fill="#0C4767"/>
</g>
<g filter="url(#filter1_d_25_1247)">
<circle cx="346" cy="331.074" r="222" stroke="#253E64" stroke-dasharray="10 10" shape-rendering="crispEdges"/>
</g>
<ellipse cx="325" cy="316.074" rx="216" ry="222" fill="#B6D0D9"/>
<mask id="mask0_25_1247" style="mask-type:alpha" maskUnits="userSpaceOnUse" x="-273" y="134" width="594" height="532">
<path d="M30.2843 493.283C2.78427 454.283 13.7843 485.283 -32.7157 500.783C-56.7157 520.283 -32.7157 557.283 -21.2157 571.783C-9.71572 586.283 55.7843 555.283 46.7843 542.783C37.7843 530.283 57.7843 532.283 30.2843 493.283Z" fill="#5C835B" fill-opacity="0.59"/>
<path d="M114.316 237.982C147.147 230.226 150.169 231.157 148.217 189.691C132.189 101.536 43.1193 143.091 60.8672 153.687C78.6151 164.282 43.4855 202.599 62.566 227.667C81.6465 252.736 81.4858 245.738 114.316 237.982Z" fill="#5C835B" fill-opacity="0.59"/>
<path d="M135.585 601.482C121.085 555.982 116.585 557.982 83.5854 554.982C65.5854 553.177 52.0854 554.982 40.5854 567.482C29.0854 579.982 26.5854 578.982 40.5854 601.482C54.5854 623.982 57.5854 633.982 52.0854 650.982C46.5854 667.982 89.0854 673.482 101.585 650.982C114.085 628.482 150.085 646.982 135.585 601.482Z" fill="#5C835B" fill-opacity="0.59"/>
<path d="M-75.4614 339.271C-119.709 332.399 -144.488 329.751 -170.805 273.795C-187.548 244.831 -186.325 246.851 -220.754 264.171C-255.184 281.492 -245.6 363.516 -267.271 419.486C-288.942 475.456 -239.321 535.831 -210.289 501.005C-181.257 466.179 -168.198 496.075 -114.687 472.651C-61.1763 449.227 -40.1384 458.761 -33.71 403.09C-27.2816 347.42 -31.2143 346.143 -75.4614 339.271Z" fill="#5C835B" fill-opacity="0.59"/>
<path d="M-37.9136 168.264C-4.79427 155.409 10.5693 172.058 50.0093 197.908C55.5745 220.294 83.9479 270.685 22.6632 311.01C-38.6216 351.336 -151.672 284.36 -133.937 270.708C-116.202 257.055 -147.07 212.567 -153.879 190.49C-160.688 168.413 -137.507 150.105 -102.887 177.814C-68.2677 205.522 -71.0328 181.119 -37.9136 168.264Z" fill="#5C835B" fill-opacity="0.59"/>
<path d="M283.666 426.68C256.538 341.376 248.119 345.126 186.38 339.502C152.705 336.117 127.448 339.502 105.933 362.937C84.418 386.372 79.7408 384.497 105.933 426.68C132.125 468.864 137.738 487.612 127.448 519.484C117.158 551.356 196.67 561.667 220.056 519.484C243.442 477.3 310.793 511.984 283.666 426.68Z" fill="#5C835B" fill-opacity="0.59"/>
<path d="M309.691 554.553C324.806 568.507 320.057 580.735 316.649 607.828C306.422 616.42 287.434 644.002 250.862 622.389C214.291 600.777 220.355 524.932 231.969 530.681C243.584 536.431 258.867 509.054 268.617 499.894C278.367 490.733 293.789 498.13 288.188 523.189C282.587 548.247 294.575 540.598 309.691 554.553Z" fill="#5C835B" fill-opacity="0.59"/>
</mask>
<g mask="url(#mask0_25_1247)">
<ellipse cx="323" cy="314.074" rx="211" ry="217" fill="#5C835B"/>
</g>
<mask id="mask1_25_1247" style="mask-type:alpha" maskUnits="userSpaceOnUse" x="404" y="134" width="594" height="532">
<path d="M707.284 493.283C679.784 454.283 690.784 485.283 644.284 500.783C620.284 520.283 644.284 557.283 655.784 571.783C667.284 586.283 732.784 555.283 723.784 542.783C714.784 530.283 734.784 532.283 707.284 493.283Z" fill="#5C835B" fill-opacity="0.59"/>
<path d="M791.316 237.982C824.147 230.226 827.169 231.157 825.217 189.691C809.189 101.536 720.119 143.091 737.867 153.687C755.615 164.282 720.485 202.599 739.566 227.667C758.646 252.736 758.486 245.738 791.316 237.982Z" fill="#5C835B" fill-opacity="0.59"/>
<path d="M629.667 611.602C632.667 574.602 648.167 566.602 603.167 529.602C576.667 514.102 550.667 584.102 567.167 611.602C583.667 639.102 626.667 648.602 629.667 611.602Z" fill="#5C835B" fill-opacity="0.59"/>
<path d="M812.585 601.482C798.085 555.982 793.585 557.982 760.585 554.982C742.585 553.177 729.085 554.982 717.585 567.482C706.085 579.982 703.585 578.982 717.585 601.482C731.585 623.982 734.585 633.982 729.085 650.982C723.585 667.982 766.085 673.482 778.585 650.982C791.085 628.482 827.085 646.982 812.585 601.482Z" fill="#5C835B" fill-opacity="0.59"/>
<path d="M601.539 339.271C557.291 332.399 532.512 329.751 506.195 273.795C489.452 244.831 490.675 246.851 456.246 264.171C421.816 281.492 431.4 363.516 409.729 419.486C388.058 475.456 437.679 535.831 466.711 501.005C495.743 466.179 508.802 496.075 562.313 472.651C615.824 449.227 636.862 458.761 643.29 403.09C649.718 347.42 645.786 346.143 601.539 339.271Z" fill="#5C835B" fill-opacity="0.59"/>
<path d="M639.086 168.264C672.206 155.409 687.569 172.058 727.009 197.908C732.574 220.294 760.948 270.685 699.663 311.01C638.378 351.336 525.328 284.36 543.063 270.708C560.798 257.055 529.93 212.567 523.121 190.49C516.312 168.413 539.493 150.105 574.113 177.814C608.732 205.522 605.967 181.119 639.086 168.264Z" fill="#5C835B" fill-opacity="0.59"/>
<path d="M960.666 426.68C933.538 341.376 925.119 345.126 863.38 339.502C829.705 336.117 804.448 339.502 782.933 362.937C761.418 386.372 756.741 384.497 782.933 426.68C809.125 468.864 814.738 487.612 804.448 519.484C794.158 551.356 873.67 561.667 897.056 519.484C920.442 477.3 987.793 511.984 960.666 426.68Z" fill="#5C835B" fill-opacity="0.59"/>
</mask>
<g mask="url(#mask1_25_1247)">
<ellipse cx="323" cy="314.074" rx="211" ry="217" fill="#5C835B"/>
</g>
<circle cx="309" cy="296.074" r="222" stroke="#253E64"/>
<path d="M619.753 524.083C593.128 524.083 593.128 469.7 593.128 474.273C593.128 524.083 563.743 524.083 565.042 524.083C593.128 524.083 593.128 576.67 593.128 573.894C593.128 524.083 623 524.083 619.753 524.083Z" fill="#ECE200"/>
<path d="M153.668 65.6093C117.845 65.6093 117.845 -5.63266 117.845 0.35765C117.845 65.6093 78.3088 65.6093 80.0563 65.6093C117.845 65.6093 117.845 134.498 117.845 130.861C117.845 65.6093 158.037 65.6093 153.668 65.6093Z" fill="#ECE200"/>
<defs>
<filter id="filter0_dd_25_1247" x="99.8115" y="357.824" width="157.415" height="198.542" filterUnits="userSpaceOnUse" color-interpolation-filters="sRGB">
<feFlood flood-opacity="0" result="BackgroundImageFix"/>
<feColorMatrix in="SourceAlpha" type="matrix" values="0 0 0 0 0 0 0 0 0 0 0 0 0 0 0 0 0 0 127 0" result="hardAlpha"/>
<feOffset dy="2"/>
<feGaussianBlur stdDeviation="1.5"/>
<feColorMatrix type="matrix" values="0 0 0 0 0 0 0 0 0 0 0 0 0 0 0 0 0 0 0.3 0"/>
<feBlend mode="normal" in2="BackgroundImageFix" result="effect1_dropShadow_25_1247"/>
<feColorMatrix in="SourceAlpha" type="matrix" values="0 0 0 0 0 0 0 0 0 0 0 0 0 0 0 0 0 0 127 0" result="hardAlpha"/>
<feMorphology radius="4" operator="dilate" in="SourceAlpha" result="effect2_dropShadow_25_1247"/>
<feOffset dy="6"/>
<feGaussianBlur stdDeviation="5"/>
<feColorMatrix type="matrix" values="0 0 0 0 0 0 0 0 0 0 0 0 0 0 0 0 0 0 0.15 0"/>
<feBlend mode="normal" in2="effect1_dropShadow_25_1247" result="effect2_dropShadow_25_1247"/>
<feBlend mode="normal" in="SourceGraphic" in2="effect2_dropShadow_25_1247" result="shape"/>
</filter>
<filter id="filter1_d_25_1247" x="119.5" y="108.574" width="453" height="453" filterUnits="userSpaceOnUse" color-interpolation-filters="sRGB">
<feFlood flood-opacity="0" result="BackgroundImageFix"/>
<feColorMatrix in="SourceAlpha" type="matrix" values="0 0 0 0 0 0 0 0 0 0 0 0 0 0 0 0 0 0 127 0" result="hardAlpha"/>
<feOffset dy="4"/>
<feGaussianBlur stdDeviation="2"/>
<feComposite in2="hardAlpha" operator="out"/>
<feColorMatrix type="matrix" values="0 0 0 0 0 0 0 0 0 0 0 0 0 0 0 0 0 0 0.25 0"/>
<feBlend mode="normal" in2="BackgroundImageFix" result="effect1_dropShadow_25_1247"/>
<feBlend mode="normal" in="SourceGraphic" in2="effect1_dropShadow_25_1247" result="shape"/>
</filter>
</defs>
</svg>
