<svg width="837" height="643" viewBox="0 0 837 643" fill="none" xmlns="http://www.w3.org/2000/svg">
<g filter="url(#filter0_d_25_359)">
<circle cx="346" cy="292.478" r="222" stroke="#253E64" stroke-dasharray="10 10" shape-rendering="crispEdges"/>
</g>
<ellipse cx="325" cy="277.478" rx="216" ry="222" fill="#B6D0D9"/>
<mask id="mask0_25_359" style="mask-type:alpha" maskUnits="userSpaceOnUse" x="125" y="94" width="594" height="532">
<path d="M428.284 452.895C400.784 413.895 411.784 444.895 365.284 460.395C341.284 479.895 365.284 516.895 376.784 531.395C388.284 545.895 453.784 514.895 444.784 502.395C435.784 489.895 455.784 491.895 428.284 452.895Z" fill="#5C835B" fill-opacity="0.59"/>
<path d="M512.316 197.594C545.147 189.839 548.169 190.769 546.217 149.303C530.189 61.148 441.119 102.704 458.867 113.299C476.615 123.894 441.485 162.211 460.566 187.28C479.646 212.348 479.486 205.35 512.316 197.594Z" fill="#5C835B" fill-opacity="0.59"/>
<path d="M350.667 571.214C353.667 534.214 369.167 526.214 324.167 489.214C297.667 473.714 271.667 543.714 288.167 571.214C304.667 598.714 347.667 608.214 350.667 571.214Z" fill="#5C835B" fill-opacity="0.59"/>
<path d="M533.585 561.094C519.085 515.594 514.585 517.594 481.585 514.594C463.585 512.789 450.085 514.594 438.585 527.094C427.085 539.594 424.585 538.594 438.585 561.094C452.585 583.594 455.585 593.594 450.085 610.594C444.585 627.594 487.085 633.094 499.585 610.594C512.085 588.094 548.085 606.594 533.585 561.094Z" fill="#5C835B" fill-opacity="0.59"/>
<path d="M322.539 298.883C278.291 292.011 253.512 289.363 227.195 233.407C210.452 204.443 211.675 206.463 177.246 223.783C142.816 241.104 152.4 323.128 130.729 379.098C109.058 435.068 158.679 495.443 187.711 460.617C216.743 425.791 229.802 455.687 283.313 432.263C336.824 408.839 357.862 418.373 364.29 362.703C370.718 307.032 366.786 305.755 322.539 298.883Z" fill="#5C835B" fill-opacity="0.59"/>
<path d="M360.086 127.876C393.206 115.021 408.569 131.67 448.009 157.52C453.574 179.907 481.948 230.297 420.663 270.623C359.378 310.948 246.328 243.973 264.063 230.32C281.798 216.667 250.93 172.179 244.121 150.102C237.312 128.025 260.493 109.717 295.113 137.426C329.732 165.135 326.967 140.732 360.086 127.876Z" fill="#5C835B" fill-opacity="0.59"/>
<path d="M681.666 386.293C654.538 300.989 646.119 304.738 584.38 299.114C550.705 295.729 525.448 299.114 503.933 322.549C482.418 345.984 477.741 344.109 503.933 386.293C530.125 428.476 535.738 447.224 525.448 479.096C515.158 510.968 594.67 521.279 618.056 479.096C641.442 436.913 708.793 471.597 681.666 386.293Z" fill="#5C835B" fill-opacity="0.59"/>
<path d="M707.691 514.165C722.806 528.119 718.057 540.348 714.649 567.44C704.422 576.032 685.434 603.614 648.862 582.002C612.291 560.389 618.355 484.544 629.969 490.294C641.584 496.043 656.867 468.666 666.617 459.506C676.367 450.346 691.789 457.743 686.188 482.801C680.587 507.86 692.575 500.211 707.691 514.165Z" fill="#5C835B" fill-opacity="0.59"/>
</mask>
<g mask="url(#mask0_25_359)">
<ellipse cx="323" cy="275.478" rx="211" ry="217" fill="#5C835B"/>
</g>
<circle cx="309" cy="257.478" r="222" stroke="#253E64"/>
<g filter="url(#filter1_dd_25_359)">
<rect x="119.562" y="495.19" width="71.0439" height="26.8581" rx="13" transform="rotate(145.92 119.562 495.19)" fill="#0C4767"/>
<rect x="81.9275" y="474.25" width="49.3842" height="10.3967" transform="rotate(55.92 81.9275 474.25)" fill="#0C4767"/>
<rect x="145.566" y="464.785" width="43.0665" height="6.81518" rx="3.40759" transform="rotate(145.92 145.566 464.785)" fill="#0C4767" stroke="#0C4767"/>
<rect x="53.2942" y="409.194" width="70.8949" height="35.7266" rx="8" transform="rotate(55.92 53.2942 409.194)" fill="#0C4767"/>
<rect x="52.0842" y="413.383" width="13.3975" height="13.3975" rx="6" transform="rotate(55.92 52.0842 413.383)" fill="#E1E1E1"/>
<rect x="52.0842" y="413.383" width="13.3975" height="13.3975" rx="6" transform="rotate(55.92 52.0842 413.383)" stroke="#0C4767"/>
<rect x="61.781" y="427.716" width="13.3975" height="13.3975" rx="6" transform="rotate(55.92 61.781 427.716)" fill="#E1E1E1"/>
<rect x="61.781" y="427.716" width="13.3975" height="13.3975" rx="6" transform="rotate(55.92 61.781 427.716)" stroke="#0C4767"/>
<rect x="71.4778" y="442.049" width="13.3975" height="13.3975" rx="6" transform="rotate(55.92 71.4778 442.049)" fill="#E1E1E1"/>
<rect x="71.4778" y="442.049" width="13.3975" height="13.3975" rx="6" transform="rotate(55.92 71.4778 442.049)" stroke="#0C4767"/>
<rect x="81.1748" y="456.382" width="13.3975" height="13.3975" rx="6" transform="rotate(55.92 81.1748 456.382)" fill="#E1E1E1"/>
<rect x="81.1748" y="456.382" width="13.3975" height="13.3975" rx="6" transform="rotate(55.92 81.1748 456.382)" stroke="#0C4767"/>
<rect x="38.676" y="422.454" width="13.3975" height="13.3975" rx="6" transform="rotate(55.92 38.676 422.454)" fill="#E1E1E1"/>
<rect x="38.676" y="422.454" width="13.3975" height="13.3975" rx="6" transform="rotate(55.92 38.676 422.454)" stroke="#0C4767"/>
<rect x="48.3728" y="436.787" width="13.3975" height="13.3975" rx="6" transform="rotate(55.92 48.3728 436.787)" fill="#E1E1E1"/>
<rect x="48.3728" y="436.787" width="13.3975" height="13.3975" rx="6" transform="rotate(55.92 48.3728 436.787)" stroke="#0C4767"/>
<rect x="58.0696" y="451.12" width="13.3975" height="13.3975" rx="6" transform="rotate(55.92 58.0696 451.12)" fill="#E1E1E1"/>
<rect x="58.0696" y="451.12" width="13.3975" height="13.3975" rx="6" transform="rotate(55.92 58.0696 451.12)" stroke="#0C4767"/>
<rect x="67.7666" y="465.453" width="13.3975" height="13.3975" rx="6" transform="rotate(55.92 67.7666 465.453)" fill="#E1E1E1"/>
<rect x="67.7666" y="465.453" width="13.3975" height="13.3975" rx="6" transform="rotate(55.92 67.7666 465.453)" stroke="#0C4767"/>
<rect x="119.608" y="507.213" width="70.8949" height="35.7266" rx="8" transform="rotate(55.92 119.608 507.213)" fill="#0C4767"/>
<rect x="118.398" y="511.402" width="13.3975" height="13.3975" rx="6" transform="rotate(55.92 118.398 511.402)" fill="#E1E1E1"/>
<rect x="118.398" y="511.402" width="13.3975" height="13.3975" rx="6" transform="rotate(55.92 118.398 511.402)" stroke="#0C4767"/>
<rect x="128.095" y="525.735" width="13.3975" height="13.3975" rx="6" transform="rotate(55.92 128.095 525.735)" fill="#E1E1E1"/>
<rect x="128.095" y="525.735" width="13.3975" height="13.3975" rx="6" transform="rotate(55.92 128.095 525.735)" stroke="#0C4767"/>
<rect x="137.792" y="540.068" width="13.3975" height="13.3975" rx="6" transform="rotate(55.92 137.792 540.068)" fill="#E1E1E1"/>
<rect x="137.792" y="540.068" width="13.3975" height="13.3975" rx="6" transform="rotate(55.92 137.792 540.068)" stroke="#0C4767"/>
<rect x="147.489" y="554.401" width="13.3975" height="13.3975" rx="6" transform="rotate(55.92 147.489 554.401)" fill="#E1E1E1"/>
<rect x="147.489" y="554.401" width="13.3975" height="13.3975" rx="6" transform="rotate(55.92 147.489 554.401)" stroke="#0C4767"/>
<rect x="104.99" y="520.473" width="13.3975" height="13.3975" rx="6" transform="rotate(55.92 104.99 520.473)" fill="#E1E1E1"/>
<rect x="104.99" y="520.473" width="13.3975" height="13.3975" rx="6" transform="rotate(55.92 104.99 520.473)" stroke="#0C4767"/>
<rect x="114.687" y="534.806" width="13.3975" height="13.3975" rx="6" transform="rotate(55.92 114.687 534.806)" fill="#E1E1E1"/>
<rect x="114.687" y="534.806" width="13.3975" height="13.3975" rx="6" transform="rotate(55.92 114.687 534.806)" stroke="#0C4767"/>
<rect x="124.384" y="549.139" width="13.3975" height="13.3975" rx="6" transform="rotate(55.92 124.384 549.139)" fill="#E1E1E1"/>
<rect x="124.384" y="549.139" width="13.3975" height="13.3975" rx="6" transform="rotate(55.92 124.384 549.139)" stroke="#0C4767"/>
<rect x="134.081" y="563.472" width="13.3975" height="13.3975" rx="6" transform="rotate(55.92 134.081 563.472)" fill="#E1E1E1"/>
<rect x="134.081" y="563.472" width="13.3975" height="13.3975" rx="6" transform="rotate(55.92 134.081 563.472)" stroke="#0C4767"/>
<path fill-rule="evenodd" clip-rule="evenodd" d="M115.718 481.538C122.283 491.242 135.367 493.856 144.943 487.378C147.533 485.625 149.618 483.959 151.269 482.359L128.181 448.234C126.083 449.171 123.76 450.486 121.17 452.239C111.594 458.717 109.153 471.835 115.718 481.538Z" fill="#0C4767"/>
</g>
<path d="M601.915 487.028C592.717 487.028 592.717 468.538 592.717 470.093C592.717 487.028 582.566 487.028 583.014 487.028C592.717 487.028 592.717 504.908 592.717 503.964C592.717 487.028 603.036 487.028 601.915 487.028Z" fill="#ECE200"/>
<path d="M132.856 28.5476C117.365 28.5476 117.365 -2.45085 117.365 0.155619C117.365 28.5476 100.269 28.5476 101.024 28.5476C117.365 28.5476 117.365 58.522 117.365 56.9395C117.365 28.5476 134.746 28.5476 132.856 28.5476Z" fill="#ECE200"/>
<defs>
<filter id="filter0_d_25_359" x="119.5" y="69.9778" width="453" height="453" filterUnits="userSpaceOnUse" color-interpolation-filters="sRGB">
<feFlood flood-opacity="0" result="BackgroundImageFix"/>
<feColorMatrix in="SourceAlpha" type="matrix" values="0 0 0 0 0 0 0 0 0 0 0 0 0 0 0 0 0 0 127 0" result="hardAlpha"/>
<feOffset dy="4"/>
<feGaussianBlur stdDeviation="2"/>
<feComposite in2="hardAlpha" operator="out"/>
<feColorMatrix type="matrix" values="0 0 0 0 0 0 0 0 0 0 0 0 0 0 0 0 0 0 0.25 0"/>
<feBlend mode="normal" in2="BackgroundImageFix" result="effect1_dropShadow_25_359"/>
<feBlend mode="normal" in="SourceGraphic" in2="effect1_dropShadow_25_359" result="shape"/>
</filter>
<filter id="filter1_dd_25_359" x="12.8115" y="404.302" width="157.415" height="198.542" filterUnits="userSpaceOnUse" color-interpolation-filters="sRGB">
<feFlood flood-opacity="0" result="BackgroundImageFix"/>
<feColorMatrix in="SourceAlpha" type="matrix" values="0 0 0 0 0 0 0 0 0 0 0 0 0 0 0 0 0 0 127 0" result="hardAlpha"/>
<feOffset dy="2"/>
<feGaussianBlur stdDeviation="1.5"/>
<feColorMatrix type="matrix" values="0 0 0 0 0 0 0 0 0 0 0 0 0 0 0 0 0 0 0.3 0"/>
<feBlend mode="normal" in2="BackgroundImageFix" result="effect1_dropShadow_25_359"/>
<feColorMatrix in="SourceAlpha" type="matrix" values="0 0 0 0 0 0 0 0 0 0 0 0 0 0 0 0 0 0 127 0" result="hardAlpha"/>
<feMorphology radius="4" operator="dilate" in="SourceAlpha" result="effect2_dropShadow_25_359"/>
<feOffset dy="6"/>
<feGaussianBlur stdDeviation="5"/>
<feColorMatrix type="matrix" values="0 0 0 0 0 0 0 0 0 0 0 0 0 0 0 0 0 0 0.15 0"/>
<feBlend mode="normal" in2="effect1_dropShadow_25_359" result="effect2_dropShadow_25_359"/>
<feBlend mode="normal" in="SourceGraphic" in2="effect2_dropShadow_25_359" result="shape"/>
</filter>
</defs>
</svg>
