<svg width="837" height="644" viewBox="0 0 837 644" fill="none" xmlns="http://www.w3.org/2000/svg">
<g filter="url(#filter0_d_25_667)">
<circle cx="346" cy="292.822" r="222" stroke="#253E64" stroke-dasharray="10 10" shape-rendering="crispEdges"/>
</g>
<ellipse cx="325" cy="277.822" rx="216" ry="222" fill="#B6D0D9"/>
<mask id="mask0_25_667" style="mask-type:alpha" maskUnits="userSpaceOnUse" x="-247" y="94" width="594" height="532">
<path d="M56.2843 453.239C28.7843 414.239 39.7843 445.239 -6.71572 460.739C-30.7157 480.239 -6.71572 517.239 4.78428 531.739C16.2843 546.239 81.7843 515.239 72.7843 502.739C63.7843 490.239 83.7843 492.239 56.2843 453.239Z" fill="#5C835B" fill-opacity="0.59"/>
<path d="M140.316 197.938C173.147 190.182 176.169 191.113 174.217 149.647C158.189 61.4918 69.1193 103.047 86.8672 113.643C104.615 124.238 69.4855 162.555 88.566 187.623C107.646 212.692 107.486 205.694 140.316 197.938Z" fill="#5C835B" fill-opacity="0.59"/>
<path d="M161.585 561.438C147.085 515.938 142.585 517.938 109.585 514.938C91.5854 513.133 78.0854 514.938 66.5854 527.438C55.0854 539.938 52.5854 538.938 66.5854 561.438C80.5854 583.938 83.5854 593.938 78.0854 610.938C72.5854 627.938 115.085 633.438 127.585 610.938C140.085 588.438 176.085 606.938 161.585 561.438Z" fill="#5C835B" fill-opacity="0.59"/>
<path d="M-49.4614 299.227C-93.7086 292.355 -118.488 289.707 -144.805 233.751C-161.548 204.787 -160.325 206.807 -194.754 224.127C-229.184 241.448 -219.6 323.472 -241.271 379.442C-262.942 435.412 -213.321 495.787 -184.289 460.961C-155.257 426.135 -142.198 456.031 -88.687 432.607C-35.1763 409.183 -14.1384 418.717 -7.71002 363.047C-1.28163 307.376 -5.21427 306.099 -49.4614 299.227Z" fill="#5C835B" fill-opacity="0.59"/>
<path d="M-11.9136 128.22C21.2057 115.365 36.5693 132.014 76.0093 157.864C81.5745 180.25 109.948 230.641 48.6632 270.966C-12.6216 311.292 -125.672 244.316 -107.937 230.664C-90.202 217.011 -121.07 172.523 -127.879 150.446C-134.688 128.369 -111.507 110.061 -76.8875 137.77C-42.2677 165.478 -45.0328 141.075 -11.9136 128.22Z" fill="#5C835B" fill-opacity="0.59"/>
<path d="M309.666 386.636C282.538 301.332 274.119 305.082 212.38 299.458C178.705 296.073 153.448 299.458 131.933 322.893C110.418 346.328 105.741 344.453 131.933 386.636C158.125 428.82 163.738 447.568 153.448 479.44C143.158 511.312 222.67 521.623 246.056 479.44C269.442 437.256 336.793 471.94 309.666 386.636Z" fill="#5C835B" fill-opacity="0.59"/>
<path d="M335.691 514.509C350.806 528.463 346.057 540.691 342.649 567.784C332.422 576.376 313.434 603.958 276.862 582.346C240.291 560.733 246.355 484.888 257.969 490.638C269.584 496.387 284.867 469.01 294.617 459.85C304.367 450.689 319.789 458.087 314.188 483.145C308.587 508.203 320.575 500.555 335.691 514.509Z" fill="#5C835B" fill-opacity="0.59"/>
</mask>
<g mask="url(#mask0_25_667)">
<ellipse cx="323" cy="275.821" rx="211" ry="217" fill="#5C835B"/>
</g>
<circle cx="309" cy="257.822" r="222" stroke="#253E64"/>
<g filter="url(#filter1_dd_25_667)">
<rect x="457.562" y="216.712" width="71.0439" height="26.8581" rx="13" transform="rotate(145.92 457.562 216.712)" fill="#0C4767"/>
<rect x="419.927" y="195.772" width="49.3842" height="10.3967" transform="rotate(55.92 419.927 195.772)" fill="#0C4767"/>
<rect x="483.566" y="186.307" width="43.0665" height="6.81518" rx="3.40759" transform="rotate(145.92 483.566 186.307)" fill="#0C4767" stroke="#0C4767"/>
<rect x="391.294" y="130.716" width="70.8949" height="35.7266" rx="8" transform="rotate(55.92 391.294 130.716)" fill="#0C4767"/>
<rect x="390.084" y="134.905" width="13.3975" height="13.3975" rx="6" transform="rotate(55.92 390.084 134.905)" fill="#E1E1E1"/>
<rect x="390.084" y="134.905" width="13.3975" height="13.3975" rx="6" transform="rotate(55.92 390.084 134.905)" stroke="#0C4767"/>
<rect x="399.781" y="149.238" width="13.3975" height="13.3975" rx="6" transform="rotate(55.92 399.781 149.238)" fill="#E1E1E1"/>
<rect x="399.781" y="149.238" width="13.3975" height="13.3975" rx="6" transform="rotate(55.92 399.781 149.238)" stroke="#0C4767"/>
<rect x="409.478" y="163.571" width="13.3975" height="13.3975" rx="6" transform="rotate(55.92 409.478 163.571)" fill="#E1E1E1"/>
<rect x="409.478" y="163.571" width="13.3975" height="13.3975" rx="6" transform="rotate(55.92 409.478 163.571)" stroke="#0C4767"/>
<rect x="419.175" y="177.904" width="13.3975" height="13.3975" rx="6" transform="rotate(55.92 419.175 177.904)" fill="#E1E1E1"/>
<rect x="419.175" y="177.904" width="13.3975" height="13.3975" rx="6" transform="rotate(55.92 419.175 177.904)" stroke="#0C4767"/>
<rect x="376.676" y="143.976" width="13.3975" height="13.3975" rx="6" transform="rotate(55.92 376.676 143.976)" fill="#E1E1E1"/>
<rect x="376.676" y="143.976" width="13.3975" height="13.3975" rx="6" transform="rotate(55.92 376.676 143.976)" stroke="#0C4767"/>
<rect x="386.373" y="158.309" width="13.3975" height="13.3975" rx="6" transform="rotate(55.92 386.373 158.309)" fill="#E1E1E1"/>
<rect x="386.373" y="158.309" width="13.3975" height="13.3975" rx="6" transform="rotate(55.92 386.373 158.309)" stroke="#0C4767"/>
<rect x="396.07" y="172.642" width="13.3975" height="13.3975" rx="6" transform="rotate(55.92 396.07 172.642)" fill="#E1E1E1"/>
<rect x="396.07" y="172.642" width="13.3975" height="13.3975" rx="6" transform="rotate(55.92 396.07 172.642)" stroke="#0C4767"/>
<rect x="405.767" y="186.975" width="13.3975" height="13.3975" rx="6" transform="rotate(55.92 405.767 186.975)" fill="#E1E1E1"/>
<rect x="405.767" y="186.975" width="13.3975" height="13.3975" rx="6" transform="rotate(55.92 405.767 186.975)" stroke="#0C4767"/>
<rect x="457.608" y="228.735" width="70.8949" height="35.7266" rx="8" transform="rotate(55.92 457.608 228.735)" fill="#0C4767"/>
<rect x="456.398" y="232.924" width="13.3975" height="13.3975" rx="6" transform="rotate(55.92 456.398 232.924)" fill="#E1E1E1"/>
<rect x="456.398" y="232.924" width="13.3975" height="13.3975" rx="6" transform="rotate(55.92 456.398 232.924)" stroke="#0C4767"/>
<rect x="466.095" y="247.257" width="13.3975" height="13.3975" rx="6" transform="rotate(55.92 466.095 247.257)" fill="#E1E1E1"/>
<rect x="466.095" y="247.257" width="13.3975" height="13.3975" rx="6" transform="rotate(55.92 466.095 247.257)" stroke="#0C4767"/>
<rect x="475.792" y="261.59" width="13.3975" height="13.3975" rx="6" transform="rotate(55.92 475.792 261.59)" fill="#E1E1E1"/>
<rect x="475.792" y="261.59" width="13.3975" height="13.3975" rx="6" transform="rotate(55.92 475.792 261.59)" stroke="#0C4767"/>
<rect x="485.489" y="275.923" width="13.3975" height="13.3975" rx="6" transform="rotate(55.92 485.489 275.923)" fill="#E1E1E1"/>
<rect x="485.489" y="275.923" width="13.3975" height="13.3975" rx="6" transform="rotate(55.92 485.489 275.923)" stroke="#0C4767"/>
<rect x="442.99" y="241.995" width="13.3975" height="13.3975" rx="6" transform="rotate(55.92 442.99 241.995)" fill="#E1E1E1"/>
<rect x="442.99" y="241.995" width="13.3975" height="13.3975" rx="6" transform="rotate(55.92 442.99 241.995)" stroke="#0C4767"/>
<rect x="452.687" y="256.328" width="13.3975" height="13.3975" rx="6" transform="rotate(55.92 452.687 256.328)" fill="#E1E1E1"/>
<rect x="452.687" y="256.328" width="13.3975" height="13.3975" rx="6" transform="rotate(55.92 452.687 256.328)" stroke="#0C4767"/>
<rect x="462.384" y="270.661" width="13.3975" height="13.3975" rx="6" transform="rotate(55.92 462.384 270.661)" fill="#E1E1E1"/>
<rect x="462.384" y="270.661" width="13.3975" height="13.3975" rx="6" transform="rotate(55.92 462.384 270.661)" stroke="#0C4767"/>
<rect x="472.081" y="284.994" width="13.3975" height="13.3975" rx="6" transform="rotate(55.92 472.081 284.994)" fill="#E1E1E1"/>
<rect x="472.081" y="284.994" width="13.3975" height="13.3975" rx="6" transform="rotate(55.92 472.081 284.994)" stroke="#0C4767"/>
<path fill-rule="evenodd" clip-rule="evenodd" d="M453.718 203.06C460.283 212.764 473.367 215.378 482.943 208.9C485.533 207.147 487.618 205.481 489.269 203.882L466.181 169.756C464.083 170.693 461.76 172.008 459.17 173.761C449.594 180.239 447.153 193.357 453.718 203.06Z" fill="#0C4767"/>
</g>
<path d="M601.915 487.028C592.717 487.028 592.717 468.538 592.717 470.093C592.717 487.028 582.566 487.028 583.014 487.028C592.717 487.028 592.717 504.908 592.717 503.964C592.717 487.028 603.036 487.028 601.915 487.028Z" fill="#ECE200"/>
<path d="M132.856 28.5476C117.365 28.5476 117.365 -2.45085 117.365 0.155619C117.365 28.5476 100.269 28.5476 101.024 28.5476C117.365 28.5476 117.365 58.522 117.365 56.9395C117.365 28.5476 134.746 28.5476 132.856 28.5476Z" fill="#ECE200"/>
<defs>
<filter id="filter0_d_25_667" x="119.5" y="70.3218" width="453" height="453" filterUnits="userSpaceOnUse" color-interpolation-filters="sRGB">
<feFlood flood-opacity="0" result="BackgroundImageFix"/>
<feColorMatrix in="SourceAlpha" type="matrix" values="0 0 0 0 0 0 0 0 0 0 0 0 0 0 0 0 0 0 127 0" result="hardAlpha"/>
<feOffset dy="4"/>
<feGaussianBlur stdDeviation="2"/>
<feComposite in2="hardAlpha" operator="out"/>
<feColorMatrix type="matrix" values="0 0 0 0 0 0 0 0 0 0 0 0 0 0 0 0 0 0 0.25 0"/>
<feBlend mode="normal" in2="BackgroundImageFix" result="effect1_dropShadow_25_667"/>
<feBlend mode="normal" in="SourceGraphic" in2="effect1_dropShadow_25_667" result="shape"/>
</filter>
<filter id="filter1_dd_25_667" x="350.812" y="125.824" width="157.415" height="198.542" filterUnits="userSpaceOnUse" color-interpolation-filters="sRGB">
<feFlood flood-opacity="0" result="BackgroundImageFix"/>
<feColorMatrix in="SourceAlpha" type="matrix" values="0 0 0 0 0 0 0 0 0 0 0 0 0 0 0 0 0 0 127 0" result="hardAlpha"/>
<feOffset dy="2"/>
<feGaussianBlur stdDeviation="1.5"/>
<feColorMatrix type="matrix" values="0 0 0 0 0 0 0 0 0 0 0 0 0 0 0 0 0 0 0.3 0"/>
<feBlend mode="normal" in2="BackgroundImageFix" result="effect1_dropShadow_25_667"/>
<feColorMatrix in="SourceAlpha" type="matrix" values="0 0 0 0 0 0 0 0 0 0 0 0 0 0 0 0 0 0 127 0" result="hardAlpha"/>
<feMorphology radius="4" operator="dilate" in="SourceAlpha" result="effect2_dropShadow_25_667"/>
<feOffset dy="6"/>
<feGaussianBlur stdDeviation="5"/>
<feColorMatrix type="matrix" values="0 0 0 0 0 0 0 0 0 0 0 0 0 0 0 0 0 0 0.15 0"/>
<feBlend mode="normal" in2="effect1_dropShadow_25_667" result="effect2_dropShadow_25_667"/>
<feBlend mode="normal" in="SourceGraphic" in2="effect2_dropShadow_25_667" result="shape"/>
</filter>
</defs>
</svg>
