<svg width="837" height="644" viewBox="0 0 837 644" fill="none" xmlns="http://www.w3.org/2000/svg">
<g filter="url(#filter0_d_25_711)">
<circle cx="346" cy="293.299" r="222" stroke="#253E64" stroke-dasharray="10 10" shape-rendering="crispEdges"/>
</g>
<ellipse cx="325" cy="278.299" rx="216" ry="222" fill="#B6D0D9"/>
<mask id="mask0_25_711" style="mask-type:alpha" maskUnits="userSpaceOnUse" x="-247" y="95" width="594" height="532">
<path d="M56.2843 453.716C28.7843 414.716 39.7843 445.716 -6.71572 461.216C-30.7157 480.716 -6.71572 517.716 4.78428 532.216C16.2843 546.716 81.7843 515.716 72.7843 503.216C63.7843 490.716 83.7843 492.716 56.2843 453.716Z" fill="#5C835B" fill-opacity="0.59"/>
<path d="M140.316 198.416C173.147 190.66 176.169 191.591 174.217 150.125C158.189 61.9693 69.1193 103.525 86.8672 114.12C104.615 124.716 69.4855 163.032 88.566 188.101C107.646 213.169 107.486 206.171 140.316 198.416Z" fill="#5C835B" fill-opacity="0.59"/>
<path d="M161.585 561.915C147.085 516.415 142.585 518.415 109.585 515.415C91.5854 513.61 78.0854 515.415 66.5854 527.915C55.0854 540.415 52.5854 539.415 66.5854 561.915C80.5854 584.415 83.5854 594.415 78.0854 611.415C72.5854 628.415 115.085 633.915 127.585 611.415C140.085 588.915 176.085 607.415 161.585 561.915Z" fill="#5C835B" fill-opacity="0.59"/>
<path d="M-49.4614 299.705C-93.7086 292.833 -118.488 290.184 -144.805 234.229C-161.548 205.264 -160.325 207.284 -194.754 224.605C-229.184 241.925 -219.6 323.95 -241.271 379.919C-262.942 435.889 -213.321 496.264 -184.289 461.438C-155.257 426.612 -142.198 456.508 -88.687 433.084C-35.1763 409.66 -14.1384 419.194 -7.71002 363.524C-1.28163 307.854 -5.21427 306.576 -49.4614 299.705Z" fill="#5C835B" fill-opacity="0.59"/>
<path d="M-11.9136 128.698C21.2057 115.842 36.5693 132.492 76.0093 158.342C81.5745 180.728 109.948 231.118 48.6632 271.444C-12.6216 311.77 -125.672 244.794 -107.937 231.141C-90.202 217.489 -121.07 173.001 -127.879 150.924C-134.688 128.846 -111.507 110.539 -76.8875 138.247C-42.2677 165.956 -45.0328 141.553 -11.9136 128.698Z" fill="#5C835B" fill-opacity="0.59"/>
<path d="M309.666 387.114C282.538 301.81 274.119 305.56 212.38 299.935C178.705 296.551 153.448 299.935 131.933 323.37C110.418 346.806 105.741 344.931 131.933 387.114C158.125 429.297 163.738 448.045 153.448 479.917C143.158 511.789 222.67 522.101 246.056 479.917C269.442 437.734 336.793 472.418 309.666 387.114Z" fill="#5C835B" fill-opacity="0.59"/>
<path d="M335.691 514.986C350.806 528.941 346.057 541.169 342.649 568.261C332.422 576.853 313.434 604.436 276.862 582.823C240.291 561.211 246.355 485.365 257.969 491.115C269.584 496.865 284.867 469.487 294.617 460.327C304.367 451.167 319.789 458.564 314.188 483.623C308.587 508.681 320.575 501.032 335.691 514.986Z" fill="#5C835B" fill-opacity="0.59"/>
</mask>
<g mask="url(#mask0_25_711)">
<ellipse cx="323" cy="276.299" rx="211" ry="217" fill="#5C835B"/>
</g>
<mask id="mask1_25_711" style="mask-type:alpha" maskUnits="userSpaceOnUse" x="483" y="144" width="594" height="532">
<path d="M786.284 502.895C758.784 463.895 769.784 494.895 723.284 510.395C699.284 529.895 723.284 566.895 734.784 581.395C746.284 595.895 811.784 564.895 802.784 552.395C793.784 539.895 813.784 541.895 786.284 502.895Z" fill="#5C835B" fill-opacity="0.59"/>
<path d="M870.316 247.594C903.147 239.839 906.169 240.769 904.217 199.303C888.189 111.148 799.119 152.704 816.867 163.299C834.615 173.894 799.485 212.211 818.566 237.28C837.646 262.348 837.486 255.35 870.316 247.594Z" fill="#5C835B" fill-opacity="0.59"/>
<path d="M708.667 621.214C711.667 584.214 727.167 576.214 682.167 539.214C655.667 523.714 629.667 593.714 646.167 621.214C662.667 648.714 705.667 658.214 708.667 621.214Z" fill="#5C835B" fill-opacity="0.59"/>
<path d="M891.585 611.094C877.085 565.594 872.585 567.594 839.585 564.594C821.585 562.789 808.085 564.594 796.585 577.094C785.085 589.594 782.585 588.594 796.585 611.094C810.585 633.594 813.585 643.594 808.085 660.594C802.585 677.594 845.085 683.094 857.585 660.594C870.085 638.094 906.085 656.594 891.585 611.094Z" fill="#5C835B" fill-opacity="0.59"/>
<path d="M680.539 348.883C636.291 342.011 611.512 339.363 585.195 283.407C568.452 254.443 569.675 256.463 535.246 273.783C500.816 291.104 510.4 373.128 488.729 429.098C467.058 485.068 516.679 545.443 545.711 510.617C574.743 475.791 587.802 505.687 641.313 482.263C694.824 458.839 715.862 468.373 722.29 412.703C728.718 357.032 724.786 355.755 680.539 348.883Z" fill="#5C835B" fill-opacity="0.59"/>
<path d="M718.086 177.876C751.206 165.021 766.569 181.67 806.009 207.52C811.574 229.907 839.948 280.297 778.663 320.623C717.378 360.948 604.328 293.973 622.063 280.32C639.798 266.667 608.93 222.179 602.121 200.102C595.312 178.025 618.493 159.717 653.113 187.426C687.732 215.135 684.967 190.732 718.086 177.876Z" fill="#5C835B" fill-opacity="0.59"/>
<path d="M1039.67 436.293C1012.54 350.989 1004.12 354.738 942.38 349.114C908.705 345.729 883.448 349.114 861.933 372.549C840.418 395.984 835.741 394.109 861.933 436.293C888.125 478.476 893.738 497.224 883.448 529.096C873.158 560.968 952.67 571.279 976.056 529.096C999.442 486.913 1066.79 521.597 1039.67 436.293Z" fill="#5C835B" fill-opacity="0.59"/>
</mask>
<g mask="url(#mask1_25_711)">
<ellipse cx="323" cy="276.299" rx="211" ry="217" fill="#5C835B"/>
</g>
<circle cx="309" cy="258.299" r="222" stroke="#253E64"/>
<g filter="url(#filter1_dd_25_711)">
<rect x="497.562" y="147.712" width="71.0439" height="26.8581" rx="13" transform="rotate(145.92 497.562 147.712)" fill="#0C4767"/>
<rect x="459.927" y="126.772" width="49.3842" height="10.3967" transform="rotate(55.92 459.927 126.772)" fill="#0C4767"/>
<rect x="523.566" y="117.307" width="43.0665" height="6.81518" rx="3.40759" transform="rotate(145.92 523.566 117.307)" fill="#0C4767" stroke="#0C4767"/>
<rect x="431.294" y="61.7163" width="70.8949" height="35.7266" rx="8" transform="rotate(55.92 431.294 61.7163)" fill="#0C4767"/>
<rect x="430.084" y="65.9048" width="13.3975" height="13.3975" rx="6" transform="rotate(55.92 430.084 65.9048)" fill="#E1E1E1"/>
<rect x="430.084" y="65.9048" width="13.3975" height="13.3975" rx="6" transform="rotate(55.92 430.084 65.9048)" stroke="#0C4767"/>
<rect x="439.781" y="80.2378" width="13.3975" height="13.3975" rx="6" transform="rotate(55.92 439.781 80.2378)" fill="#E1E1E1"/>
<rect x="439.781" y="80.2378" width="13.3975" height="13.3975" rx="6" transform="rotate(55.92 439.781 80.2378)" stroke="#0C4767"/>
<rect x="449.478" y="94.5708" width="13.3975" height="13.3975" rx="6" transform="rotate(55.92 449.478 94.5708)" fill="#E1E1E1"/>
<rect x="449.478" y="94.5708" width="13.3975" height="13.3975" rx="6" transform="rotate(55.92 449.478 94.5708)" stroke="#0C4767"/>
<rect x="459.175" y="108.904" width="13.3975" height="13.3975" rx="6" transform="rotate(55.92 459.175 108.904)" fill="#E1E1E1"/>
<rect x="459.175" y="108.904" width="13.3975" height="13.3975" rx="6" transform="rotate(55.92 459.175 108.904)" stroke="#0C4767"/>
<rect x="416.676" y="74.9761" width="13.3975" height="13.3975" rx="6" transform="rotate(55.92 416.676 74.9761)" fill="#E1E1E1"/>
<rect x="416.676" y="74.9761" width="13.3975" height="13.3975" rx="6" transform="rotate(55.92 416.676 74.9761)" stroke="#0C4767"/>
<rect x="426.373" y="89.3091" width="13.3975" height="13.3975" rx="6" transform="rotate(55.92 426.373 89.3091)" fill="#E1E1E1"/>
<rect x="426.373" y="89.3091" width="13.3975" height="13.3975" rx="6" transform="rotate(55.92 426.373 89.3091)" stroke="#0C4767"/>
<rect x="436.07" y="103.642" width="13.3975" height="13.3975" rx="6" transform="rotate(55.92 436.07 103.642)" fill="#E1E1E1"/>
<rect x="436.07" y="103.642" width="13.3975" height="13.3975" rx="6" transform="rotate(55.92 436.07 103.642)" stroke="#0C4767"/>
<rect x="445.767" y="117.975" width="13.3975" height="13.3975" rx="6" transform="rotate(55.92 445.767 117.975)" fill="#E1E1E1"/>
<rect x="445.767" y="117.975" width="13.3975" height="13.3975" rx="6" transform="rotate(55.92 445.767 117.975)" stroke="#0C4767"/>
<rect x="497.608" y="159.735" width="70.8949" height="35.7266" rx="8" transform="rotate(55.92 497.608 159.735)" fill="#0C4767"/>
<rect x="496.398" y="163.924" width="13.3975" height="13.3975" rx="6" transform="rotate(55.92 496.398 163.924)" fill="#E1E1E1"/>
<rect x="496.398" y="163.924" width="13.3975" height="13.3975" rx="6" transform="rotate(55.92 496.398 163.924)" stroke="#0C4767"/>
<rect x="506.095" y="178.257" width="13.3975" height="13.3975" rx="6" transform="rotate(55.92 506.095 178.257)" fill="#E1E1E1"/>
<rect x="506.095" y="178.257" width="13.3975" height="13.3975" rx="6" transform="rotate(55.92 506.095 178.257)" stroke="#0C4767"/>
<rect x="515.792" y="192.59" width="13.3975" height="13.3975" rx="6" transform="rotate(55.92 515.792 192.59)" fill="#E1E1E1"/>
<rect x="515.792" y="192.59" width="13.3975" height="13.3975" rx="6" transform="rotate(55.92 515.792 192.59)" stroke="#0C4767"/>
<rect x="525.489" y="206.923" width="13.3975" height="13.3975" rx="6" transform="rotate(55.92 525.489 206.923)" fill="#E1E1E1"/>
<rect x="525.489" y="206.923" width="13.3975" height="13.3975" rx="6" transform="rotate(55.92 525.489 206.923)" stroke="#0C4767"/>
<rect x="482.99" y="172.995" width="13.3975" height="13.3975" rx="6" transform="rotate(55.92 482.99 172.995)" fill="#E1E1E1"/>
<rect x="482.99" y="172.995" width="13.3975" height="13.3975" rx="6" transform="rotate(55.92 482.99 172.995)" stroke="#0C4767"/>
<rect x="492.687" y="187.328" width="13.3975" height="13.3975" rx="6" transform="rotate(55.92 492.687 187.328)" fill="#E1E1E1"/>
<rect x="492.687" y="187.328" width="13.3975" height="13.3975" rx="6" transform="rotate(55.92 492.687 187.328)" stroke="#0C4767"/>
<rect x="502.384" y="201.661" width="13.3975" height="13.3975" rx="6" transform="rotate(55.92 502.384 201.661)" fill="#E1E1E1"/>
<rect x="502.384" y="201.661" width="13.3975" height="13.3975" rx="6" transform="rotate(55.92 502.384 201.661)" stroke="#0C4767"/>
<rect x="512.081" y="215.994" width="13.3975" height="13.3975" rx="6" transform="rotate(55.92 512.081 215.994)" fill="#E1E1E1"/>
<rect x="512.081" y="215.994" width="13.3975" height="13.3975" rx="6" transform="rotate(55.92 512.081 215.994)" stroke="#0C4767"/>
<path fill-rule="evenodd" clip-rule="evenodd" d="M493.718 134.06C500.283 143.764 513.367 146.378 522.943 139.9C525.533 138.147 527.618 136.481 529.269 134.882L506.181 100.756C504.083 101.693 501.76 103.008 499.17 104.761C489.594 111.239 487.153 124.357 493.718 134.06Z" fill="#0C4767"/>
</g>
<path d="M601.915 487.028C592.717 487.028 592.717 468.538 592.717 470.093C592.717 487.028 582.566 487.028 583.014 487.028C592.717 487.028 592.717 504.908 592.717 503.964C592.717 487.028 603.036 487.028 601.915 487.028Z" fill="#ECE200"/>
<path d="M132.856 28.5476C117.365 28.5476 117.365 -2.45085 117.365 0.155619C117.365 28.5476 100.269 28.5476 101.024 28.5476C117.365 28.5476 117.365 58.522 117.365 56.9395C117.365 28.5476 134.746 28.5476 132.856 28.5476Z" fill="#ECE200"/>
<defs>
<filter id="filter0_d_25_711" x="119.5" y="70.7993" width="453" height="453" filterUnits="userSpaceOnUse" color-interpolation-filters="sRGB">
<feFlood flood-opacity="0" result="BackgroundImageFix"/>
<feColorMatrix in="SourceAlpha" type="matrix" values="0 0 0 0 0 0 0 0 0 0 0 0 0 0 0 0 0 0 127 0" result="hardAlpha"/>
<feOffset dy="4"/>
<feGaussianBlur stdDeviation="2"/>
<feComposite in2="hardAlpha" operator="out"/>
<feColorMatrix type="matrix" values="0 0 0 0 0 0 0 0 0 0 0 0 0 0 0 0 0 0 0.25 0"/>
<feBlend mode="normal" in2="BackgroundImageFix" result="effect1_dropShadow_25_711"/>
<feBlend mode="normal" in="SourceGraphic" in2="effect1_dropShadow_25_711" result="shape"/>
</filter>
<filter id="filter1_dd_25_711" x="390.812" y="56.8242" width="157.415" height="198.542" filterUnits="userSpaceOnUse" color-interpolation-filters="sRGB">
<feFlood flood-opacity="0" result="BackgroundImageFix"/>
<feColorMatrix in="SourceAlpha" type="matrix" values="0 0 0 0 0 0 0 0 0 0 0 0 0 0 0 0 0 0 127 0" result="hardAlpha"/>
<feOffset dy="2"/>
<feGaussianBlur stdDeviation="1.5"/>
<feColorMatrix type="matrix" values="0 0 0 0 0 0 0 0 0 0 0 0 0 0 0 0 0 0 0.3 0"/>
<feBlend mode="normal" in2="BackgroundImageFix" result="effect1_dropShadow_25_711"/>
<feColorMatrix in="SourceAlpha" type="matrix" values="0 0 0 0 0 0 0 0 0 0 0 0 0 0 0 0 0 0 127 0" result="hardAlpha"/>
<feMorphology radius="4" operator="dilate" in="SourceAlpha" result="effect2_dropShadow_25_711"/>
<feOffset dy="6"/>
<feGaussianBlur stdDeviation="5"/>
<feColorMatrix type="matrix" values="0 0 0 0 0 0 0 0 0 0 0 0 0 0 0 0 0 0 0.15 0"/>
<feBlend mode="normal" in2="effect1_dropShadow_25_711" result="effect2_dropShadow_25_711"/>
<feBlend mode="normal" in="SourceGraphic" in2="effect2_dropShadow_25_711" result="shape"/>
</filter>
</defs>
</svg>
