<svg width="837" height="683" viewBox="0 0 837 683" fill="none" xmlns="http://www.w3.org/2000/svg">
<g filter="url(#filter0_dd_25_1093)">
<rect x="484.562" y="204.712" width="71.0439" height="26.8581" rx="13" transform="rotate(145.92 484.562 204.712)" fill="#0C4767"/>
<rect x="446.927" y="183.771" width="49.3842" height="10.3967" transform="rotate(55.92 446.927 183.771)" fill="#0C4767"/>
<rect x="510.566" y="174.307" width="43.0665" height="6.81518" rx="3.40759" transform="rotate(145.92 510.566 174.307)" fill="#0C4767" stroke="#0C4767"/>
<rect x="418.294" y="118.716" width="70.8949" height="35.7266" rx="8" transform="rotate(55.92 418.294 118.716)" fill="#0C4767"/>
<rect x="417.084" y="122.904" width="13.3975" height="13.3975" rx="6" transform="rotate(55.92 417.084 122.904)" fill="#E1E1E1"/>
<rect x="417.084" y="122.904" width="13.3975" height="13.3975" rx="6" transform="rotate(55.92 417.084 122.904)" stroke="#0C4767"/>
<rect x="426.781" y="137.237" width="13.3975" height="13.3975" rx="6" transform="rotate(55.92 426.781 137.237)" fill="#E1E1E1"/>
<rect x="426.781" y="137.237" width="13.3975" height="13.3975" rx="6" transform="rotate(55.92 426.781 137.237)" stroke="#0C4767"/>
<rect x="436.478" y="151.57" width="13.3975" height="13.3975" rx="6" transform="rotate(55.92 436.478 151.57)" fill="#E1E1E1"/>
<rect x="436.478" y="151.57" width="13.3975" height="13.3975" rx="6" transform="rotate(55.92 436.478 151.57)" stroke="#0C4767"/>
<rect x="446.175" y="165.903" width="13.3975" height="13.3975" rx="6" transform="rotate(55.92 446.175 165.903)" fill="#E1E1E1"/>
<rect x="446.175" y="165.903" width="13.3975" height="13.3975" rx="6" transform="rotate(55.92 446.175 165.903)" stroke="#0C4767"/>
<rect x="403.676" y="131.976" width="13.3975" height="13.3975" rx="6" transform="rotate(55.92 403.676 131.976)" fill="#E1E1E1"/>
<rect x="403.676" y="131.976" width="13.3975" height="13.3975" rx="6" transform="rotate(55.92 403.676 131.976)" stroke="#0C4767"/>
<rect x="413.373" y="146.309" width="13.3975" height="13.3975" rx="6" transform="rotate(55.92 413.373 146.309)" fill="#E1E1E1"/>
<rect x="413.373" y="146.309" width="13.3975" height="13.3975" rx="6" transform="rotate(55.92 413.373 146.309)" stroke="#0C4767"/>
<rect x="423.07" y="160.642" width="13.3975" height="13.3975" rx="6" transform="rotate(55.92 423.07 160.642)" fill="#E1E1E1"/>
<rect x="423.07" y="160.642" width="13.3975" height="13.3975" rx="6" transform="rotate(55.92 423.07 160.642)" stroke="#0C4767"/>
<rect x="432.767" y="174.975" width="13.3975" height="13.3975" rx="6" transform="rotate(55.92 432.767 174.975)" fill="#E1E1E1"/>
<rect x="432.767" y="174.975" width="13.3975" height="13.3975" rx="6" transform="rotate(55.92 432.767 174.975)" stroke="#0C4767"/>
<rect x="484.608" y="216.735" width="70.8949" height="35.7266" rx="8" transform="rotate(55.92 484.608 216.735)" fill="#0C4767"/>
<rect x="483.398" y="220.924" width="13.3975" height="13.3975" rx="6" transform="rotate(55.92 483.398 220.924)" fill="#E1E1E1"/>
<rect x="483.398" y="220.924" width="13.3975" height="13.3975" rx="6" transform="rotate(55.92 483.398 220.924)" stroke="#0C4767"/>
<rect x="493.095" y="235.257" width="13.3975" height="13.3975" rx="6" transform="rotate(55.92 493.095 235.257)" fill="#E1E1E1"/>
<rect x="493.095" y="235.257" width="13.3975" height="13.3975" rx="6" transform="rotate(55.92 493.095 235.257)" stroke="#0C4767"/>
<rect x="502.792" y="249.59" width="13.3975" height="13.3975" rx="6" transform="rotate(55.92 502.792 249.59)" fill="#E1E1E1"/>
<rect x="502.792" y="249.59" width="13.3975" height="13.3975" rx="6" transform="rotate(55.92 502.792 249.59)" stroke="#0C4767"/>
<rect x="512.489" y="263.923" width="13.3975" height="13.3975" rx="6" transform="rotate(55.92 512.489 263.923)" fill="#E1E1E1"/>
<rect x="512.489" y="263.923" width="13.3975" height="13.3975" rx="6" transform="rotate(55.92 512.489 263.923)" stroke="#0C4767"/>
<rect x="469.99" y="229.995" width="13.3975" height="13.3975" rx="6" transform="rotate(55.92 469.99 229.995)" fill="#E1E1E1"/>
<rect x="469.99" y="229.995" width="13.3975" height="13.3975" rx="6" transform="rotate(55.92 469.99 229.995)" stroke="#0C4767"/>
<rect x="479.687" y="244.328" width="13.3975" height="13.3975" rx="6" transform="rotate(55.92 479.687 244.328)" fill="#E1E1E1"/>
<rect x="479.687" y="244.328" width="13.3975" height="13.3975" rx="6" transform="rotate(55.92 479.687 244.328)" stroke="#0C4767"/>
<rect x="489.384" y="258.661" width="13.3975" height="13.3975" rx="6" transform="rotate(55.92 489.384 258.661)" fill="#E1E1E1"/>
<rect x="489.384" y="258.661" width="13.3975" height="13.3975" rx="6" transform="rotate(55.92 489.384 258.661)" stroke="#0C4767"/>
<rect x="499.081" y="272.994" width="13.3975" height="13.3975" rx="6" transform="rotate(55.92 499.081 272.994)" fill="#E1E1E1"/>
<rect x="499.081" y="272.994" width="13.3975" height="13.3975" rx="6" transform="rotate(55.92 499.081 272.994)" stroke="#0C4767"/>
<path fill-rule="evenodd" clip-rule="evenodd" d="M480.718 191.061C487.283 200.764 500.367 203.379 509.943 196.9C512.533 195.148 514.618 193.481 516.269 191.882L493.181 157.757C491.083 158.693 488.76 160.009 486.17 161.761C476.594 168.24 474.153 181.358 480.718 191.061Z" fill="#0C4767"/>
</g>
<g filter="url(#filter1_d_25_1093)">
<circle cx="346" cy="331.642" r="222" stroke="#253E64" stroke-dasharray="10 10" shape-rendering="crispEdges"/>
</g>
<ellipse cx="325" cy="316.642" rx="216" ry="222" fill="#B6D0D9"/>
<mask id="mask0_25_1093" style="mask-type:alpha" maskUnits="userSpaceOnUse" x="-57" y="135" width="594" height="532">
<path d="M246.284 493.85C218.784 454.85 229.784 485.85 183.284 501.35C159.284 520.85 183.284 557.85 194.784 572.35C206.284 586.85 271.784 555.85 262.784 543.35C253.784 530.85 273.784 532.85 246.284 493.85Z" fill="#5C835B" fill-opacity="0.59"/>
<path d="M330.316 238.549C363.147 230.794 366.169 231.725 364.217 190.258C348.189 102.103 259.119 143.659 276.867 154.254C294.615 164.849 259.485 203.166 278.566 228.235C297.646 253.303 297.486 246.305 330.316 238.549Z" fill="#5C835B" fill-opacity="0.59"/>
<path d="M168.667 612.169C171.667 575.169 187.167 567.169 142.167 530.169C115.667 514.669 89.6668 584.669 106.167 612.169C122.667 639.669 165.667 649.169 168.667 612.169Z" fill="#5C835B" fill-opacity="0.59"/>
<path d="M351.585 602.049C337.085 556.549 332.585 558.549 299.585 555.549C281.585 553.744 268.085 555.549 256.585 568.049C245.085 580.549 242.585 579.549 256.585 602.049C270.585 624.549 273.585 634.549 268.085 651.549C262.585 668.549 305.085 674.049 317.585 651.549C330.085 629.049 366.085 647.549 351.585 602.049Z" fill="#5C835B" fill-opacity="0.59"/>
<path d="M140.539 339.838C96.2914 332.967 71.5122 330.318 45.1946 274.362C28.452 245.398 29.675 247.418 -4.7543 264.738C-39.1836 282.059 -29.6003 364.083 -51.2711 420.053C-72.942 476.023 -23.3214 536.398 5.71088 501.572C34.7431 466.746 47.8024 496.642 101.313 473.218C154.824 449.794 175.862 459.328 182.29 403.658C188.718 347.988 184.786 346.71 140.539 339.838Z" fill="#5C835B" fill-opacity="0.59"/>
<path d="M178.086 168.831C211.206 155.976 226.569 172.625 266.009 198.475C271.574 220.862 299.948 271.252 238.663 311.578C177.378 351.903 64.3285 284.928 82.0632 271.275C99.798 257.623 68.9302 213.134 62.1213 191.057C55.3125 168.98 78.4927 150.672 113.113 178.381C147.732 206.09 144.967 181.687 178.086 168.831Z" fill="#5C835B" fill-opacity="0.59"/>
<path d="M499.666 427.248C472.538 341.944 464.119 345.693 402.38 340.069C368.705 336.684 343.448 340.069 321.933 363.504C300.418 386.939 295.741 385.064 321.933 427.248C348.125 469.431 353.738 488.179 343.448 520.051C333.158 551.923 412.67 562.234 436.056 520.051C459.442 477.868 526.793 512.552 499.666 427.248Z" fill="#5C835B" fill-opacity="0.59"/>
<path d="M525.691 555.12C540.806 569.074 536.057 581.303 532.649 608.395C522.422 616.987 503.434 644.569 466.862 622.957C430.291 601.344 436.355 525.499 447.969 531.249C459.584 536.998 474.867 509.621 484.617 500.461C494.367 491.301 509.789 498.698 504.188 523.756C498.587 548.815 510.575 541.166 525.691 555.12Z" fill="#5C835B" fill-opacity="0.59"/>
</mask>
<g mask="url(#mask0_25_1093)">
<ellipse cx="323" cy="314.642" rx="211" ry="217" fill="#5C835B"/>
</g>
<circle cx="309" cy="296.642" r="222" stroke="#253E64"/>
<path d="M619.753 524.083C593.128 524.083 593.128 469.7 593.128 474.273C593.128 524.083 563.743 524.083 565.042 524.083C593.128 524.083 593.128 576.67 593.128 573.894C593.128 524.083 623 524.083 619.753 524.083Z" fill="#ECE200"/>
<path d="M153.668 65.6093C117.845 65.6093 117.845 -5.63266 117.845 0.35765C117.845 65.6093 78.3088 65.6093 80.0563 65.6093C117.845 65.6093 117.845 134.498 117.845 130.861C117.845 65.6093 158.037 65.6093 153.668 65.6093Z" fill="#ECE200"/>
<defs>
<filter id="filter0_dd_25_1093" x="377.812" y="113.824" width="157.415" height="198.542" filterUnits="userSpaceOnUse" color-interpolation-filters="sRGB">
<feFlood flood-opacity="0" result="BackgroundImageFix"/>
<feColorMatrix in="SourceAlpha" type="matrix" values="0 0 0 0 0 0 0 0 0 0 0 0 0 0 0 0 0 0 127 0" result="hardAlpha"/>
<feOffset dy="2"/>
<feGaussianBlur stdDeviation="1.5"/>
<feColorMatrix type="matrix" values="0 0 0 0 0 0 0 0 0 0 0 0 0 0 0 0 0 0 0.3 0"/>
<feBlend mode="normal" in2="BackgroundImageFix" result="effect1_dropShadow_25_1093"/>
<feColorMatrix in="SourceAlpha" type="matrix" values="0 0 0 0 0 0 0 0 0 0 0 0 0 0 0 0 0 0 127 0" result="hardAlpha"/>
<feMorphology radius="4" operator="dilate" in="SourceAlpha" result="effect2_dropShadow_25_1093"/>
<feOffset dy="6"/>
<feGaussianBlur stdDeviation="5"/>
<feColorMatrix type="matrix" values="0 0 0 0 0 0 0 0 0 0 0 0 0 0 0 0 0 0 0.15 0"/>
<feBlend mode="normal" in2="effect1_dropShadow_25_1093" result="effect2_dropShadow_25_1093"/>
<feBlend mode="normal" in="SourceGraphic" in2="effect2_dropShadow_25_1093" result="shape"/>
</filter>
<filter id="filter1_d_25_1093" x="119.5" y="109.142" width="453" height="453" filterUnits="userSpaceOnUse" color-interpolation-filters="sRGB">
<feFlood flood-opacity="0" result="BackgroundImageFix"/>
<feColorMatrix in="SourceAlpha" type="matrix" values="0 0 0 0 0 0 0 0 0 0 0 0 0 0 0 0 0 0 127 0" result="hardAlpha"/>
<feOffset dy="4"/>
<feGaussianBlur stdDeviation="2"/>
<feComposite in2="hardAlpha" operator="out"/>
<feColorMatrix type="matrix" values="0 0 0 0 0 0 0 0 0 0 0 0 0 0 0 0 0 0 0.25 0"/>
<feBlend mode="normal" in2="BackgroundImageFix" result="effect1_dropShadow_25_1093"/>
<feBlend mode="normal" in="SourceGraphic" in2="effect1_dropShadow_25_1093" result="shape"/>
</filter>
</defs>
</svg>
