<svg width="837" height="682" viewBox="0 0 837 682" fill="none" xmlns="http://www.w3.org/2000/svg">
<g filter="url(#filter0_dd_25_1039)">
<rect x="517.562" y="170.712" width="71.0439" height="26.8581" rx="13" transform="rotate(145.92 517.562 170.712)" fill="#0C4767"/>
<rect x="479.927" y="149.771" width="49.3842" height="10.3967" transform="rotate(55.92 479.927 149.771)" fill="#0C4767"/>
<rect x="543.566" y="140.307" width="43.0665" height="6.81518" rx="3.40759" transform="rotate(145.92 543.566 140.307)" fill="#0C4767" stroke="#0C4767"/>
<rect x="451.294" y="84.7158" width="70.8949" height="35.7266" rx="8" transform="rotate(55.92 451.294 84.7158)" fill="#0C4767"/>
<rect x="450.084" y="88.9043" width="13.3975" height="13.3975" rx="6" transform="rotate(55.92 450.084 88.9043)" fill="#E1E1E1"/>
<rect x="450.084" y="88.9043" width="13.3975" height="13.3975" rx="6" transform="rotate(55.92 450.084 88.9043)" stroke="#0C4767"/>
<rect x="459.781" y="103.237" width="13.3975" height="13.3975" rx="6" transform="rotate(55.92 459.781 103.237)" fill="#E1E1E1"/>
<rect x="459.781" y="103.237" width="13.3975" height="13.3975" rx="6" transform="rotate(55.92 459.781 103.237)" stroke="#0C4767"/>
<rect x="469.478" y="117.57" width="13.3975" height="13.3975" rx="6" transform="rotate(55.92 469.478 117.57)" fill="#E1E1E1"/>
<rect x="469.478" y="117.57" width="13.3975" height="13.3975" rx="6" transform="rotate(55.92 469.478 117.57)" stroke="#0C4767"/>
<rect x="479.175" y="131.903" width="13.3975" height="13.3975" rx="6" transform="rotate(55.92 479.175 131.903)" fill="#E1E1E1"/>
<rect x="479.175" y="131.903" width="13.3975" height="13.3975" rx="6" transform="rotate(55.92 479.175 131.903)" stroke="#0C4767"/>
<rect x="436.676" y="97.9756" width="13.3975" height="13.3975" rx="6" transform="rotate(55.92 436.676 97.9756)" fill="#E1E1E1"/>
<rect x="436.676" y="97.9756" width="13.3975" height="13.3975" rx="6" transform="rotate(55.92 436.676 97.9756)" stroke="#0C4767"/>
<rect x="446.373" y="112.309" width="13.3975" height="13.3975" rx="6" transform="rotate(55.92 446.373 112.309)" fill="#E1E1E1"/>
<rect x="446.373" y="112.309" width="13.3975" height="13.3975" rx="6" transform="rotate(55.92 446.373 112.309)" stroke="#0C4767"/>
<rect x="456.07" y="126.642" width="13.3975" height="13.3975" rx="6" transform="rotate(55.92 456.07 126.642)" fill="#E1E1E1"/>
<rect x="456.07" y="126.642" width="13.3975" height="13.3975" rx="6" transform="rotate(55.92 456.07 126.642)" stroke="#0C4767"/>
<rect x="465.767" y="140.975" width="13.3975" height="13.3975" rx="6" transform="rotate(55.92 465.767 140.975)" fill="#E1E1E1"/>
<rect x="465.767" y="140.975" width="13.3975" height="13.3975" rx="6" transform="rotate(55.92 465.767 140.975)" stroke="#0C4767"/>
<rect x="517.608" y="182.735" width="70.8949" height="35.7266" rx="8" transform="rotate(55.92 517.608 182.735)" fill="#0C4767"/>
<rect x="516.398" y="186.924" width="13.3975" height="13.3975" rx="6" transform="rotate(55.92 516.398 186.924)" fill="#E1E1E1"/>
<rect x="516.398" y="186.924" width="13.3975" height="13.3975" rx="6" transform="rotate(55.92 516.398 186.924)" stroke="#0C4767"/>
<rect x="526.095" y="201.257" width="13.3975" height="13.3975" rx="6" transform="rotate(55.92 526.095 201.257)" fill="#E1E1E1"/>
<rect x="526.095" y="201.257" width="13.3975" height="13.3975" rx="6" transform="rotate(55.92 526.095 201.257)" stroke="#0C4767"/>
<rect x="535.792" y="215.59" width="13.3975" height="13.3975" rx="6" transform="rotate(55.92 535.792 215.59)" fill="#E1E1E1"/>
<rect x="535.792" y="215.59" width="13.3975" height="13.3975" rx="6" transform="rotate(55.92 535.792 215.59)" stroke="#0C4767"/>
<rect x="545.489" y="229.923" width="13.3975" height="13.3975" rx="6" transform="rotate(55.92 545.489 229.923)" fill="#E1E1E1"/>
<rect x="545.489" y="229.923" width="13.3975" height="13.3975" rx="6" transform="rotate(55.92 545.489 229.923)" stroke="#0C4767"/>
<rect x="502.99" y="195.995" width="13.3975" height="13.3975" rx="6" transform="rotate(55.92 502.99 195.995)" fill="#E1E1E1"/>
<rect x="502.99" y="195.995" width="13.3975" height="13.3975" rx="6" transform="rotate(55.92 502.99 195.995)" stroke="#0C4767"/>
<rect x="512.687" y="210.328" width="13.3975" height="13.3975" rx="6" transform="rotate(55.92 512.687 210.328)" fill="#E1E1E1"/>
<rect x="512.687" y="210.328" width="13.3975" height="13.3975" rx="6" transform="rotate(55.92 512.687 210.328)" stroke="#0C4767"/>
<rect x="522.384" y="224.661" width="13.3975" height="13.3975" rx="6" transform="rotate(55.92 522.384 224.661)" fill="#E1E1E1"/>
<rect x="522.384" y="224.661" width="13.3975" height="13.3975" rx="6" transform="rotate(55.92 522.384 224.661)" stroke="#0C4767"/>
<rect x="532.081" y="238.994" width="13.3975" height="13.3975" rx="6" transform="rotate(55.92 532.081 238.994)" fill="#E1E1E1"/>
<rect x="532.081" y="238.994" width="13.3975" height="13.3975" rx="6" transform="rotate(55.92 532.081 238.994)" stroke="#0C4767"/>
<path fill-rule="evenodd" clip-rule="evenodd" d="M513.718 157.061C520.283 166.764 533.367 169.379 542.943 162.9C545.533 161.148 547.618 159.481 549.269 157.882L526.181 123.757C524.083 124.693 521.76 126.009 519.17 127.761C509.594 134.24 507.153 147.358 513.718 157.061Z" fill="#0C4767"/>
</g>
<g filter="url(#filter1_d_25_1039)">
<circle cx="346" cy="331.164" r="222" stroke="#253E64" stroke-dasharray="10 10" shape-rendering="crispEdges"/>
</g>
<ellipse cx="325" cy="316.164" rx="216" ry="222" fill="#B6D0D9"/>
<mask id="mask0_25_1039" style="mask-type:alpha" maskUnits="userSpaceOnUse" x="27" y="134" width="594" height="532">
<path d="M330.284 493.373C302.784 454.373 313.784 485.373 267.284 500.873C243.284 520.373 267.284 557.373 278.784 571.873C290.284 586.373 355.784 555.373 346.784 542.873C337.784 530.373 357.784 532.373 330.284 493.373Z" fill="#5C835B" fill-opacity="0.59"/>
<path d="M414.316 238.072C447.147 230.316 450.169 231.247 448.217 189.781C432.189 101.626 343.119 143.181 360.867 153.777C378.615 164.372 343.485 202.688 362.566 227.757C381.646 252.826 381.486 245.828 414.316 238.072Z" fill="#5C835B" fill-opacity="0.59"/>
<path d="M252.667 611.692C255.667 574.692 271.167 566.692 226.167 529.692C199.667 514.192 173.667 584.192 190.167 611.692C206.667 639.192 249.667 648.692 252.667 611.692Z" fill="#5C835B" fill-opacity="0.59"/>
<path d="M435.585 601.572C421.085 556.072 416.585 558.072 383.585 555.072C365.585 553.266 352.085 555.072 340.585 567.572C329.085 580.072 326.585 579.072 340.585 601.572C354.585 624.072 357.585 634.072 352.085 651.072C346.585 668.072 389.085 673.572 401.585 651.072C414.085 628.572 450.085 647.072 435.585 601.572Z" fill="#5C835B" fill-opacity="0.59"/>
<path d="M224.539 339.361C180.291 332.489 155.512 329.841 129.195 273.885C112.452 244.92 113.675 246.94 79.2457 264.261C44.8164 281.581 54.3997 363.606 32.7289 419.576C11.058 475.546 60.6786 535.92 89.7109 501.095C118.743 466.269 131.802 496.164 185.313 472.74C238.824 449.316 259.862 458.851 266.29 403.18C272.718 347.51 268.786 346.233 224.539 339.361Z" fill="#5C835B" fill-opacity="0.59"/>
<path d="M262.086 168.354C295.206 155.499 310.569 172.148 350.009 197.998C355.574 220.384 383.948 270.775 322.663 311.1C261.378 351.426 148.328 284.45 166.063 270.798C183.798 257.145 152.93 212.657 146.121 190.58C139.312 168.503 162.493 150.195 197.113 177.903C231.732 205.612 228.967 181.209 262.086 168.354Z" fill="#5C835B" fill-opacity="0.59"/>
<path d="M583.666 426.77C556.538 341.466 548.119 345.216 486.38 339.591C452.705 336.207 427.448 339.591 405.933 363.027C384.418 386.462 379.741 384.587 405.933 426.77C432.125 468.954 437.738 487.702 427.448 519.574C417.158 551.445 496.67 561.757 520.056 519.574C543.442 477.39 610.793 512.074 583.666 426.77Z" fill="#5C835B" fill-opacity="0.59"/>
<path d="M609.691 554.643C624.806 568.597 620.057 580.825 616.649 607.918C606.422 616.51 587.434 644.092 550.862 622.479C514.291 600.867 520.355 525.022 531.969 530.771C543.584 536.521 558.867 509.144 568.617 499.983C578.367 490.823 593.789 498.22 588.188 523.279C582.587 548.337 594.575 540.688 609.691 554.643Z" fill="#5C835B" fill-opacity="0.59"/>
</mask>
<g mask="url(#mask0_25_1039)">
<ellipse cx="323" cy="314.164" rx="211" ry="217" fill="#5C835B"/>
</g>
<circle cx="309" cy="296.164" r="222" stroke="#253E64"/>
<path d="M619.753 524.083C593.128 524.083 593.128 469.7 593.128 474.273C593.128 524.083 563.743 524.083 565.042 524.083C593.128 524.083 593.128 576.67 593.128 573.894C593.128 524.083 623 524.083 619.753 524.083Z" fill="#ECE200"/>
<path d="M153.668 65.6093C117.845 65.6093 117.845 -5.63266 117.845 0.35765C117.845 65.6093 78.3088 65.6093 80.0563 65.6093C117.845 65.6093 117.845 134.498 117.845 130.861C117.845 65.6093 158.037 65.6093 153.668 65.6093Z" fill="#ECE200"/>
<defs>
<filter id="filter0_dd_25_1039" x="410.812" y="79.8242" width="157.415" height="198.542" filterUnits="userSpaceOnUse" color-interpolation-filters="sRGB">
<feFlood flood-opacity="0" result="BackgroundImageFix"/>
<feColorMatrix in="SourceAlpha" type="matrix" values="0 0 0 0 0 0 0 0 0 0 0 0 0 0 0 0 0 0 127 0" result="hardAlpha"/>
<feOffset dy="2"/>
<feGaussianBlur stdDeviation="1.5"/>
<feColorMatrix type="matrix" values="0 0 0 0 0 0 0 0 0 0 0 0 0 0 0 0 0 0 0.3 0"/>
<feBlend mode="normal" in2="BackgroundImageFix" result="effect1_dropShadow_25_1039"/>
<feColorMatrix in="SourceAlpha" type="matrix" values="0 0 0 0 0 0 0 0 0 0 0 0 0 0 0 0 0 0 127 0" result="hardAlpha"/>
<feMorphology radius="4" operator="dilate" in="SourceAlpha" result="effect2_dropShadow_25_1039"/>
<feOffset dy="6"/>
<feGaussianBlur stdDeviation="5"/>
<feColorMatrix type="matrix" values="0 0 0 0 0 0 0 0 0 0 0 0 0 0 0 0 0 0 0.15 0"/>
<feBlend mode="normal" in2="effect1_dropShadow_25_1039" result="effect2_dropShadow_25_1039"/>
<feBlend mode="normal" in="SourceGraphic" in2="effect2_dropShadow_25_1039" result="shape"/>
</filter>
<filter id="filter1_d_25_1039" x="119.5" y="108.664" width="453" height="453" filterUnits="userSpaceOnUse" color-interpolation-filters="sRGB">
<feFlood flood-opacity="0" result="BackgroundImageFix"/>
<feColorMatrix in="SourceAlpha" type="matrix" values="0 0 0 0 0 0 0 0 0 0 0 0 0 0 0 0 0 0 127 0" result="hardAlpha"/>
<feOffset dy="4"/>
<feGaussianBlur stdDeviation="2"/>
<feComposite in2="hardAlpha" operator="out"/>
<feColorMatrix type="matrix" values="0 0 0 0 0 0 0 0 0 0 0 0 0 0 0 0 0 0 0.25 0"/>
<feBlend mode="normal" in2="BackgroundImageFix" result="effect1_dropShadow_25_1039"/>
<feBlend mode="normal" in="SourceGraphic" in2="effect1_dropShadow_25_1039" result="shape"/>
</filter>
</defs>
</svg>
