<svg width="837" height="643" viewBox="0 0 837 643" fill="none" xmlns="http://www.w3.org/2000/svg">
<g filter="url(#filter0_d_25_823)">
<circle cx="346" cy="292.254" r="222" stroke="#253E64" stroke-dasharray="10 10" shape-rendering="crispEdges"/>
</g>
<ellipse cx="325" cy="277.254" rx="216" ry="222" fill="#B6D0D9"/>
<mask id="mask0_25_823" style="mask-type:alpha" maskUnits="userSpaceOnUse" x="-362" y="103" width="594" height="532">
<path d="M25.3164 206.594C58.147 198.839 61.1692 199.769 59.2168 158.303C43.1888 70.148 -45.8807 111.704 -28.1328 122.299C-10.3849 132.894 -45.5145 171.211 -26.434 196.28C-7.35354 221.348 -7.51422 214.35 25.3164 206.594Z" fill="#5C835B" fill-opacity="0.59"/>
<path d="M46.5854 570.094C32.0854 524.594 27.5854 526.594 -5.41464 523.594C-23.4146 521.789 -36.9146 523.594 -48.4146 536.094C-59.9146 548.594 -62.4146 547.594 -48.4146 570.094C-34.4146 592.594 -31.4146 602.594 -36.9146 619.594C-42.4146 636.594 0.0853577 642.094 12.5854 619.594C25.0854 597.094 61.0854 615.594 46.5854 570.094Z" fill="#5C835B" fill-opacity="0.59"/>
<path d="M-126.914 136.876C-93.7943 124.021 -78.4307 140.67 -38.9907 166.52C-33.4255 188.907 -5.05207 239.297 -66.3368 279.623C-127.622 319.948 -240.672 252.973 -222.937 239.32C-205.202 225.667 -236.07 181.179 -242.879 159.102C-249.688 137.025 -226.507 118.717 -191.887 146.426C-157.268 174.135 -160.033 149.732 -126.914 136.876Z" fill="#5C835B" fill-opacity="0.59"/>
<path d="M194.666 395.293C167.538 309.989 159.119 313.738 97.3804 308.114C63.7047 304.729 38.448 308.114 16.933 331.549C-4.58202 354.984 -9.25921 353.109 16.933 395.293C43.1252 437.476 48.7378 456.224 38.448 488.096C28.1582 519.968 107.67 530.279 131.056 488.096C154.442 445.913 221.793 480.597 194.666 395.293Z" fill="#5C835B" fill-opacity="0.59"/>
<path d="M220.691 523.165C235.806 537.119 231.057 549.348 227.649 576.44C217.422 585.032 198.434 612.614 161.862 591.002C125.291 569.389 131.355 493.544 142.969 499.294C154.584 505.043 169.867 477.666 179.617 468.506C189.367 459.346 204.789 466.743 199.188 491.801C193.587 516.86 205.575 509.211 220.691 523.165Z" fill="#5C835B" fill-opacity="0.59"/>
</mask>
<g mask="url(#mask0_25_823)">
<ellipse cx="323" cy="275.254" rx="211" ry="217" fill="#5C835B"/>
</g>
<mask id="mask1_25_823" style="mask-type:alpha" maskUnits="userSpaceOnUse" x="342" y="102" width="594" height="532">
<path d="M645.284 460.895C617.784 421.895 628.784 452.895 582.284 468.395C558.284 487.895 582.284 524.895 593.784 539.395C605.284 553.895 670.784 522.895 661.784 510.395C652.784 497.895 672.784 499.895 645.284 460.895Z" fill="#5C835B" fill-opacity="0.59"/>
<path d="M729.316 205.594C762.147 197.839 765.169 198.769 763.217 157.303C747.189 69.148 658.119 110.704 675.867 121.299C693.615 131.894 658.485 170.211 677.566 195.28C696.646 220.348 696.486 213.35 729.316 205.594Z" fill="#5C835B" fill-opacity="0.59"/>
<path d="M567.667 579.214C570.667 542.214 586.167 534.214 541.167 497.214C514.667 481.714 488.667 551.714 505.167 579.214C521.667 606.714 564.667 616.214 567.667 579.214Z" fill="#5C835B" fill-opacity="0.59"/>
<path d="M750.585 569.094C736.085 523.594 731.585 525.594 698.585 522.594C680.585 520.789 667.085 522.594 655.585 535.094C644.085 547.594 641.585 546.594 655.585 569.094C669.585 591.594 672.585 601.594 667.085 618.594C661.585 635.594 704.085 641.094 716.585 618.594C729.085 596.094 765.085 614.594 750.585 569.094Z" fill="#5C835B" fill-opacity="0.59"/>
<path d="M539.539 306.883C495.291 300.011 470.512 297.363 444.195 241.407C427.452 212.443 428.675 214.463 394.246 231.783C359.816 249.104 369.4 331.128 347.729 387.098C326.058 443.068 375.679 503.443 404.711 468.617C433.743 433.791 446.802 463.687 500.313 440.263C553.824 416.839 574.862 426.373 581.29 370.703C587.718 315.032 583.786 313.755 539.539 306.883Z" fill="#5C835B" fill-opacity="0.59"/>
<path d="M577.086 135.876C610.206 123.021 625.569 139.67 665.009 165.52C670.574 187.907 698.948 238.297 637.663 278.623C576.378 318.948 463.328 251.973 481.063 238.32C498.798 224.667 467.93 180.179 461.121 158.102C454.312 136.025 477.493 117.717 512.113 145.426C546.732 173.135 543.967 148.732 577.086 135.876Z" fill="#5C835B" fill-opacity="0.59"/>
<path d="M898.666 394.293C871.538 308.989 863.119 312.738 801.38 307.114C767.705 303.729 742.448 307.114 720.933 330.549C699.418 353.984 694.741 352.109 720.933 394.293C747.125 436.476 752.738 455.224 742.448 487.096C732.158 518.968 811.67 529.279 835.056 487.096C858.442 444.913 925.793 479.597 898.666 394.293Z" fill="#5C835B" fill-opacity="0.59"/>
<path d="M924.691 522.165C939.806 536.119 935.057 548.348 931.649 575.44C921.422 584.032 902.434 611.614 865.862 590.002C829.291 568.389 835.355 492.544 846.969 498.294C858.584 504.043 873.867 476.666 883.617 467.506C893.367 458.346 908.789 465.743 903.188 490.801C897.587 515.86 909.575 508.211 924.691 522.165Z" fill="#5C835B" fill-opacity="0.59"/>
</mask>
<g mask="url(#mask1_25_823)">
<ellipse cx="323" cy="275.254" rx="211" ry="217" fill="#5C835B"/>
</g>
<circle cx="309" cy="257.254" r="222" stroke="#253E64"/>
<g filter="url(#filter1_dd_25_823)">
<rect x="553.562" y="109.712" width="71.0439" height="26.8581" rx="13" transform="rotate(145.92 553.562 109.712)" fill="#0C4767"/>
<rect x="515.927" y="88.772" width="49.3842" height="10.3967" transform="rotate(55.92 515.927 88.772)" fill="#0C4767"/>
<rect x="579.566" y="79.307" width="43.0665" height="6.81518" rx="3.40759" transform="rotate(145.92 579.566 79.307)" fill="#0C4767" stroke="#0C4767"/>
<rect x="487.294" y="23.7163" width="70.8949" height="35.7266" rx="8" transform="rotate(55.92 487.294 23.7163)" fill="#0C4767"/>
<rect x="486.084" y="27.9048" width="13.3975" height="13.3975" rx="6" transform="rotate(55.92 486.084 27.9048)" fill="#E1E1E1"/>
<rect x="486.084" y="27.9048" width="13.3975" height="13.3975" rx="6" transform="rotate(55.92 486.084 27.9048)" stroke="#0C4767"/>
<rect x="495.781" y="42.2378" width="13.3975" height="13.3975" rx="6" transform="rotate(55.92 495.781 42.2378)" fill="#E1E1E1"/>
<rect x="495.781" y="42.2378" width="13.3975" height="13.3975" rx="6" transform="rotate(55.92 495.781 42.2378)" stroke="#0C4767"/>
<rect x="505.478" y="56.5708" width="13.3975" height="13.3975" rx="6" transform="rotate(55.92 505.478 56.5708)" fill="#E1E1E1"/>
<rect x="505.478" y="56.5708" width="13.3975" height="13.3975" rx="6" transform="rotate(55.92 505.478 56.5708)" stroke="#0C4767"/>
<rect x="515.175" y="70.9038" width="13.3975" height="13.3975" rx="6" transform="rotate(55.92 515.175 70.9038)" fill="#E1E1E1"/>
<rect x="515.175" y="70.9038" width="13.3975" height="13.3975" rx="6" transform="rotate(55.92 515.175 70.9038)" stroke="#0C4767"/>
<rect x="472.676" y="36.9761" width="13.3975" height="13.3975" rx="6" transform="rotate(55.92 472.676 36.9761)" fill="#E1E1E1"/>
<rect x="472.676" y="36.9761" width="13.3975" height="13.3975" rx="6" transform="rotate(55.92 472.676 36.9761)" stroke="#0C4767"/>
<rect x="482.373" y="51.3091" width="13.3975" height="13.3975" rx="6" transform="rotate(55.92 482.373 51.3091)" fill="#E1E1E1"/>
<rect x="482.373" y="51.3091" width="13.3975" height="13.3975" rx="6" transform="rotate(55.92 482.373 51.3091)" stroke="#0C4767"/>
<rect x="492.07" y="65.6421" width="13.3975" height="13.3975" rx="6" transform="rotate(55.92 492.07 65.6421)" fill="#E1E1E1"/>
<rect x="492.07" y="65.6421" width="13.3975" height="13.3975" rx="6" transform="rotate(55.92 492.07 65.6421)" stroke="#0C4767"/>
<rect x="501.767" y="79.9751" width="13.3975" height="13.3975" rx="6" transform="rotate(55.92 501.767 79.9751)" fill="#E1E1E1"/>
<rect x="501.767" y="79.9751" width="13.3975" height="13.3975" rx="6" transform="rotate(55.92 501.767 79.9751)" stroke="#0C4767"/>
<rect x="553.608" y="121.735" width="70.8949" height="35.7266" rx="8" transform="rotate(55.92 553.608 121.735)" fill="#0C4767"/>
<rect x="552.398" y="125.924" width="13.3975" height="13.3975" rx="6" transform="rotate(55.92 552.398 125.924)" fill="#E1E1E1"/>
<rect x="552.398" y="125.924" width="13.3975" height="13.3975" rx="6" transform="rotate(55.92 552.398 125.924)" stroke="#0C4767"/>
<rect x="562.095" y="140.257" width="13.3975" height="13.3975" rx="6" transform="rotate(55.92 562.095 140.257)" fill="#E1E1E1"/>
<rect x="562.095" y="140.257" width="13.3975" height="13.3975" rx="6" transform="rotate(55.92 562.095 140.257)" stroke="#0C4767"/>
<rect x="571.792" y="154.59" width="13.3975" height="13.3975" rx="6" transform="rotate(55.92 571.792 154.59)" fill="#E1E1E1"/>
<rect x="571.792" y="154.59" width="13.3975" height="13.3975" rx="6" transform="rotate(55.92 571.792 154.59)" stroke="#0C4767"/>
<rect x="581.489" y="168.923" width="13.3975" height="13.3975" rx="6" transform="rotate(55.92 581.489 168.923)" fill="#E1E1E1"/>
<rect x="581.489" y="168.923" width="13.3975" height="13.3975" rx="6" transform="rotate(55.92 581.489 168.923)" stroke="#0C4767"/>
<rect x="538.99" y="134.995" width="13.3975" height="13.3975" rx="6" transform="rotate(55.92 538.99 134.995)" fill="#E1E1E1"/>
<rect x="538.99" y="134.995" width="13.3975" height="13.3975" rx="6" transform="rotate(55.92 538.99 134.995)" stroke="#0C4767"/>
<rect x="548.687" y="149.328" width="13.3975" height="13.3975" rx="6" transform="rotate(55.92 548.687 149.328)" fill="#E1E1E1"/>
<rect x="548.687" y="149.328" width="13.3975" height="13.3975" rx="6" transform="rotate(55.92 548.687 149.328)" stroke="#0C4767"/>
<rect x="558.384" y="163.661" width="13.3975" height="13.3975" rx="6" transform="rotate(55.92 558.384 163.661)" fill="#E1E1E1"/>
<rect x="558.384" y="163.661" width="13.3975" height="13.3975" rx="6" transform="rotate(55.92 558.384 163.661)" stroke="#0C4767"/>
<rect x="568.081" y="177.994" width="13.3975" height="13.3975" rx="6" transform="rotate(55.92 568.081 177.994)" fill="#E1E1E1"/>
<rect x="568.081" y="177.994" width="13.3975" height="13.3975" rx="6" transform="rotate(55.92 568.081 177.994)" stroke="#0C4767"/>
<path fill-rule="evenodd" clip-rule="evenodd" d="M549.718 96.0605C556.283 105.764 569.367 108.378 578.943 101.9C581.533 100.147 583.618 98.4807 585.269 96.8815L562.181 62.756C560.083 63.693 557.76 65.0082 555.17 66.7609C545.594 73.2392 543.153 86.3571 549.718 96.0605Z" fill="#0C4767"/>
</g>
<path d="M601.915 487.028C592.717 487.028 592.717 468.538 592.717 470.093C592.717 487.028 582.566 487.028 583.014 487.028C592.717 487.028 592.717 504.908 592.717 503.964C592.717 487.028 603.036 487.028 601.915 487.028Z" fill="#ECE200"/>
<path d="M132.856 28.5476C117.365 28.5476 117.365 -2.45085 117.365 0.155619C117.365 28.5476 100.269 28.5476 101.024 28.5476C117.365 28.5476 117.365 58.522 117.365 56.9395C117.365 28.5476 134.746 28.5476 132.856 28.5476Z" fill="#ECE200"/>
<defs>
<filter id="filter0_d_25_823" x="119.5" y="69.7544" width="453" height="453" filterUnits="userSpaceOnUse" color-interpolation-filters="sRGB">
<feFlood flood-opacity="0" result="BackgroundImageFix"/>
<feColorMatrix in="SourceAlpha" type="matrix" values="0 0 0 0 0 0 0 0 0 0 0 0 0 0 0 0 0 0 127 0" result="hardAlpha"/>
<feOffset dy="4"/>
<feGaussianBlur stdDeviation="2"/>
<feComposite in2="hardAlpha" operator="out"/>
<feColorMatrix type="matrix" values="0 0 0 0 0 0 0 0 0 0 0 0 0 0 0 0 0 0 0.25 0"/>
<feBlend mode="normal" in2="BackgroundImageFix" result="effect1_dropShadow_25_823"/>
<feBlend mode="normal" in="SourceGraphic" in2="effect1_dropShadow_25_823" result="shape"/>
</filter>
<filter id="filter1_dd_25_823" x="446.812" y="18.8242" width="157.415" height="198.542" filterUnits="userSpaceOnUse" color-interpolation-filters="sRGB">
<feFlood flood-opacity="0" result="BackgroundImageFix"/>
<feColorMatrix in="SourceAlpha" type="matrix" values="0 0 0 0 0 0 0 0 0 0 0 0 0 0 0 0 0 0 127 0" result="hardAlpha"/>
<feOffset dy="2"/>
<feGaussianBlur stdDeviation="1.5"/>
<feColorMatrix type="matrix" values="0 0 0 0 0 0 0 0 0 0 0 0 0 0 0 0 0 0 0.3 0"/>
<feBlend mode="normal" in2="BackgroundImageFix" result="effect1_dropShadow_25_823"/>
<feColorMatrix in="SourceAlpha" type="matrix" values="0 0 0 0 0 0 0 0 0 0 0 0 0 0 0 0 0 0 127 0" result="hardAlpha"/>
<feMorphology radius="4" operator="dilate" in="SourceAlpha" result="effect2_dropShadow_25_823"/>
<feOffset dy="6"/>
<feGaussianBlur stdDeviation="5"/>
<feColorMatrix type="matrix" values="0 0 0 0 0 0 0 0 0 0 0 0 0 0 0 0 0 0 0.15 0"/>
<feBlend mode="normal" in2="effect1_dropShadow_25_823" result="effect2_dropShadow_25_823"/>
<feBlend mode="normal" in="SourceGraphic" in2="effect2_dropShadow_25_823" result="shape"/>
</filter>
</defs>
</svg>
