<svg width="837" height="644" viewBox="0 0 837 644" fill="none" xmlns="http://www.w3.org/2000/svg">
<g filter="url(#filter0_d_25_769)">
<circle cx="346" cy="292.777" r="222" stroke="#253E64" stroke-dasharray="10 10" shape-rendering="crispEdges"/>
</g>
<ellipse cx="325" cy="277.777" rx="216" ry="222" fill="#B6D0D9"/>
<mask id="mask0_25_769" style="mask-type:alpha" maskUnits="userSpaceOnUse" x="-300" y="99" width="594" height="532">
<path d="M3.28427 457.895C-24.2157 418.895 -13.2157 449.895 -59.7157 465.395C-83.7157 484.895 -59.7157 521.895 -48.2157 536.395C-36.7157 550.895 28.7843 519.895 19.7843 507.395C10.7843 494.895 30.7843 496.895 3.28427 457.895Z" fill="#5C835B" fill-opacity="0.59"/>
<path d="M87.3164 202.594C120.147 194.839 123.169 195.769 121.217 154.303C105.189 66.148 16.1193 107.704 33.8672 118.299C51.6151 128.894 16.4855 167.211 35.566 192.28C54.6465 217.348 54.4858 210.35 87.3164 202.594Z" fill="#5C835B" fill-opacity="0.59"/>
<path d="M108.585 566.094C94.0854 520.594 89.5854 522.594 56.5854 519.594C38.5854 517.789 25.0854 519.594 13.5854 532.094C2.08537 544.594 -0.414635 543.594 13.5854 566.094C27.5854 588.594 30.5854 598.594 25.0854 615.594C19.5854 632.594 62.0854 638.094 74.5854 615.594C87.0854 593.094 123.085 611.594 108.585 566.094Z" fill="#5C835B" fill-opacity="0.59"/>
<path d="M-64.9136 132.876C-31.7943 120.021 -16.4307 136.67 23.0093 162.52C28.5745 184.907 56.9479 235.297 -4.33683 275.623C-65.6216 315.948 -178.672 248.973 -160.937 235.32C-143.202 221.667 -174.07 177.179 -180.879 155.102C-187.688 133.025 -164.507 114.717 -129.887 142.426C-95.2677 170.135 -98.0328 145.732 -64.9136 132.876Z" fill="#5C835B" fill-opacity="0.59"/>
<path d="M256.666 391.293C229.538 305.989 221.119 309.738 159.38 304.114C125.705 300.729 100.448 304.114 78.933 327.549C57.418 350.984 52.7408 349.109 78.933 391.293C105.125 433.476 110.738 452.224 100.448 484.096C90.1582 515.968 169.67 526.279 193.056 484.096C216.442 441.913 283.793 476.597 256.666 391.293Z" fill="#5C835B" fill-opacity="0.59"/>
<path d="M282.691 519.165C297.806 533.119 293.057 545.348 289.649 572.44C279.422 581.032 260.434 608.614 223.862 587.002C187.291 565.389 193.355 489.544 204.969 495.294C216.584 501.043 231.867 473.666 241.617 464.506C251.367 455.346 266.789 462.743 261.188 487.801C255.587 512.86 267.575 505.211 282.691 519.165Z" fill="#5C835B" fill-opacity="0.59"/>
</mask>
<g mask="url(#mask0_25_769)">
<ellipse cx="323" cy="275.776" rx="211" ry="217" fill="#5C835B"/>
</g>
<mask id="mask1_25_769" style="mask-type:alpha" maskUnits="userSpaceOnUse" x="425" y="116" width="594" height="532">
<path d="M728.284 474.895C700.784 435.895 711.784 466.895 665.284 482.395C641.284 501.895 665.284 538.895 676.784 553.395C688.284 567.895 753.784 536.895 744.784 524.395C735.784 511.895 755.784 513.895 728.284 474.895Z" fill="#5C835B" fill-opacity="0.59"/>
<path d="M812.316 219.594C845.147 211.839 848.169 212.769 846.217 171.303C830.189 83.148 741.119 124.704 758.867 135.299C776.615 145.894 741.485 184.211 760.566 209.28C779.646 234.348 779.486 227.35 812.316 219.594Z" fill="#5C835B" fill-opacity="0.59"/>
<path d="M650.667 593.214C653.667 556.214 669.167 548.214 624.167 511.214C597.667 495.714 571.667 565.714 588.167 593.214C604.667 620.714 647.667 630.214 650.667 593.214Z" fill="#5C835B" fill-opacity="0.59"/>
<path d="M833.585 583.094C819.085 537.594 814.585 539.594 781.585 536.594C763.585 534.789 750.085 536.594 738.585 549.094C727.085 561.594 724.585 560.594 738.585 583.094C752.585 605.594 755.585 615.594 750.085 632.594C744.585 649.594 787.085 655.094 799.585 632.594C812.085 610.094 848.085 628.594 833.585 583.094Z" fill="#5C835B" fill-opacity="0.59"/>
<path d="M622.539 320.883C578.291 314.011 553.512 311.363 527.195 255.407C510.452 226.443 511.675 228.463 477.246 245.783C442.816 263.104 452.4 345.128 430.729 401.098C409.058 457.068 458.679 517.443 487.711 482.617C516.743 447.791 529.802 477.687 583.313 454.263C636.824 430.839 657.862 440.373 664.29 384.703C670.718 329.032 666.786 327.755 622.539 320.883Z" fill="#5C835B" fill-opacity="0.59"/>
<path d="M660.086 149.876C693.206 137.021 708.569 153.67 748.009 179.52C753.574 201.907 781.948 252.297 720.663 292.623C659.378 332.948 546.328 265.973 564.063 252.32C581.798 238.667 550.93 194.179 544.121 172.102C537.312 150.025 560.493 131.717 595.113 159.426C629.732 187.135 626.967 162.732 660.086 149.876Z" fill="#5C835B" fill-opacity="0.59"/>
<path d="M981.666 408.293C954.538 322.989 946.119 326.738 884.38 321.114C850.705 317.729 825.448 321.114 803.933 344.549C782.418 367.984 777.741 366.109 803.933 408.293C830.125 450.476 835.738 469.224 825.448 501.096C815.158 532.968 894.67 543.279 918.056 501.096C941.442 458.913 1008.79 493.597 981.666 408.293Z" fill="#5C835B" fill-opacity="0.59"/>
</mask>
<g mask="url(#mask1_25_769)">
<ellipse cx="323" cy="275.776" rx="211" ry="217" fill="#5C835B"/>
</g>
<circle cx="309" cy="257.777" r="222" stroke="#253E64"/>
<g filter="url(#filter1_dd_25_769)">
<rect x="497.562" y="147.189" width="71.0439" height="26.8581" rx="13" transform="rotate(145.92 497.562 147.189)" fill="#0C4767"/>
<rect x="459.927" y="126.25" width="49.3842" height="10.3967" transform="rotate(55.92 459.927 126.25)" fill="#0C4767"/>
<rect x="523.566" y="116.785" width="43.0665" height="6.81518" rx="3.40759" transform="rotate(145.92 523.566 116.785)" fill="#0C4767" stroke="#0C4767"/>
<rect x="431.294" y="61.1938" width="70.8949" height="35.7266" rx="8" transform="rotate(55.92 431.294 61.1938)" fill="#0C4767"/>
<rect x="430.084" y="65.3823" width="13.3975" height="13.3975" rx="6" transform="rotate(55.92 430.084 65.3823)" fill="#E1E1E1"/>
<rect x="430.084" y="65.3823" width="13.3975" height="13.3975" rx="6" transform="rotate(55.92 430.084 65.3823)" stroke="#0C4767"/>
<rect x="439.781" y="79.7153" width="13.3975" height="13.3975" rx="6" transform="rotate(55.92 439.781 79.7153)" fill="#E1E1E1"/>
<rect x="439.781" y="79.7153" width="13.3975" height="13.3975" rx="6" transform="rotate(55.92 439.781 79.7153)" stroke="#0C4767"/>
<rect x="449.478" y="94.0483" width="13.3975" height="13.3975" rx="6" transform="rotate(55.92 449.478 94.0483)" fill="#E1E1E1"/>
<rect x="449.478" y="94.0483" width="13.3975" height="13.3975" rx="6" transform="rotate(55.92 449.478 94.0483)" stroke="#0C4767"/>
<rect x="459.175" y="108.381" width="13.3975" height="13.3975" rx="6" transform="rotate(55.92 459.175 108.381)" fill="#E1E1E1"/>
<rect x="459.175" y="108.381" width="13.3975" height="13.3975" rx="6" transform="rotate(55.92 459.175 108.381)" stroke="#0C4767"/>
<rect x="416.676" y="74.4536" width="13.3975" height="13.3975" rx="6" transform="rotate(55.92 416.676 74.4536)" fill="#E1E1E1"/>
<rect x="416.676" y="74.4536" width="13.3975" height="13.3975" rx="6" transform="rotate(55.92 416.676 74.4536)" stroke="#0C4767"/>
<rect x="426.373" y="88.7866" width="13.3975" height="13.3975" rx="6" transform="rotate(55.92 426.373 88.7866)" fill="#E1E1E1"/>
<rect x="426.373" y="88.7866" width="13.3975" height="13.3975" rx="6" transform="rotate(55.92 426.373 88.7866)" stroke="#0C4767"/>
<rect x="436.07" y="103.12" width="13.3975" height="13.3975" rx="6" transform="rotate(55.92 436.07 103.12)" fill="#E1E1E1"/>
<rect x="436.07" y="103.12" width="13.3975" height="13.3975" rx="6" transform="rotate(55.92 436.07 103.12)" stroke="#0C4767"/>
<rect x="445.767" y="117.453" width="13.3975" height="13.3975" rx="6" transform="rotate(55.92 445.767 117.453)" fill="#E1E1E1"/>
<rect x="445.767" y="117.453" width="13.3975" height="13.3975" rx="6" transform="rotate(55.92 445.767 117.453)" stroke="#0C4767"/>
<rect x="497.608" y="159.213" width="70.8949" height="35.7266" rx="8" transform="rotate(55.92 497.608 159.213)" fill="#0C4767"/>
<rect x="496.398" y="163.401" width="13.3975" height="13.3975" rx="6" transform="rotate(55.92 496.398 163.401)" fill="#E1E1E1"/>
<rect x="496.398" y="163.401" width="13.3975" height="13.3975" rx="6" transform="rotate(55.92 496.398 163.401)" stroke="#0C4767"/>
<rect x="506.095" y="177.734" width="13.3975" height="13.3975" rx="6" transform="rotate(55.92 506.095 177.734)" fill="#E1E1E1"/>
<rect x="506.095" y="177.734" width="13.3975" height="13.3975" rx="6" transform="rotate(55.92 506.095 177.734)" stroke="#0C4767"/>
<rect x="515.792" y="192.067" width="13.3975" height="13.3975" rx="6" transform="rotate(55.92 515.792 192.067)" fill="#E1E1E1"/>
<rect x="515.792" y="192.067" width="13.3975" height="13.3975" rx="6" transform="rotate(55.92 515.792 192.067)" stroke="#0C4767"/>
<rect x="525.489" y="206.4" width="13.3975" height="13.3975" rx="6" transform="rotate(55.92 525.489 206.4)" fill="#E1E1E1"/>
<rect x="525.489" y="206.4" width="13.3975" height="13.3975" rx="6" transform="rotate(55.92 525.489 206.4)" stroke="#0C4767"/>
<rect x="482.99" y="172.473" width="13.3975" height="13.3975" rx="6" transform="rotate(55.92 482.99 172.473)" fill="#E1E1E1"/>
<rect x="482.99" y="172.473" width="13.3975" height="13.3975" rx="6" transform="rotate(55.92 482.99 172.473)" stroke="#0C4767"/>
<rect x="492.687" y="186.806" width="13.3975" height="13.3975" rx="6" transform="rotate(55.92 492.687 186.806)" fill="#E1E1E1"/>
<rect x="492.687" y="186.806" width="13.3975" height="13.3975" rx="6" transform="rotate(55.92 492.687 186.806)" stroke="#0C4767"/>
<rect x="502.384" y="201.139" width="13.3975" height="13.3975" rx="6" transform="rotate(55.92 502.384 201.139)" fill="#E1E1E1"/>
<rect x="502.384" y="201.139" width="13.3975" height="13.3975" rx="6" transform="rotate(55.92 502.384 201.139)" stroke="#0C4767"/>
<rect x="512.081" y="215.472" width="13.3975" height="13.3975" rx="6" transform="rotate(55.92 512.081 215.472)" fill="#E1E1E1"/>
<rect x="512.081" y="215.472" width="13.3975" height="13.3975" rx="6" transform="rotate(55.92 512.081 215.472)" stroke="#0C4767"/>
<path fill-rule="evenodd" clip-rule="evenodd" d="M493.718 133.538C500.283 143.241 513.367 145.856 522.943 139.377C525.533 137.625 527.618 135.958 529.269 134.359L506.181 100.234C504.083 101.171 501.76 102.486 499.17 104.238C489.594 110.717 487.153 123.835 493.718 133.538Z" fill="#0C4767"/>
</g>
<path d="M601.915 487.028C592.717 487.028 592.717 468.538 592.717 470.093C592.717 487.028 582.566 487.028 583.014 487.028C592.717 487.028 592.717 504.908 592.717 503.964C592.717 487.028 603.036 487.028 601.915 487.028Z" fill="#ECE200"/>
<path d="M132.856 28.5476C117.365 28.5476 117.365 -2.45085 117.365 0.155619C117.365 28.5476 100.269 28.5476 101.024 28.5476C117.365 28.5476 117.365 58.522 117.365 56.9395C117.365 28.5476 134.746 28.5476 132.856 28.5476Z" fill="#ECE200"/>
<defs>
<filter id="filter0_d_25_769" x="119.5" y="70.2769" width="453" height="453" filterUnits="userSpaceOnUse" color-interpolation-filters="sRGB">
<feFlood flood-opacity="0" result="BackgroundImageFix"/>
<feColorMatrix in="SourceAlpha" type="matrix" values="0 0 0 0 0 0 0 0 0 0 0 0 0 0 0 0 0 0 127 0" result="hardAlpha"/>
<feOffset dy="4"/>
<feGaussianBlur stdDeviation="2"/>
<feComposite in2="hardAlpha" operator="out"/>
<feColorMatrix type="matrix" values="0 0 0 0 0 0 0 0 0 0 0 0 0 0 0 0 0 0 0.25 0"/>
<feBlend mode="normal" in2="BackgroundImageFix" result="effect1_dropShadow_25_769"/>
<feBlend mode="normal" in="SourceGraphic" in2="effect1_dropShadow_25_769" result="shape"/>
</filter>
<filter id="filter1_dd_25_769" x="390.812" y="56.3018" width="157.415" height="198.542" filterUnits="userSpaceOnUse" color-interpolation-filters="sRGB">
<feFlood flood-opacity="0" result="BackgroundImageFix"/>
<feColorMatrix in="SourceAlpha" type="matrix" values="0 0 0 0 0 0 0 0 0 0 0 0 0 0 0 0 0 0 127 0" result="hardAlpha"/>
<feOffset dy="2"/>
<feGaussianBlur stdDeviation="1.5"/>
<feColorMatrix type="matrix" values="0 0 0 0 0 0 0 0 0 0 0 0 0 0 0 0 0 0 0.3 0"/>
<feBlend mode="normal" in2="BackgroundImageFix" result="effect1_dropShadow_25_769"/>
<feColorMatrix in="SourceAlpha" type="matrix" values="0 0 0 0 0 0 0 0 0 0 0 0 0 0 0 0 0 0 127 0" result="hardAlpha"/>
<feMorphology radius="4" operator="dilate" in="SourceAlpha" result="effect2_dropShadow_25_769"/>
<feOffset dy="6"/>
<feGaussianBlur stdDeviation="5"/>
<feColorMatrix type="matrix" values="0 0 0 0 0 0 0 0 0 0 0 0 0 0 0 0 0 0 0.15 0"/>
<feBlend mode="normal" in2="effect1_dropShadow_25_769" result="effect2_dropShadow_25_769"/>
<feBlend mode="normal" in="SourceGraphic" in2="effect2_dropShadow_25_769" result="shape"/>
</filter>
</defs>
</svg>
