<svg width="837" height="659" viewBox="0 0 837 659" fill="none" xmlns="http://www.w3.org/2000/svg">
<g filter="url(#filter0_dd_25_985)">
<rect x="541.562" y="127.712" width="71.0439" height="26.8581" rx="13" transform="rotate(145.92 541.562 127.712)" fill="#0C4767"/>
<rect x="503.927" y="106.771" width="49.3842" height="10.3967" transform="rotate(55.92 503.927 106.771)" fill="#0C4767"/>
<rect x="567.566" y="97.3075" width="43.0665" height="6.81518" rx="3.40759" transform="rotate(145.92 567.566 97.3075)" fill="#0C4767" stroke="#0C4767"/>
<rect x="475.294" y="41.7158" width="70.8949" height="35.7266" rx="8" transform="rotate(55.92 475.294 41.7158)" fill="#0C4767"/>
<rect x="474.084" y="45.9043" width="13.3975" height="13.3975" rx="6" transform="rotate(55.92 474.084 45.9043)" fill="#E1E1E1"/>
<rect x="474.084" y="45.9043" width="13.3975" height="13.3975" rx="6" transform="rotate(55.92 474.084 45.9043)" stroke="#0C4767"/>
<rect x="483.781" y="60.2373" width="13.3975" height="13.3975" rx="6" transform="rotate(55.92 483.781 60.2373)" fill="#E1E1E1"/>
<rect x="483.781" y="60.2373" width="13.3975" height="13.3975" rx="6" transform="rotate(55.92 483.781 60.2373)" stroke="#0C4767"/>
<rect x="493.478" y="74.5703" width="13.3975" height="13.3975" rx="6" transform="rotate(55.92 493.478 74.5703)" fill="#E1E1E1"/>
<rect x="493.478" y="74.5703" width="13.3975" height="13.3975" rx="6" transform="rotate(55.92 493.478 74.5703)" stroke="#0C4767"/>
<rect x="503.175" y="88.9033" width="13.3975" height="13.3975" rx="6" transform="rotate(55.92 503.175 88.9033)" fill="#E1E1E1"/>
<rect x="503.175" y="88.9033" width="13.3975" height="13.3975" rx="6" transform="rotate(55.92 503.175 88.9033)" stroke="#0C4767"/>
<rect x="460.676" y="54.9756" width="13.3975" height="13.3975" rx="6" transform="rotate(55.92 460.676 54.9756)" fill="#E1E1E1"/>
<rect x="460.676" y="54.9756" width="13.3975" height="13.3975" rx="6" transform="rotate(55.92 460.676 54.9756)" stroke="#0C4767"/>
<rect x="470.373" y="69.3086" width="13.3975" height="13.3975" rx="6" transform="rotate(55.92 470.373 69.3086)" fill="#E1E1E1"/>
<rect x="470.373" y="69.3086" width="13.3975" height="13.3975" rx="6" transform="rotate(55.92 470.373 69.3086)" stroke="#0C4767"/>
<rect x="480.07" y="83.6416" width="13.3975" height="13.3975" rx="6" transform="rotate(55.92 480.07 83.6416)" fill="#E1E1E1"/>
<rect x="480.07" y="83.6416" width="13.3975" height="13.3975" rx="6" transform="rotate(55.92 480.07 83.6416)" stroke="#0C4767"/>
<rect x="489.767" y="97.9746" width="13.3975" height="13.3975" rx="6" transform="rotate(55.92 489.767 97.9746)" fill="#E1E1E1"/>
<rect x="489.767" y="97.9746" width="13.3975" height="13.3975" rx="6" transform="rotate(55.92 489.767 97.9746)" stroke="#0C4767"/>
<rect x="541.608" y="139.735" width="70.8949" height="35.7266" rx="8" transform="rotate(55.92 541.608 139.735)" fill="#0C4767"/>
<rect x="540.398" y="143.924" width="13.3975" height="13.3975" rx="6" transform="rotate(55.92 540.398 143.924)" fill="#E1E1E1"/>
<rect x="540.398" y="143.924" width="13.3975" height="13.3975" rx="6" transform="rotate(55.92 540.398 143.924)" stroke="#0C4767"/>
<rect x="550.095" y="158.257" width="13.3975" height="13.3975" rx="6" transform="rotate(55.92 550.095 158.257)" fill="#E1E1E1"/>
<rect x="550.095" y="158.257" width="13.3975" height="13.3975" rx="6" transform="rotate(55.92 550.095 158.257)" stroke="#0C4767"/>
<rect x="559.792" y="172.59" width="13.3975" height="13.3975" rx="6" transform="rotate(55.92 559.792 172.59)" fill="#E1E1E1"/>
<rect x="559.792" y="172.59" width="13.3975" height="13.3975" rx="6" transform="rotate(55.92 559.792 172.59)" stroke="#0C4767"/>
<rect x="569.489" y="186.923" width="13.3975" height="13.3975" rx="6" transform="rotate(55.92 569.489 186.923)" fill="#E1E1E1"/>
<rect x="569.489" y="186.923" width="13.3975" height="13.3975" rx="6" transform="rotate(55.92 569.489 186.923)" stroke="#0C4767"/>
<rect x="526.99" y="152.995" width="13.3975" height="13.3975" rx="6" transform="rotate(55.92 526.99 152.995)" fill="#E1E1E1"/>
<rect x="526.99" y="152.995" width="13.3975" height="13.3975" rx="6" transform="rotate(55.92 526.99 152.995)" stroke="#0C4767"/>
<rect x="536.687" y="167.328" width="13.3975" height="13.3975" rx="6" transform="rotate(55.92 536.687 167.328)" fill="#E1E1E1"/>
<rect x="536.687" y="167.328" width="13.3975" height="13.3975" rx="6" transform="rotate(55.92 536.687 167.328)" stroke="#0C4767"/>
<rect x="546.384" y="181.661" width="13.3975" height="13.3975" rx="6" transform="rotate(55.92 546.384 181.661)" fill="#E1E1E1"/>
<rect x="546.384" y="181.661" width="13.3975" height="13.3975" rx="6" transform="rotate(55.92 546.384 181.661)" stroke="#0C4767"/>
<rect x="556.081" y="195.994" width="13.3975" height="13.3975" rx="6" transform="rotate(55.92 556.081 195.994)" fill="#E1E1E1"/>
<rect x="556.081" y="195.994" width="13.3975" height="13.3975" rx="6" transform="rotate(55.92 556.081 195.994)" stroke="#0C4767"/>
<path fill-rule="evenodd" clip-rule="evenodd" d="M537.718 114.061C544.283 123.764 557.367 126.379 566.943 119.9C569.533 118.148 571.618 116.481 573.269 114.882L550.181 80.7565C548.083 81.6935 545.76 83.0087 543.17 84.7614C533.594 91.2397 531.153 104.358 537.718 114.061Z" fill="#0C4767"/>
</g>
<g filter="url(#filter1_d_25_985)">
<circle cx="346" cy="307.687" r="222" stroke="#253E64" stroke-dasharray="10 10" shape-rendering="crispEdges"/>
</g>
<ellipse cx="325" cy="292.687" rx="216" ry="222" fill="#B6D0D9"/>
<mask id="mask0_25_985" style="mask-type:alpha" maskUnits="userSpaceOnUse" x="-441" y="114" width="594" height="532">
<path d="M115.666 406.248C88.538 320.944 80.1191 324.693 18.3804 319.069C-15.2953 315.684 -40.552 319.069 -62.067 342.504C-83.582 365.939 -88.2592 364.064 -62.067 406.248C-35.8748 448.431 -30.2622 467.179 -40.552 499.051C-50.8418 530.923 28.6702 541.234 52.0561 499.051C75.4419 456.868 142.793 491.552 115.666 406.248Z" fill="#5C835B" fill-opacity="0.59"/>
<path d="M141.691 534.12C156.806 548.074 152.057 560.303 148.649 587.395C138.422 595.987 119.434 623.569 82.8625 601.957C46.2911 580.344 52.3548 504.499 63.9694 510.249C75.584 515.998 90.8671 488.621 100.617 479.461C110.367 470.301 125.789 477.698 120.188 502.756C114.587 527.815 126.575 520.166 141.691 534.12Z" fill="#5C835B" fill-opacity="0.59"/>
</mask>
<g mask="url(#mask0_25_985)">
<ellipse cx="323" cy="290.687" rx="211" ry="217" fill="#5C835B"/>
</g>
<mask id="mask1_25_985" style="mask-type:alpha" maskUnits="userSpaceOnUse" x="100" y="111" width="594" height="532">
<path d="M403.284 469.895C375.784 430.895 386.784 461.895 340.284 477.395C316.284 496.895 340.284 533.895 351.784 548.395C363.284 562.895 428.784 531.895 419.784 519.395C410.784 506.895 430.784 508.895 403.284 469.895Z" fill="#5C835B" fill-opacity="0.59"/>
<path d="M487.316 214.594C520.147 206.839 523.169 207.769 521.217 166.303C505.189 78.148 416.119 119.704 433.867 130.299C451.615 140.894 416.485 179.211 435.566 204.28C454.646 229.348 454.486 222.35 487.316 214.594Z" fill="#5C835B" fill-opacity="0.59"/>
<path d="M325.667 588.214C328.667 551.214 344.167 543.214 299.167 506.214C272.667 490.714 246.667 560.714 263.167 588.214C279.667 615.714 322.667 625.214 325.667 588.214Z" fill="#5C835B" fill-opacity="0.59"/>
<path d="M508.585 578.094C494.085 532.594 489.585 534.594 456.585 531.594C438.585 529.789 425.085 531.594 413.585 544.094C402.085 556.594 399.585 555.594 413.585 578.094C427.585 600.594 430.585 610.594 425.085 627.594C419.585 644.594 462.085 650.094 474.585 627.594C487.085 605.094 523.085 623.594 508.585 578.094Z" fill="#5C835B" fill-opacity="0.59"/>
<path d="M297.539 315.883C253.291 309.011 228.512 306.363 202.195 250.407C185.452 221.443 186.675 223.463 152.246 240.783C117.816 258.104 127.4 340.128 105.729 396.098C84.058 452.068 133.679 512.443 162.711 477.617C191.743 442.791 204.802 472.687 258.313 449.263C311.824 425.839 332.862 435.373 339.29 379.703C345.718 324.032 341.786 322.755 297.539 315.883Z" fill="#5C835B" fill-opacity="0.59"/>
<path d="M335.086 144.876C368.206 132.021 383.569 148.67 423.009 174.52C428.574 196.907 456.948 247.297 395.663 287.623C334.378 327.948 221.328 260.973 239.063 247.32C256.798 233.667 225.93 189.179 219.121 167.102C212.312 145.025 235.493 126.717 270.113 154.426C304.732 182.135 301.967 157.732 335.086 144.876Z" fill="#5C835B" fill-opacity="0.59"/>
<path d="M656.666 403.293C629.538 317.989 621.119 321.738 559.38 316.114C525.705 312.729 500.448 316.114 478.933 339.549C457.418 362.984 452.741 361.109 478.933 403.293C505.125 445.476 510.738 464.224 500.448 496.096C490.158 527.968 569.67 538.279 593.056 496.096C616.442 453.913 683.793 488.597 656.666 403.293Z" fill="#5C835B" fill-opacity="0.59"/>
<path d="M682.691 531.165C697.806 545.119 693.057 557.348 689.649 584.44C679.422 593.032 660.434 620.614 623.862 599.002C587.291 577.389 593.355 501.544 604.969 507.294C616.584 513.043 631.867 485.666 641.617 476.506C651.367 467.346 666.789 474.743 661.188 499.801C655.587 524.86 667.575 517.211 682.691 531.165Z" fill="#5C835B" fill-opacity="0.59"/>
</mask>
<g mask="url(#mask1_25_985)">
<ellipse cx="323" cy="290.687" rx="211" ry="217" fill="#5C835B"/>
</g>
<circle cx="309" cy="272.687" r="222" stroke="#253E64"/>
<path d="M607.861 501.047C592.854 501.047 592.854 470.592 592.854 473.153C592.854 501.047 576.292 501.047 577.024 501.047C592.854 501.047 592.854 530.495 592.854 528.941C592.854 501.047 609.691 501.047 607.861 501.047Z" fill="#ECE200"/>
<path d="M140.785 42.5709C117.548 42.5709 117.548 -3.65478 117.548 0.232063C117.548 42.5709 91.903 42.5709 93.0365 42.5709C117.548 42.5709 117.548 87.2696 117.548 84.9098C117.548 42.5709 143.618 42.5709 140.785 42.5709Z" fill="#ECE200"/>
<defs>
<filter id="filter0_dd_25_985" x="434.812" y="36.8242" width="157.415" height="198.542" filterUnits="userSpaceOnUse" color-interpolation-filters="sRGB">
<feFlood flood-opacity="0" result="BackgroundImageFix"/>
<feColorMatrix in="SourceAlpha" type="matrix" values="0 0 0 0 0 0 0 0 0 0 0 0 0 0 0 0 0 0 127 0" result="hardAlpha"/>
<feOffset dy="2"/>
<feGaussianBlur stdDeviation="1.5"/>
<feColorMatrix type="matrix" values="0 0 0 0 0 0 0 0 0 0 0 0 0 0 0 0 0 0 0.3 0"/>
<feBlend mode="normal" in2="BackgroundImageFix" result="effect1_dropShadow_25_985"/>
<feColorMatrix in="SourceAlpha" type="matrix" values="0 0 0 0 0 0 0 0 0 0 0 0 0 0 0 0 0 0 127 0" result="hardAlpha"/>
<feMorphology radius="4" operator="dilate" in="SourceAlpha" result="effect2_dropShadow_25_985"/>
<feOffset dy="6"/>
<feGaussianBlur stdDeviation="5"/>
<feColorMatrix type="matrix" values="0 0 0 0 0 0 0 0 0 0 0 0 0 0 0 0 0 0 0.15 0"/>
<feBlend mode="normal" in2="effect1_dropShadow_25_985" result="effect2_dropShadow_25_985"/>
<feBlend mode="normal" in="SourceGraphic" in2="effect2_dropShadow_25_985" result="shape"/>
</filter>
<filter id="filter1_d_25_985" x="119.5" y="85.1865" width="453" height="453" filterUnits="userSpaceOnUse" color-interpolation-filters="sRGB">
<feFlood flood-opacity="0" result="BackgroundImageFix"/>
<feColorMatrix in="SourceAlpha" type="matrix" values="0 0 0 0 0 0 0 0 0 0 0 0 0 0 0 0 0 0 127 0" result="hardAlpha"/>
<feOffset dy="4"/>
<feGaussianBlur stdDeviation="2"/>
<feComposite in2="hardAlpha" operator="out"/>
<feColorMatrix type="matrix" values="0 0 0 0 0 0 0 0 0 0 0 0 0 0 0 0 0 0 0.25 0"/>
<feBlend mode="normal" in2="BackgroundImageFix" result="effect1_dropShadow_25_985"/>
<feBlend mode="normal" in="SourceGraphic" in2="effect1_dropShadow_25_985" result="shape"/>
</filter>
</defs>
</svg>
