<svg width="837" height="682" viewBox="0 0 837 682" fill="none" xmlns="http://www.w3.org/2000/svg">
<g filter="url(#filter0_dd_25_1137)">
<rect x="444.562" y="223.712" width="71.0439" height="26.8581" rx="13" transform="rotate(145.92 444.562 223.712)" fill="#555555"/>
<rect x="406.927" y="202.771" width="49.3842" height="10.3967" transform="rotate(55.92 406.927 202.771)" fill="#555555"/>
<rect x="470.566" y="193.307" width="43.0665" height="6.81518" rx="3.40759" transform="rotate(145.92 470.566 193.307)" fill="#555555" stroke="#555555"/>
<rect x="378.294" y="137.716" width="70.8949" height="35.7266" rx="8" transform="rotate(55.92 378.294 137.716)" fill="#555555"/>
<rect x="377.084" y="141.904" width="13.3975" height="13.3975" rx="6" transform="rotate(55.92 377.084 141.904)" fill="#E1E1E1"/>
<rect x="377.084" y="141.904" width="13.3975" height="13.3975" rx="6" transform="rotate(55.92 377.084 141.904)" stroke="#555555"/>
<rect x="386.781" y="156.237" width="13.3975" height="13.3975" rx="6" transform="rotate(55.92 386.781 156.237)" fill="#E1E1E1"/>
<rect x="386.781" y="156.237" width="13.3975" height="13.3975" rx="6" transform="rotate(55.92 386.781 156.237)" stroke="#555555"/>
<rect x="396.478" y="170.57" width="13.3975" height="13.3975" rx="6" transform="rotate(55.92 396.478 170.57)" fill="#E1E1E1"/>
<rect x="396.478" y="170.57" width="13.3975" height="13.3975" rx="6" transform="rotate(55.92 396.478 170.57)" stroke="#555555"/>
<rect x="406.175" y="184.903" width="13.3975" height="13.3975" rx="6" transform="rotate(55.92 406.175 184.903)" fill="#E1E1E1"/>
<rect x="406.175" y="184.903" width="13.3975" height="13.3975" rx="6" transform="rotate(55.92 406.175 184.903)" stroke="#555555"/>
<rect x="363.676" y="150.976" width="13.3975" height="13.3975" rx="6" transform="rotate(55.92 363.676 150.976)" fill="#E1E1E1"/>
<rect x="363.676" y="150.976" width="13.3975" height="13.3975" rx="6" transform="rotate(55.92 363.676 150.976)" stroke="#555555"/>
<rect x="373.373" y="165.309" width="13.3975" height="13.3975" rx="6" transform="rotate(55.92 373.373 165.309)" fill="#E1E1E1"/>
<rect x="373.373" y="165.309" width="13.3975" height="13.3975" rx="6" transform="rotate(55.92 373.373 165.309)" stroke="#555555"/>
<rect x="383.07" y="179.642" width="13.3975" height="13.3975" rx="6" transform="rotate(55.92 383.07 179.642)" fill="#E1E1E1"/>
<rect x="383.07" y="179.642" width="13.3975" height="13.3975" rx="6" transform="rotate(55.92 383.07 179.642)" stroke="#555555"/>
<rect x="392.767" y="193.975" width="13.3975" height="13.3975" rx="6" transform="rotate(55.92 392.767 193.975)" fill="#E1E1E1"/>
<rect x="392.767" y="193.975" width="13.3975" height="13.3975" rx="6" transform="rotate(55.92 392.767 193.975)" stroke="#555555"/>
<rect x="444.608" y="235.735" width="70.8949" height="35.7266" rx="8" transform="rotate(55.92 444.608 235.735)" fill="#555555"/>
<rect x="443.398" y="239.924" width="13.3975" height="13.3975" rx="6" transform="rotate(55.92 443.398 239.924)" fill="#E1E1E1"/>
<rect x="443.398" y="239.924" width="13.3975" height="13.3975" rx="6" transform="rotate(55.92 443.398 239.924)" stroke="#555555"/>
<rect x="453.095" y="254.257" width="13.3975" height="13.3975" rx="6" transform="rotate(55.92 453.095 254.257)" fill="#E1E1E1"/>
<rect x="453.095" y="254.257" width="13.3975" height="13.3975" rx="6" transform="rotate(55.92 453.095 254.257)" stroke="#555555"/>
<rect x="462.792" y="268.59" width="13.3975" height="13.3975" rx="6" transform="rotate(55.92 462.792 268.59)" fill="#E1E1E1"/>
<rect x="462.792" y="268.59" width="13.3975" height="13.3975" rx="6" transform="rotate(55.92 462.792 268.59)" stroke="#555555"/>
<rect x="472.489" y="282.923" width="13.3975" height="13.3975" rx="6" transform="rotate(55.92 472.489 282.923)" fill="#E1E1E1"/>
<rect x="472.489" y="282.923" width="13.3975" height="13.3975" rx="6" transform="rotate(55.92 472.489 282.923)" stroke="#555555"/>
<rect x="429.99" y="248.995" width="13.3975" height="13.3975" rx="6" transform="rotate(55.92 429.99 248.995)" fill="#E1E1E1"/>
<rect x="429.99" y="248.995" width="13.3975" height="13.3975" rx="6" transform="rotate(55.92 429.99 248.995)" stroke="#555555"/>
<rect x="439.687" y="263.328" width="13.3975" height="13.3975" rx="6" transform="rotate(55.92 439.687 263.328)" fill="#E1E1E1"/>
<rect x="439.687" y="263.328" width="13.3975" height="13.3975" rx="6" transform="rotate(55.92 439.687 263.328)" stroke="#555555"/>
<rect x="449.384" y="277.661" width="13.3975" height="13.3975" rx="6" transform="rotate(55.92 449.384 277.661)" fill="#E1E1E1"/>
<rect x="449.384" y="277.661" width="13.3975" height="13.3975" rx="6" transform="rotate(55.92 449.384 277.661)" stroke="#555555"/>
<rect x="459.081" y="291.994" width="13.3975" height="13.3975" rx="6" transform="rotate(55.92 459.081 291.994)" fill="#E1E1E1"/>
<rect x="459.081" y="291.994" width="13.3975" height="13.3975" rx="6" transform="rotate(55.92 459.081 291.994)" stroke="#555555"/>
<path fill-rule="evenodd" clip-rule="evenodd" d="M440.718 210.061C447.283 219.764 460.367 222.379 469.943 215.9C472.533 214.148 474.618 212.481 476.269 210.882L453.181 176.757C451.083 177.693 448.76 179.009 446.17 180.761C436.594 187.24 434.153 200.358 440.718 210.061Z" fill="#555555"/>
</g>
<g filter="url(#filter1_d_25_1137)">
<circle cx="346" cy="331.119" r="222" stroke="#253E64" stroke-dasharray="10 10" shape-rendering="crispEdges"/>
</g>
<ellipse cx="325" cy="316.119" rx="216" ry="222" fill="#B6D0D9"/>
<mask id="mask0_25_1137" style="mask-type:alpha" maskUnits="userSpaceOnUse" x="-145" y="134" width="594" height="532">
<path d="M158.284 493.328C130.784 454.328 141.784 485.328 95.2843 500.828C71.2843 520.328 95.2843 557.328 106.784 571.828C118.284 586.328 183.784 555.328 174.784 542.828C165.784 530.328 185.784 532.328 158.284 493.328Z" fill="#5C835B" fill-opacity="0.59"/>
<path d="M242.316 238.027C275.147 230.271 278.169 231.202 276.217 189.736C260.189 101.581 171.119 143.136 188.867 153.732C206.615 164.327 171.485 202.644 190.566 227.712C209.646 252.781 209.486 245.783 242.316 238.027Z" fill="#5C835B" fill-opacity="0.59"/>
<path d="M80.6668 611.647C83.6668 574.647 99.1668 566.647 54.1668 529.647C27.6668 514.147 1.66685 584.147 18.1668 611.647C34.6668 639.147 77.6668 648.647 80.6668 611.647Z" fill="#5C835B" fill-opacity="0.59"/>
<path d="M263.585 601.527C249.085 556.027 244.585 558.027 211.585 555.027C193.585 553.221 180.085 555.027 168.585 567.527C157.085 580.027 154.585 579.027 168.585 601.527C182.585 624.027 185.585 634.027 180.085 651.027C174.585 668.027 217.085 673.527 229.585 651.027C242.085 628.527 278.085 647.027 263.585 601.527Z" fill="#5C835B" fill-opacity="0.59"/>
<path d="M52.5386 339.316C8.29143 332.444 -16.4878 329.796 -42.8054 273.84C-59.548 244.876 -58.325 246.896 -92.7543 264.216C-127.184 281.536 -117.6 363.561 -139.271 419.531C-160.942 475.501 -111.321 535.876 -82.2891 501.05C-53.2569 466.224 -40.1976 496.12 13.313 472.696C66.8237 449.272 87.8616 458.806 94.29 403.135C100.718 347.465 96.7857 346.188 52.5386 339.316Z" fill="#5C835B" fill-opacity="0.59"/>
<path d="M90.0864 168.309C123.206 155.454 138.569 172.103 178.009 197.953C183.574 220.339 211.948 270.73 150.663 311.055C89.3784 351.381 -23.6715 284.405 -5.93676 270.753C11.798 257.1 -19.0698 212.612 -25.8787 190.535C-32.6875 168.458 -9.5073 150.15 25.1125 177.859C59.7323 205.567 56.9672 181.164 90.0864 168.309Z" fill="#5C835B" fill-opacity="0.59"/>
<path d="M411.666 426.725C384.538 341.421 376.119 345.171 314.38 339.546C280.705 336.162 255.448 339.546 233.933 362.982C212.418 386.417 207.741 384.542 233.933 426.725C260.125 468.909 265.738 487.657 255.448 519.529C245.158 551.4 324.67 561.712 348.056 519.529C371.442 477.345 438.793 512.029 411.666 426.725Z" fill="#5C835B" fill-opacity="0.59"/>
<path d="M437.691 554.598C452.806 568.552 448.057 580.78 444.649 607.873C434.422 616.465 415.434 644.047 378.862 622.434C342.291 600.822 348.355 524.977 359.969 530.726C371.584 536.476 386.867 509.099 396.617 499.938C406.367 490.778 421.789 498.175 416.188 523.234C410.587 548.292 422.575 540.643 437.691 554.598Z" fill="#5C835B" fill-opacity="0.59"/>
</mask>
<g mask="url(#mask0_25_1137)">
<ellipse cx="323" cy="314.119" rx="211" ry="217" fill="#5C835B"/>
</g>
<circle cx="309" cy="296.119" r="222" stroke="#253E64"/>
<path d="M619.753 524.083C593.128 524.083 593.128 469.7 593.128 474.273C593.128 524.083 563.743 524.083 565.042 524.083C593.128 524.083 593.128 576.67 593.128 573.894C593.128 524.083 623 524.083 619.753 524.083Z" fill="#ECE200"/>
<path d="M153.668 65.6093C117.845 65.6093 117.845 -5.63266 117.845 0.35765C117.845 65.6093 78.3088 65.6093 80.0563 65.6093C117.845 65.6093 117.845 134.498 117.845 130.861C117.845 65.6093 158.037 65.6093 153.668 65.6093Z" fill="#ECE200"/>
<defs>
<filter id="filter0_dd_25_1137" x="337.812" y="132.824" width="157.415" height="198.542" filterUnits="userSpaceOnUse" color-interpolation-filters="sRGB">
<feFlood flood-opacity="0" result="BackgroundImageFix"/>
<feColorMatrix in="SourceAlpha" type="matrix" values="0 0 0 0 0 0 0 0 0 0 0 0 0 0 0 0 0 0 127 0" result="hardAlpha"/>
<feOffset dy="2"/>
<feGaussianBlur stdDeviation="1.5"/>
<feColorMatrix type="matrix" values="0 0 0 0 0 0 0 0 0 0 0 0 0 0 0 0 0 0 0.3 0"/>
<feBlend mode="normal" in2="BackgroundImageFix" result="effect1_dropShadow_25_1137"/>
<feColorMatrix in="SourceAlpha" type="matrix" values="0 0 0 0 0 0 0 0 0 0 0 0 0 0 0 0 0 0 127 0" result="hardAlpha"/>
<feMorphology radius="4" operator="dilate" in="SourceAlpha" result="effect2_dropShadow_25_1137"/>
<feOffset dy="6"/>
<feGaussianBlur stdDeviation="5"/>
<feColorMatrix type="matrix" values="0 0 0 0 0 0 0 0 0 0 0 0 0 0 0 0 0 0 0.15 0"/>
<feBlend mode="normal" in2="effect1_dropShadow_25_1137" result="effect2_dropShadow_25_1137"/>
<feBlend mode="normal" in="SourceGraphic" in2="effect2_dropShadow_25_1137" result="shape"/>
</filter>
<filter id="filter1_d_25_1137" x="119.5" y="108.619" width="453" height="453" filterUnits="userSpaceOnUse" color-interpolation-filters="sRGB">
<feFlood flood-opacity="0" result="BackgroundImageFix"/>
<feColorMatrix in="SourceAlpha" type="matrix" values="0 0 0 0 0 0 0 0 0 0 0 0 0 0 0 0 0 0 127 0" result="hardAlpha"/>
<feOffset dy="4"/>
<feGaussianBlur stdDeviation="2"/>
<feComposite in2="hardAlpha" operator="out"/>
<feColorMatrix type="matrix" values="0 0 0 0 0 0 0 0 0 0 0 0 0 0 0 0 0 0 0.25 0"/>
<feBlend mode="normal" in2="BackgroundImageFix" result="effect1_dropShadow_25_1137"/>
<feBlend mode="normal" in="SourceGraphic" in2="effect1_dropShadow_25_1137" result="shape"/>
</filter>
</defs>
</svg>
