<svg width="751" height="563" viewBox="0 0 751 563" fill="none" xmlns="http://www.w3.org/2000/svg">
<g filter="url(#filter0_d_39_2)">
<circle cx="260" cy="258" r="222" stroke="#253E64" stroke-dasharray="10 10" shape-rendering="crispEdges"/>
</g>
<ellipse cx="239" cy="243" rx="216" ry="222" fill="#B6D0D9"/>
<mask id="mask0_39_2" style="mask-type:alpha" maskUnits="userSpaceOnUse" x="126" y="77" width="594" height="532">
<path d="M429.284 435.895C401.784 396.895 412.784 427.895 366.284 443.395C342.284 462.895 366.284 499.895 377.784 514.395C389.284 528.895 454.784 497.895 445.784 485.395C436.784 472.895 456.784 474.895 429.284 435.895Z" fill="#5C835B" fill-opacity="0.59"/>
<path d="M513.316 180.594C546.147 172.839 549.169 173.769 547.217 132.303C531.189 44.148 442.119 85.7037 459.867 96.299C477.615 106.894 442.485 145.211 461.566 170.28C480.646 195.348 480.486 188.35 513.316 180.594Z" fill="#5C835B" fill-opacity="0.59"/>
<path d="M351.667 554.214C354.667 517.214 370.167 509.214 325.167 472.214C298.667 456.714 272.667 526.714 289.167 554.214C305.667 581.714 348.667 591.214 351.667 554.214Z" fill="#5C835B" fill-opacity="0.59"/>
<path d="M534.585 544.094C520.085 498.594 515.585 500.594 482.585 497.594C464.585 495.789 451.085 497.594 439.585 510.094C428.085 522.594 425.585 521.594 439.585 544.094C453.585 566.594 456.585 576.594 451.085 593.594C445.585 610.594 488.085 616.094 500.585 593.594C513.085 571.094 549.085 589.594 534.585 544.094Z" fill="#5C835B" fill-opacity="0.59"/>
<path d="M323.539 281.883C279.291 275.011 254.512 272.363 228.195 216.407C211.452 187.443 212.675 189.463 178.246 206.783C143.816 224.104 153.4 306.128 131.729 362.098C110.058 418.068 159.679 478.443 188.711 443.617C217.743 408.791 230.802 438.687 284.313 415.263C337.824 391.839 358.862 401.373 365.29 345.703C371.718 290.032 367.786 288.755 323.539 281.883Z" fill="#5C835B" fill-opacity="0.59"/>
<path d="M361.086 110.876C394.206 98.0211 409.569 114.67 449.009 140.52C454.574 162.907 482.948 213.297 421.663 253.623C360.378 293.948 247.328 226.973 265.063 213.32C282.798 199.667 251.93 155.179 245.121 133.102C238.312 111.025 261.493 92.7173 296.113 120.426C330.732 148.135 327.967 123.732 361.086 110.876Z" fill="#5C835B" fill-opacity="0.59"/>
<path d="M682.666 369.293C655.538 283.989 647.119 287.738 585.38 282.114C551.705 278.729 526.448 282.114 504.933 305.549C483.418 328.984 478.741 327.109 504.933 369.293C531.125 411.476 536.738 430.224 526.448 462.096C516.158 493.968 595.67 504.279 619.056 462.096C642.442 419.913 709.793 454.597 682.666 369.293Z" fill="#5C835B" fill-opacity="0.59"/>
<path d="M708.691 497.165C723.806 511.119 719.057 523.348 715.649 550.44C705.422 559.032 686.434 586.614 649.862 565.002C613.291 543.389 619.355 467.544 630.969 473.294C642.584 479.043 657.867 451.666 667.617 442.506C677.367 433.346 692.789 440.743 687.188 465.801C681.587 490.86 693.575 483.211 708.691 497.165Z" fill="#5C835B" fill-opacity="0.59"/>
</mask>
<g mask="url(#mask0_39_2)">
<ellipse cx="237" cy="241" rx="211" ry="217" fill="#5C835B"/>
</g>
<circle cx="223" cy="223" r="222" stroke="#253E64"/>
<defs>
<filter id="filter0_d_39_2" x="33.5" y="35.5" width="453" height="453" filterUnits="userSpaceOnUse" color-interpolation-filters="sRGB">
<feFlood flood-opacity="0" result="BackgroundImageFix"/>
<feColorMatrix in="SourceAlpha" type="matrix" values="0 0 0 0 0 0 0 0 0 0 0 0 0 0 0 0 0 0 127 0" result="hardAlpha"/>
<feOffset dy="4"/>
<feGaussianBlur stdDeviation="2"/>
<feComposite in2="hardAlpha" operator="out"/>
<feColorMatrix type="matrix" values="0 0 0 0 0 0 0 0 0 0 0 0 0 0 0 0 0 0 0.25 0"/>
<feBlend mode="normal" in2="BackgroundImageFix" result="effect1_dropShadow_39_2"/>
<feBlend mode="normal" in="SourceGraphic" in2="effect1_dropShadow_39_2" result="shape"/>
</filter>
</defs>
</svg>
