<svg width="721" height="681" viewBox="0 0 721 681" fill="none" xmlns="http://www.w3.org/2000/svg">
<path d="M25 691C26.2124 671.958 29.9825 653.771 32.6545 634.933C37.1113 603.509 31.0437 571.712 40.4152 540.726C45.63 523.483 53.1888 509.326 65.1859 494.852C70.2101 488.791 75.4784 482.985 78.156 475.87C81.8844 465.964 82.3006 455.432 88.2556 446.079C91.7137 440.648 98.1027 436.065 106.01 436.588C113.947 437.113 115.714 448.665 116.853 453.373C117.36 455.468 121.09 482.198 127.378 478.155C131.305 475.631 145.023 445.779 150.661 449.507C158.595 454.753 163.988 467.349 164.694 475.519C165.077 479.956 166.269 488.014 171.604 489.931C190.712 496.799 196.202 462.269 198.714 453.725C203.308 438.095 206.054 423.368 222.209 412.685C226.467 409.869 231.164 408.829 234.647 405.127C241.067 398.305 244.006 389.461 246.979 381.312C251.416 369.152 254.439 348.008 267.072 340.272C291.874 325.086 303.582 363.69 309.278 375.248C313.44 383.693 323.38 385.058 332.029 388.957C340.277 392.677 340.672 404.41 340.746 410.839C340.826 417.732 333.617 450.032 346.806 452.758C362.294 455.959 374.585 448.977 388.161 459.701C398.771 468.081 397.195 467.479 409.636 462.337C415.893 459.751 419.415 453.845 421.118 448.628C428.883 424.842 426.449 397.557 426.965 373.227C427.247 359.935 428.372 313.909 459.39 320.675C473.326 323.715 489.119 342.186 491.922 353.19C493.87 360.84 505.545 380.031 515.736 382.191C538.313 386.976 547.228 363.831 556.985 352.136C567.969 338.97 584.763 335.633 592.918 352.487C598.621 364.272 607.845 380.848 604.792 392.521C602.075 402.907 610.848 415.549 616.298 429.566C623.566 438.076 630.833 476.123 630.833 476.123C638.101 481.129 640.09 481.63 640.523 486.636C641.734 500.653 664.142 549.212 664.142 581.251C664.142 613.291 692 624.805 692 685.379" stroke="#4A051C" stroke-linecap="square"/>
<path d="M-9 445.01C1.46476 439.164 2.11849 421.3 5.72059 410.567C8.37108 402.67 16.8881 414.911 20.4412 416.613C25.8282 419.192 32.0212 384.92 36.2941 393.276C40.3608 401.228 42.312 384.953 42.585 382.31C43.9964 368.642 44.1385 352.961 42.585 339.292C40.4139 320.188 40.8235 301.214 40.8235 281.933C40.8235 274.613 37.7004 262.814 46.3595 262.814C56.4154 262.814 55.4974 280.316 58.4379 288.119C60.02 292.318 59.743 313.143 64.7288 313.143C70.2142 313.143 77.4106 286.406 78.8203 281.09C84.9956 257.802 94.4159 232.352 95.1765 207.705C95.6886 191.11 111.647 206.403 114.301 214.875C117.709 225.756 109.796 249.396 120.088 255.785C132.873 263.721 136.937 211.778 138.206 203.628C140.705 187.573 151.762 191.353 155.82 204.05C161.02 220.318 169.518 195.635 173.56 194.631C184.423 191.934 183.474 202.546 190.294 206.581C200.776 212.781 208.118 199.509 215.583 195.756C237.801 184.584 241.628 211.408 247.918 230.62C255.672 254.3 269.097 253.679 276.353 229.355C281.919 210.696 293.029 190.309 304.41 219.655C311.721 238.506 305.374 278.037 322.15 290.087C341.935 304.299 355.697 241.054 365.557 283.902C370.343 304.699 381.977 279.277 387.827 270.406C391.557 264.749 397.533 269.958 400.912 272.655C408.646 278.828 414.005 236.761 414.626 231.323C415.526 223.445 428.063 177.129 438.154 202.363C445.315 220.272 441.466 234.06 454.007 248.756C464.436 260.977 470.347 275.309 482.944 284.183C496.659 293.844 493.655 318.252 497.539 333.246C499.96 342.589 507.884 349.27 515.154 353.912C520.615 357.399 522.17 379.529 522.703 385.684C524.192 402.884 544.867 416.295 542.272 432.064C548.873 459.065 548.873 489.567 548.873 516.068C548.873 530.766 547.01 540.056 556.592 530.766C562.052 525.473 558.272 534.966 564.474 530.766C571.793 525.81 574.521 550.669 575.168 554.103C577.62 567.114 579.766 580.832 578.44 594.17C577.705 601.553 576.194 604.507 578.188 612.164C583.606 632.973 591.986 651.81 601.967 670.225C606.483 678.556 607 683.669 607 693" stroke="#4A051C" stroke-linecap="square"/>
<path d="M719.629 683.96C717.661 666.465 716.172 649.644 716.172 632.112C716.172 611.54 707.442 591.861 703.114 572.006C700.764 561.225 700.27 550.064 697.929 539.361C696.919 534.741 694.194 535.109 690.248 535.328C677.529 536.035 684.018 519.446 682.471 511.709C680.815 503.428 680.008 495.511 676.422 487.705C671.2 476.34 672.335 462.736 667.012 451.123C660.353 436.593 657.411 425.99 657.411 409.452C657.411 396.155 655.452 384.366 650.498 371.91C647.832 365.209 643.585 360.203 643.585 352.899C643.585 341.875 644.196 330.681 643.585 319.678C642.761 304.861 635.502 288.463 629.758 274.743C625.275 264.032 627.86 254.689 625.918 243.25C624.57 235.313 621.065 228.241 618.621 220.686C615.239 210.235 616.151 199.097 614.588 188.329C614.204 185.685 611.769 171.059 607.387 178.727C604.83 183.202 603.834 189.029 603.834 194.09C603.834 198.634 603.834 203.179 603.834 207.724C603.834 212.427 600.944 215.452 600.474 219.918C600.029 224.139 594.426 242.334 589.24 239.505C589.24 219.918 585.977 201.476 587.416 193.706C583.095 178.727 587.438 173.006 583.095 162.405C583.095 144 572.291 128.949 569.077 112.477C567.086 102.276 565.093 90.248 560.627 80.7916C559.984 79.4299 555.409 67.5747 552.754 70.2299C549.038 73.9455 553.175 85.0986 553.618 89.529C554.192 95.263 554.363 102.379 553.33 108.06C552.942 110.192 550.027 121.874 549.297 119.582C546.304 110.172 543.883 97.6623 543.345 87.7047C542.464 71.4236 534.973 43.9917 514.732 44.4978C508.564 44.652 509.103 54.2789 501.674 51.8909C492.619 48.9803 492.647 42.7407 488.808 35.7604C484.72 28.3283 480.08 24.6876 472.101 28.9433C460.598 35.0785 460.912 42.3355 462.98 55.1555C465.566 71.189 463.326 88.8921 461.731 104.987C461.189 110.46 460.378 117.313 457.315 122.078C454.061 127.14 451.074 110.346 450.978 109.788C448.049 92.7471 443.988 71.6421 439 55.1555C439 35.7604 428.318 51.8909 428.318 27.7911C426.916 22.4501 424.743 23.8903 419.389 23.6624C407.242 23.1456 400.212 18.7069 396.441 32.0158C393.574 42.1342 395.731 51.8841 396.825 62.1646C397.883 72.1136 400.937 78.3932 394.713 86.8406C390.157 93.0235 384.005 103.858 375.126 99.4186C366.479 95.0951 352.938 105.475 346.609 111.805C341.818 116.596 337.115 133.743 328.27 126.495C322.349 121.643 318.268 114.826 311.947 110.364C305.689 105.946 295.07 105.24 287.944 102.491C280.781 99.7284 275.863 97.1805 268.836 101.339C265.823 103.122 249.874 118.114 247.041 114.973C237.549 104.449 233.955 85.1446 228.222 72.1502C220.473 54.585 197.902 53.3416 182.327 45.5539C177.864 43.3227 170.19 47.588 166.58 49.4906C155.448 55.3575 155.21 60.7968 151.602 71.19C147.19 83.8968 145.335 105.104 135.183 114.013C127.699 120.581 111.603 125.277 102.25 120.734C89.4974 114.54 90.7792 92.035 90.5359 80.5996C90.1197 61.0371 83.0055 47.8805 74.0212 30.7676C70.2073 23.5029 64.5733 17.2956 59.5229 10.8924C50.1324 -1.01344 47.4664 -3.0221 36.3832 8.97206C29.6241 16.2867 15.8429 30.1407 18.5243 41.6173C20.1377 48.5224 13.5576 43.3742 14.5 49.5C14.6945 50.7641 15.6024 58.3515 14.5 59C10.7327 61.2161 11.5359 64.0767 8.50015 67.5C3.3113 73.3513 -31.6422 75.2845 -35 82C-41.1791 94.3582 -3.41297 109.315 -11.4325 120.542" stroke="#4A051C" stroke-linecap="square"/>
</svg>
